<?xml version="1.0" standalone="no"?>
<!DOCTYPE svg PUBLIC "-//W3C//DTD SVG 1.1//EN" "http://www.w3.org/Graphics/SVG/1.1/DTD/svg11.dtd" >
<svg xmlns="http://www.w3.org/2000/svg" xmlns:xlink="http://www.w3.org/1999/xlink" version="1.1">
<metadata>
Created by FontForge 20200427 at Tue Dec 22 21:53:40 2015
 By www
Copyright (c) 2015 ParaType, Inc., ParaType Ltd. All rights reserved.
</metadata>
<defs>
<font id="KudryashevHeadlineSansWeb" horiz-adv-x="528" >
  <font-face 
    font-family="Kudryashev Headline Sans Web"
    font-weight="400"
    font-stretch="normal"
    units-per-em="1000"
    panose-1="2 12 5 3 8 5 4 2 3 3"
    ascent="800"
    descent="-200"
    x-height="481"
    cap-height="723"
    bbox="-515 -480 1198 1040"
    underline-thickness="50"
    underline-position="-100"
    unicode-range="U+000D-FEFF"
  />
<missing-glyph horiz-adv-x="500" 
d="M442 8v496h-384v-496h384zM50 512h400v-512h-400v512z" />
    <glyph glyph-name="afii10017.var.accented" unicode="&#x410;`" horiz-adv-x="666" 
d="M626 0h-89q-4 12 -14.5 41.5t-24.5 70t-31 87.5t-33 94h-256l-35 -90q-7 -16 -16 -40.5t-18 -52.5t-17 -57t-14 -53h-38q10 19 25 53t33.5 78.5t39 96.5t41.5 106l87 235q14 36 28.5 75t30.5 79h24zM305 635l-123 -330h247zM506 905q0 -13 -14 -25t-28 -21
q-18 -12 -44 -27.5t-49 -29.5q-27 -17 -56 -33h-24l133 131q22 21 32.5 27t23.5 6q26 0 26 -28z" />
    <glyph glyph-name="afii10022.var.accented" unicode="&#x415;`" horiz-adv-x="607" 
d="M239 12q36 0 79.5 1.5t87.5 6t86 14t77 25.5l-11 -59h-468v723h454l3 -54q-51 30 -116 36t-145 6h-111v-326h67q23 0 52.5 1.5t58 3.5t52 5t34.5 5v-40q-11 2 -34.5 4t-52 4t-58 3.5t-52.5 1.5h-67v-361h64zM472 905q0 -13 -14 -25t-28 -21q-18 -12 -44 -27.5t-49 -29.5
q-27 -17 -56 -33h-24l133 131q22 21 32.5 27t23.5 6q26 0 26 -28z" />
    <glyph glyph-name="afii10026.var.accented" unicode="&#x418;`" horiz-adv-x="750" 
d="M575 0v632l-400 -566v-66h-85v723h85v-631l400 565v66h85v-723h-85zM535 905q0 -13 -14 -25t-28 -21q-18 -12 -44 -27.5t-49 -29.5q-27 -17 -56 -33h-24l133 131q22 21 32.5 27t23.5 6q26 0 26 -28z" />
    <glyph glyph-name="afii10032.var.accented" unicode="&#x41e;`" horiz-adv-x="862" 
d="M806 363q0 -37 -8 -79.5t-25.5 -84.5t-46 -80.5t-70.5 -68t-98 -47t-128 -17.5q-71 0 -127 17.5t-97.5 47t-70 68t-46 80.5t-25.5 84.5t-8 79.5q0 60 20 126t64 121.5t115.5 92t174.5 36.5q105 0 176.5 -34.5t116 -89t64 -121.5t19.5 -131zM713 363q0 78 -18.5 144.5
t-54 115.5t-88.5 76.5t-122 27.5q-68 0 -120.5 -26t-88 -73.5t-54 -115t-18.5 -149.5q0 -70 17.5 -135.5t53 -116.5t88 -82t122.5 -31q72 0 125 31t88 82t52.5 116.5t17.5 135.5zM586 905q0 -13 -14 -25t-28 -21q-18 -12 -44 -27.5t-49 -29.5q-27 -17 -56 -33h-24l133 131
q22 21 32.5 27t23.5 6q26 0 26 -28z" />
    <glyph glyph-name="afii10037.var.accented" unicode="&#x423;`" horiz-adv-x="670" 
d="M479 410q16 36 35.5 82.5t37 92t31.5 83t19 55.5h38q-7 -14 -17.5 -34t-23 -44.5t-25 -51.5t-24.5 -54q-26 -60 -55.5 -128t-61.5 -135q-36 -77 -68 -136t-52 -86q-25 -35 -54 -51.5t-59 -16.5t-47.5 7t-28.5 12l8 46q9 -11 29 -26t50 -15q18 0 41 8.5t50 43.5
q7 10 16 24.5t16.5 28t12.5 23.5l5 10l-322 575h100l268 -490q16 32 37 78.5t44 98.5zM502 905q0 -13 -14 -25t-28 -21q-18 -12 -44 -27.5t-49 -29.5q-27 -17 -56 -33h-24l133 131q22 21 32.5 27t23.5 6q26 0 26 -28z" />
    <glyph glyph-name="afii10045.var.accented" unicode="&#x42b;`" horiz-adv-x="914" 
d="M739 0v723h85v-723h-85zM175 418q32 11 69.5 18.5t85.5 7.5q78 0 130.5 -18t84 -48t44.5 -68.5t13 -79.5q0 -39 -14.5 -81t-48 -76t-89 -56t-137.5 -22q-16 0 -36 1t-41 2t-41 1.5t-36 0.5h-69v723h85v-58v-8v-239zM509 226q0 104 -50.5 155t-145.5 51q-26 0 -64.5 -6.5
t-73.5 -20.5v-385q34 -8 68 -10.5t66 -2.5q41 0 77.5 15t63.5 43.5t43 69t16 91.5zM592 905q0 -13 -14 -25t-28 -21q-18 -12 -44 -27.5t-49 -29.5q-27 -17 -56 -33h-24l133 131q22 21 32.5 27t23.5 6q26 0 26 -28z" />
    <glyph glyph-name="afii10047.var.accented" unicode="&#x42d;`" horiz-adv-x="707" 
d="M651 389q0 -101 -25 -176.5t-72.5 -125.5t-115.5 -75.5t-153 -25.5q-134 0 -219 57l6 58q23 -33 49 -53t54 -31.5t56 -15t54 -3.5q61 0 105.5 17t74.5 46t48.5 67t28.5 79t13 83t3 80h-113h-64t-62.5 -1t-66 -4t-74.5 -9v40q39 -5 72.5 -7.5t65 -4t63 -2t66.5 -0.5h113
v21q0 25 -4 59t-14 70t-28 71t-46 62.5t-67 44.5t-92 17q-83 0 -136.5 -24t-92.5 -73l-6 56q30 16 63 26.5t64.5 16.5t59.5 8t48 2q87 0 152 -29t107.5 -77.5t63.5 -111.5t21 -132zM417 905q0 -13 -14 -25t-28 -21q-18 -12 -44 -27.5t-49 -29.5q-27 -17 -56 -33h-24l133 131
q22 21 32.5 27t23.5 6q26 0 26 -28z" />
    <glyph glyph-name="afii10048.var.accented" unicode="&#x42e;`" horiz-adv-x="1140" 
d="M1084 363q0 -37 -8 -79.5t-26 -84.5t-47 -80.5t-71 -68t-98 -47t-128 -17.5q-71 0 -126 17t-96.5 45.5t-71 66.5t-47.5 80.5t-27 87t-9 86.5h-154v-369h-85v723h85v-342h155q3 64 25.5 128t68 115t115.5 83t167 32q104 0 176 -34.5t117 -89t65 -121.5t20 -131zM991 363
q0 78 -18.5 144.5t-55 115.5t-89.5 76.5t-122 27.5t-122 -26t-89 -73.5t-54.5 -115t-18.5 -149.5q0 -70 18 -135.5t53.5 -116.5t88.5 -82t124 -31q72 0 125.5 31t89 82t53 116.5t17.5 135.5zM652 905q0 -13 -14 -25t-28 -21q-18 -12 -44 -27.5t-49 -29.5q-27 -17 -56 -33
h-24l133 131q22 21 32.5 27t23.5 6q26 0 26 -28z" />
    <glyph glyph-name="afii10049.var.accented" unicode="&#x42f;`" horiz-adv-x="696" 
d="M521 0v364q-52 1 -91.5 -13t-69.5 -40.5t-52.5 -63t-41.5 -81.5q-16 -36 -33.5 -69t-39 -57.5t-47.5 -39t-59 -14.5q-26 0 -41.5 9t-24.5 22.5t-12 28t-4 25.5h12q1 -10 3.5 -20.5t7 -19.5t11.5 -15t17 -6q9 0 17.5 4t17.5 15t19.5 30t22.5 49q7 16 16.5 37.5t20.5 39.5
q26 45 75 90.5t124 72.5h-23q-49 0 -94 12t-79.5 37t-55.5 63t-21 90q0 27 10.5 59t39 60t79.5 46.5t132 18.5q24 0 52 -2t57 -4t57 -3.5t52 -1.5h31v-723h-85zM521 704q-41 11 -70 14.5t-59 3.5q-41 0 -77.5 -10.5t-64.5 -32t-44.5 -54.5t-16.5 -78q0 -85 47.5 -133
t146.5 -48q34 0 75 3l63 7v328zM536 905q0 -13 -14 -25t-28 -21q-18 -12 -44 -27.5t-49 -29.5q-27 -17 -56 -33h-24l133 131q22 21 32.5 27t23.5 6q26 0 26 -28z" />
    <glyph glyph-name="afii10023.var.accented" unicode="&#x401;`" horiz-adv-x="607" 
d="M200 812q0 -20 -13.5 -35t-36.5 -15t-36.5 15t-13.5 35t13.5 35t36.5 15t36.5 -15t13.5 -35zM534 812q0 -20 -13.5 -35t-36.5 -15t-36.5 15t-13.5 35t13.5 35t36.5 15t36.5 -15t13.5 -35zM432 896q0 -13 -14 -25t-28 -21q-18 -12 -44 -27.5t-49 -29.5q-27 -17 -56 -33
h-24l133 131q22 21 32.5 27t23.5 6q26 0 26 -28zM239 12q36 0 79.5 1.5t87.5 6t86 14t77 25.5l-11 -59h-468v723h454l3 -54q-51 30 -116 36t-145 6h-111v-326h67q23 0 52.5 1.5t58 3.5t52 5t34.5 5v-40q-11 2 -34.5 4t-52 4t-58 3.5t-52.5 1.5h-67v-361h64z" />
    <glyph glyph-name="afii10065.var.accented" unicode="&#x430;`" horiz-adv-x="484" 
d="M429 13q12 0 22.5 13t15.5 39h12q-7 -45 -27.5 -60.5t-46.5 -15.5q-76 0 -76 103q-34 -36 -62.5 -56.5t-52 -31t-42.5 -13t-33 -2.5q-60 0 -88.5 29.5t-28.5 72.5q0 46 29.5 78.5t72 54.5t91.5 35t88 19l26 4v51q0 36 -5.5 63.5t-20 46.5t-38.5 28.5t-61 9.5
q-23 0 -44.5 -6t-38.5 -17q-21 -14 -33.5 -34t-12.5 -43q0 -25 4 -37h-13q-2 6 -3 16t-1 21q0 23 13 46.5t41 40.5q18 11 42.5 18t51.5 7q36 0 70 -7.5t60.5 -25.5t42 -49t15.5 -78v-265q0 -10 1 -19.5t4.5 -17.5t9.5 -13t16 -5zM329 270q-45 -8 -86 -20.5t-72 -32
t-49.5 -47t-18.5 -66.5q0 -46 23.5 -64.5t55.5 -18.5q18 0 39 8.5t41 21.5t37.5 28t29.5 29v162zM393 698q0 -13 -14 -25t-28 -21q-18 -12 -44 -27.5t-49 -29.5q-27 -17 -56 -33h-24l133 131q22 21 32.5 27t23.5 6q26 0 26 -28z" />
    <glyph glyph-name="afii10070.var.accented" unicode="&#x435;`" horiz-adv-x="475" 
d="M258 493q49 0 85 -18.5t59.5 -48.5t35 -68t12.5 -77h-334q0 -87 15 -140t37.5 -81.5t50.5 -37.5t54 -9q47 0 87.5 22.5t74.5 76.5l10 -7q-29 -50 -74 -83t-117 -33q-34 0 -72.5 12t-71 40.5t-54 76.5t-21.5 120q0 58 15.5 105t44 80.5t70 51.5t93.5 18zM373 293
q0 37 -7.5 71.5t-22.5 60t-38 41t-54 15.5q-59 0 -93 -45.5t-42 -142.5h257zM410 698q0 -13 -14 -25t-28 -21q-18 -12 -44 -27.5t-49 -29.5q-27 -17 -56 -33h-24l133 131q22 21 32.5 27t23.5 6q26 0 26 -28z" />
    <glyph glyph-name="afii10074.var.accented" unicode="&#x438;`" 
d="M389 0v389l-250 -314v-75h-69v481h69v-383l250 314v69h69v-481h-69zM428 698q0 -13 -14 -25t-28 -21q-18 -12 -44 -27.5t-49 -29.5q-27 -17 -56 -33h-24l133 131q22 21 32.5 27t23.5 6q26 0 26 -28z" />
    <glyph glyph-name="afii10080.var.accented" unicode="&#x43e;`" horiz-adv-x="548" 
d="M513 240q0 -57 -18 -103t-50 -79t-75.5 -51t-95.5 -18q-51 0 -95 17.5t-76 50.5t-50 79.5t-18 103.5q0 63 18 110.5t50 79t76 47.5t95 16q52 0 95.5 -15t75.5 -45.5t50 -78.5t18 -114zM432 240q0 69 -13.5 115.5t-35.5 74.5t-50.5 39.5t-58.5 11.5t-58.5 -11.5
t-50.5 -39.5t-35.5 -74.5t-13.5 -115.5t13.5 -115t35.5 -73.5t50.5 -39t58.5 -11.5t58.5 11.5t50.5 39t35.5 73.5t13.5 115zM426 698q0 -13 -14 -25t-28 -21q-18 -12 -44 -27.5t-49 -29.5q-27 -17 -56 -33h-24l133 131q22 21 32.5 27t23.5 6q26 0 26 -28z" />
    <glyph glyph-name="afii10085.var.accented" unicode="&#x443;`" horiz-adv-x="471" 
d="M275 63q26 70 44.5 121t31.5 88t22 63.5t16 49.5t13.5 45.5t14.5 50.5h34q-12 -28 -28 -68.5t-34 -85.5t-35.5 -91.5t-32.5 -87.5q-16 -43 -35.5 -91t-46.5 -114q-15 -37 -31.5 -71.5t-37.5 -60.5q-17 -19 -38 -31t-50 -12q-22 0 -36.5 5.5t-25.5 11.5l6 42
q22 -23 39.5 -29t30.5 -6q20 0 34 6t29 23q18 24 39.5 65.5t39.5 96.5q-24 53 -53 117t-59 131t-58.5 131.5t-52.5 118.5h76l184 -418v0zM410 698q0 -13 -14 -25t-28 -21q-18 -12 -44 -27.5t-49 -29.5q-27 -17 -56 -33h-24l133 131q22 21 32.5 27t23.5 6q26 0 26 -28z" />
    <glyph glyph-name="afii10093.var.accented" unicode="&#x44b;`" horiz-adv-x="666" 
d="M527 0v481h69v-481h-69zM139 295q32 8 59 10.5t51 2.5q51 0 86 -14.5t57 -37t32 -50t10 -52.5q0 -28 -9.5 -57t-32 -52t-58.5 -38t-88 -15q-24 0 -64 3q-17 2 -41 3t-71 2v481h69v-186zM353 154q0 19 -4.5 44t-18 46.5t-39.5 36.5t-68 15q-20 0 -44 -4t-40 -9v-265
q18 -7 41.5 -10.5t48.5 -3.5q58 0 91 39.5t33 110.5zM483 698q0 -13 -14 -25t-28 -21q-18 -12 -44 -27.5t-49 -29.5q-27 -17 -56 -33h-24l133 131q22 21 32.5 27t23.5 6q26 0 26 -28z" />
    <glyph glyph-name="afii10095.var.accented" unicode="&#x44d;`" horiz-adv-x="453" 
d="M418 256q0 -133 -59.5 -200t-164.5 -67q-36 0 -64 12.5t-48.5 29.5t-33.5 35.5t-18 29.5l11 6q9 -17 22 -33t31.5 -28.5t42.5 -20t53 -7.5q48 0 76.5 20.5t44.5 55t21 78.5t5 91q-10 1 -18.5 1h-26.5q-70 0 -115 -4.5t-67 -9.5v34q23 -5 60.5 -7.5t94.5 -2.5h34.5t37.5 1
q0 40 -6.5 78t-23 67.5t-44.5 47.5t-72 18q-55 0 -88.5 -23.5t-54.5 -52.5l-6 45q27 17 66 30t81 13q52 0 94.5 -17t72.5 -48t46 -74.5t16 -97.5zM346 698q0 -13 -14 -25t-28 -21q-18 -12 -44 -27.5t-49 -29.5q-27 -17 -56 -33h-24l133 131q22 21 32.5 27t23.5 6
q26 0 26 -28z" />
    <glyph glyph-name="afii10096.var.accented" unicode="&#x44e;`" horiz-adv-x="760" 
d="M725 240q0 -60 -18 -106.5t-49.5 -78.5t-75.5 -49t-95 -17q-66 0 -111.5 23.5t-73.5 61t-40.5 83t-12.5 90.5v14h-110v-261h-69v481h69v-208h111q4 41 21 80.5t46 70.5t71.5 50t98.5 19q51 0 95 -17t75.5 -49.5t49.5 -79.5t18 -107zM644 240q0 69 -13.5 115.5t-35 74.5
t-50 39.5t-58.5 11.5t-58.5 -11.5t-50 -39.5t-35 -74.5t-13.5 -115.5t13.5 -115t35 -73.5t50 -39t58.5 -11.5t58.5 11.5t50 39t35 73.5t13.5 115zM525 698q0 -13 -14 -25t-28 -21q-18 -12 -44 -27.5t-49 -29.5q-27 -17 -56 -33h-24l133 131q22 21 32.5 27t23.5 6
q26 0 26 -28z" />
    <glyph glyph-name="afii10097.var.accented" unicode="&#x44f;`" horiz-adv-x="518" 
d="M448 0h-70v48v7v177h-24q-35 0 -57.5 -6.5t-39.5 -20t-31 -35t-30 -51.5t-30 -52.5t-29.5 -38.5t-33.5 -24t-42 -8q-32 0 -45.5 20.5t-13.5 48.5h12q4 -45 26 -45q5 0 10.5 2.5t12.5 11t15.5 23.5t19.5 40q10 21 21.5 40t28.5 36q41 39 100 59q-48 2 -81.5 12.5
t-54.5 27.5t-31 39t-10 48q0 22 9.5 44.5t31.5 40.5t57.5 29t86.5 11q22 0 55 -1.5t62 -1.5h75v-481zM378 463q-27 7 -52 8t-39 1q-60 0 -97.5 -28.5t-37.5 -88.5q0 -14 4 -33t18.5 -37t41.5 -30.5t73 -12.5q25 0 46 0.5t43 7.5v213zM423 698q0 -13 -14 -25t-28 -21
q-18 -12 -44 -27.5t-49 -29.5q-27 -17 -56 -33h-24l133 131q22 21 32.5 27t23.5 6q26 0 26 -28z" />
    <glyph glyph-name="afii10071.var.accented" unicode="&#x451;`" horiz-adv-x="475" 
d="M146 637q0 -20 -13.5 -35t-36.5 -15t-36.5 15t-13.5 35t13.5 35t36.5 15t36.5 -15t13.5 -35zM447 637q0 -20 -13.5 -35t-36.5 -15t-36.5 15t-13.5 35t13.5 35t36.5 15t36.5 -15t13.5 -35zM345 701q0 -13 -14 -25t-28 -21q-18 -12 -44 -27.5t-49 -29.5q-27 -17 -56 -33
h-24l133 131q22 21 32.5 27t23.5 6q26 0 26 -28zM258 493q49 0 85 -18.5t59.5 -48.5t35 -68t12.5 -77h-334q0 -87 15 -140t37.5 -81.5t50.5 -37.5t54 -9q47 0 87.5 22.5t74.5 76.5l10 -7q-29 -50 -74 -83t-117 -33q-34 0 -72.5 12t-71 40.5t-54 76.5t-21.5 120
q0 58 15.5 105t44 80.5t70 51.5t93.5 18zM373 293q0 37 -7.5 71.5t-22.5 60t-38 41t-54 15.5q-59 0 -93 -45.5t-42 -142.5h257z" />
    <glyph glyph-name="fi" unicode="fi" horiz-adv-x="553" 
d="M458 0h-69v453q-26 10 -56.5 11t-47.5 1h-121v-465h-69v465h-80v16h80q0 93 22 151.5t56.5 90.5t76.5 43.5t83 11.5t69 -10.5t45 -27t24.5 -36t7.5 -36.5q0 -29 -14.5 -45t-37.5 -16q-26 0 -38.5 13.5t-12.5 33.5q0 8 3 19.5t19 25.5q4 3 8 6.5t4 8.5q0 27 -24.5 39.5
t-62.5 12.5q-37 0 -66.5 -14.5t-50 -47.5t-31.5 -87.5t-11 -135.5h225l69 14v-495z" />
    <glyph glyph-name="fl" unicode="fl" horiz-adv-x="542" 
d="M296 769q-38 0 -65.5 -8.5t-45.5 -35t-27 -75.5t-9 -130v-39h140v-16h-140v-465h-69v465h-80v16h80q0 55 6 97.5t20 76.5q27 66 74 96t108 30q31 0 58 -3.5t57 -14.5l69 23v-786h-69v697q0 15 -3.5 28t-14.5 23t-32 15.5t-57 5.5z" />
    <glyph glyph-name=".notdef" horiz-adv-x="500" 
d="M442 8v496h-384v-496h384zM50 512h400v-512h-400v512z" />
    <glyph glyph-name=".null" horiz-adv-x="0" 
 />
    <glyph glyph-name=".null" horiz-adv-x="0" 
 />
    <glyph glyph-name="nonmarkingreturn" unicode="&#xd;" horiz-adv-x="224" 
 />
    <glyph glyph-name="space" unicode=" " horiz-adv-x="224" 
 />
    <glyph glyph-name="exclam" unicode="!" horiz-adv-x="282" 
d="M141 736q24 0 37.5 -8t15.5 -19q-5 -41 -9 -74t-7.5 -69t-7.5 -79t-9 -103q-2 -19 -4.5 -56.5t-4.5 -75.5q-3 -44 -5 -94h-12q-3 50 -6 94q-2 38 -4 75.5t-4 56.5q-5 60 -9 103t-7.5 79t-7.5 69t-9 74q2 11 15.5 19t37.5 8zM191 35q0 -20 -13.5 -35t-36.5 -15
q-20 0 -35 14t-15 36q0 21 15 35.5t35 14.5q23 0 36.5 -15t13.5 -35z" />
    <glyph glyph-name="quotedbl" unicode="&#x22;" horiz-adv-x="299" 
d="M84 544h-12q-2 11 -4.5 24t-6 32.5t-8.5 48.5t-13 74q8 5 17.5 9t20.5 4q13 0 22 -3.5t17 -8.5zM226 544h-12q-2 11 -4.5 24t-6 32.5t-8.5 48.5t-13 74q8 5 17.5 9t20.5 4q13 0 22 -3.5t17 -8.5z" />
    <glyph glyph-name="numbersign" unicode="#" horiz-adv-x="712" 
d="M429 214h-214l-41 -214h-17l41 214h-178l2 16h179q13 72 26 139.5t26 139.5h-178l2 16h179l37 195h16l-37 -195h216l36 195h18l-38 -195h188l-3 -16h-188l-51 -279h185l-2 -16h-186l-41 -214h-17zM218 230h214q14 72 26.5 139.5t25.5 139.5h-215z" />
    <glyph glyph-name="dollar" unicode="$" 
d="M260 -100v86q-14 0 -37.5 2.5t-53 8.5t-63.5 17.5t-68 30.5l6 56q15 -18 35.5 -36.5t47 -33t60 -23.5t73.5 -10v339l-12 6q-41 22 -78 44.5t-65.5 49t-45.5 58.5t-17 73q0 33 12 64t38.5 54.5t67.5 38t100 14.5v72h12v-72q57 -2 102 -15.5t82 -33.5l-6 -56
q-27 38 -70 64.5t-108 28.5v-296l26 -13q39 -21 77 -44t68 -51t48.5 -63t18.5 -79q0 -38 -16 -73t-46.5 -62t-74.5 -43t-101 -17v-86h-12zM437 137q0 31 -13 58t-35.5 51t-52.5 45t-64 39v-332q44 1 75 13t51 31t29.5 44t9.5 51zM114 614q0 -32 11.5 -57t31 -46t46.5 -39
t57 -34v289q-42 0 -70.5 -10t-45 -26t-23.5 -36t-7 -41z" />
    <glyph glyph-name="percent" unicode="%" horiz-adv-x="771" 
d="M332 588q0 -42 -14 -71t-35 -47t-45.5 -25.5t-46.5 -7.5q-39 0 -66.5 14t-44 36t-24 49t-7.5 52t7.5 52t24 49t44 36t66.5 14q22 0 47 -8t46 -26t34.5 -46.5t13.5 -70.5zM269 588q0 9 -1.5 32t-9 47t-23 42t-44.5 18t-45 -17.5t-23.5 -41t-9 -46.5t-1.5 -34
q0 -12 1.5 -35.5t9 -46.5t23.5 -40t45 -17t44.5 18t23 41.5t9 46.5t1.5 33zM722 137q0 -42 -14 -71t-35 -47t-45.5 -25.5t-46.5 -7.5q-39 0 -66.5 14t-44 36t-24 49t-7.5 52t7.5 52t24 49t44 36t66.5 14q22 0 47 -8t46 -26t34.5 -46.5t13.5 -70.5zM659 137q0 9 -1.5 32
t-9 47t-23 42t-44.5 18t-45 -17.5t-23.5 -41t-9 -46.5t-1.5 -34q0 -12 1.5 -35.5t9 -46.5t23.5 -40t45 -17t44.5 18t23 41.5t9 46.5t1.5 33zM132 -13l-15 10l500 744l15 -11z" />
    <glyph glyph-name="ampersand" unicode="&#x26;" horiz-adv-x="739" 
d="M517 104q12 12 27 31t28 46.5t22 64.5t10 84h30q-8 -72 -36 -130.5t-75 -105.5q26 -41 45 -62t45 -21q20 0 42.5 16.5t43.5 39.5l10 -8q-38 -46 -70 -59.5t-66 -13.5q-14 0 -28.5 2t-29 8.5t-29 18t-29.5 30.5q-15 -10 -32.5 -20.5t-40 -19t-51 -14t-63.5 -5.5
q-54 0 -97.5 12t-74.5 36t-48 59.5t-17 82.5q0 40 14.5 72.5t40 59t61.5 49t79 42.5q-41 63 -52 107t-11 75q0 28 10.5 56t31 50t50.5 35.5t68 13.5q34 0 59 -10t41 -27.5t24 -40t8 -46.5q0 -48 -37.5 -94t-117.5 -94zM235 387q-14 -9 -32.5 -25.5t-35.5 -39.5t-29 -53
t-12 -66t9 -70.5t31 -62t57.5 -44t89.5 -16.5q42 0 78.5 15t59.5 29zM410 627q0 39 -22 68t-60 29q-42 0 -68.5 -34.5t-26.5 -85.5q0 -33 13 -77.5t47 -91.5q65 48 91 93.5t26 98.5z" />
    <glyph glyph-name="quotesingle" unicode="'" horiz-adv-x="157" 
d="M84 544h-12q-2 11 -4.5 24t-6 32.5t-8.5 48.5t-13 74q8 5 17.5 9t20.5 4q13 0 22 -3.5t17 -8.5z" />
    <glyph glyph-name="parenleft" unicode="(" horiz-adv-x="359" 
d="M341 -102q-62 37 -116.5 87t-95.5 111t-64.5 131t-23.5 146t24 145t65 128t95.5 108t115.5 85l7 -10q-70 -52 -112.5 -118t-65.5 -130.5t-30.5 -120.5t-7.5 -87q0 -32 8 -89t31 -122.5t65.5 -133t111.5 -120.5z" />
    <glyph glyph-name="parenright" unicode=")" horiz-adv-x="359" 
d="M11 -92q69 53 111.5 120.5t65.5 133t31 122.5t8 89q0 31 -7.5 87t-30.5 120.5t-65.5 130.5t-112.5 118l7 10q61 -36 115.5 -85t95.5 -108t65 -128t24 -145t-23.5 -146t-64.5 -131t-95.5 -111t-116.5 -87z" />
    <glyph glyph-name="asterisk" unicode="*" horiz-adv-x="502" 
d="M219 556q-17 5 -40.5 12t-45.5 15l-52 18q0 8 3 18.5t8.5 20t13.5 17.5t17 11l103 -98q6 9 17 11q-4 17 -9 41.5t-10 47.5q-6 26 -12 55q6 5 17 7.5t22 2.5t21.5 -2.5t17.5 -8.5l-31 -143q11 -4 17 -11l103 98q9 -3 17 -11t13.5 -17.5t8.5 -20t3 -18.5q-27 -9 -53 -18
q-22 -8 -45.5 -15t-40.5 -12q1 -2 1 -6t-1 -6q17 -5 40.5 -13t45.5 -15q26 -9 53 -17q0 -8 -3 -18.5t-8.5 -20t-13.5 -17.5t-17 -11l-103 97q-7 -8 -17 -10l31 -143q-7 -6 -17.5 -8.5t-21.5 -2.5t-22 2.5t-17 7.5q6 28 12 54q5 23 10 47.5t9 41.5q-11 3 -17 11l-103 -97
q-9 3 -17 11t-13.5 17.5t-8.5 20t-3 18.5q26 8 52 17q22 7 45.5 15t40.5 13v6v6z" />
    <glyph glyph-name="plus" unicode="+" 
d="M272 338v-243h-16v243h-247v16h247v243h16v-243h247v-16h-247z" />
    <glyph glyph-name="comma" unicode="," horiz-adv-x="215" 
d="M162 33q0 -53 -28 -105t-68 -88l-9 9q32 33 47 63.5t15 53.5q0 21 -9.5 29.5t-25.5 19.5q-14 9 -22.5 19.5t-8.5 26.5q0 19 14 32t37 13q24 0 41 -18t17 -55z" />
    <glyph glyph-name="hyphen" unicode="-" horiz-adv-x="354" 
d="M50 288h254v-16h-254v16z" />
    <glyph glyph-name="period" unicode="." horiz-adv-x="206" 
d="M153 35q0 -20 -13.5 -35t-36.5 -15q-20 0 -35 14t-15 36q0 21 15 35.5t35 14.5q23 0 36.5 -15t13.5 -35z" />
    <glyph glyph-name="slash" unicode="/" horiz-adv-x="568" 
d="M-5 -93l-15 10l593 883l15 -10z" />
    <glyph glyph-name="zero" unicode="0" 
d="M493 363q0 -59 -12.5 -125.5t-40 -122.5t-71 -92.5t-106.5 -36.5t-106.5 36.5t-70.5 92.5t-39 122.5t-12 125.5q0 60 12 126t39 121.5t70.5 92t106.5 36.5t106.5 -36.5t71 -92.5t40 -122t12.5 -125zM409 363q0 31 -2 70.5t-7.5 80t-15.5 79t-26 68.5t-39.5 48t-55.5 18
t-55 -18.5t-39 -49t-25.5 -69t-15 -79t-7.5 -79.5t-2 -69q0 -103 12.5 -173t33 -112.5t46.5 -61t52 -18.5q27 0 53 19t47 61.5t33.5 112.5t12.5 172z" />
    <glyph glyph-name="one" unicode="1" 
d="M306 0h-77v601q-33 -34 -62 -58t-64 -48l-7 10q57 45 108.5 103.5t80.5 123.5h21v-732z" />
    <glyph glyph-name="two" unicode="2" 
d="M450 0h-431v14l184 192q35 37 67 74t56.5 76.5t39 81.5t14.5 89q0 55 -13.5 93.5t-35 62t-47.5 34t-50 10.5q-26 0 -53.5 -7.5t-46.5 -23.5q-20 -16 -34.5 -38.5t-14.5 -48.5q0 -13 1.5 -26t5.5 -25h-14q-5 14 -6 26t-1 25q0 23 14 49.5t43 47.5q19 14 45.5 23.5
t60.5 9.5q113 0 171.5 -54.5t58.5 -152.5q0 -35 -14 -68.5t-37 -66t-51.5 -63t-57.5 -58.5l-218 -211h233q34 0 57 3.5t37.5 10t22.5 16.5t12 23l4 19h12z" />
    <glyph glyph-name="three" unicode="3" 
d="M486 204q0 -54 -19 -98.5t-61 -73.5q-31 -22 -73.5 -34t-98.5 -12q-30 0 -66 9t-63 29q-23 17 -40.5 46.5t-17.5 62.5q0 16 2.5 29.5t4.5 21.5h14q-2 -7 -4.5 -17.5t-2.5 -33.5q0 -26 12 -52.5t40 -47.5q24 -18 56.5 -26.5t54.5 -8.5q49 0 81.5 16.5t52.5 42.5
q13 17 22 37.5t13.5 41.5t6.5 42t2 40q0 65 -20 102t-48.5 55.5t-61 23t-56.5 4.5q-19 0 -35 -1.5t-34 -6.5v28q25 -7 44 -8t37 -1q31 0 60.5 11t52 31t36 48.5t13.5 64.5q0 71 -39 114.5t-114 43.5q-29 0 -56 -7.5t-45 -21.5q-20 -15 -35.5 -37.5t-15.5 -47.5q0 -17 1 -24
t4 -20h-14q-2 8 -3.5 17.5t-1.5 29.5q0 14 12.5 41.5t45.5 50.5q22 15 52 23t56 8q72 0 116.5 -15.5t69.5 -39.5t34 -54t9 -58q0 -27 -11 -52.5t-32 -47.5t-51 -38.5t-69 -23.5q38 -7 71.5 -24t58 -43t39 -61t14.5 -78z" />
    <glyph glyph-name="four" unicode="4" 
d="M328 174v283l77 62v-345h97v-12h-97v-162h-77v162h-316v12q33 49 106 160t173 282q17 31 35.5 63t31.5 58q2 -2 13.5 -8t25.5 -14q15 -9 34 -19l-405 -522h302z" />
    <glyph glyph-name="five" unicode="5" 
d="M476 241q0 -59 -21 -105t-55 -81q-37 -38 -88 -53.5t-98 -15.5q-28 0 -61 8t-59 30q-19 16 -33 42t-14 51q0 16 2 28t4 23h14q-4 -17 -4.5 -30t-0.5 -21q0 -21 10.5 -44t29.5 -40q20 -17 48.5 -26t57.5 -9q45 0 80 16.5t60 53.5q27 40 35.5 83t8.5 91q0 21 -3 46
t-13.5 49.5t-30 48t-52.5 41t-81 28.5t-115 11l33 257h219q46 0 66 7t25 24q0 2 0.5 3.5t0.5 2.5h13l-21 -102h-299q-7 -44 -12 -88t-11 -88h38q99 0 162 -21.5t100 -55.5t51 -77.5t14 -86.5z" />
    <glyph glyph-name="six" unicode="6" 
d="M495 229q0 -51 -15.5 -95t-44 -77t-70 -52t-93.5 -19q-56 0 -95.5 16.5t-66.5 44t-42 62.5t-23 71.5t-10 71.5t-2 63q0 78 17.5 154t53.5 136t91 97t130 37q26 0 48 -7t38 -18q20 -14 31 -36t11 -41q0 -14 -2 -24.5t-4 -20.5h-14q3 12 4 21t1 24q0 17 -9 35t-26 31
q-20 15 -42.5 19.5t-35.5 4.5q-49 0 -87 -23t-65 -66.5t-41.5 -106t-16.5 -141.5q45 33 88.5 45t85.5 12q43 0 80.5 -13.5t65.5 -40.5t44 -68t16 -96zM411 225q0 64 -15.5 103t-39 60t-51.5 28t-53 7q-35 0 -70 -13.5t-67 -36.5q-3 -32 -1 -62t3 -59q3 -57 14 -103.5
t30.5 -80t47 -52t63.5 -18.5q48 0 75.5 24t41.5 59t18 74.5t4 69.5z" />
    <glyph glyph-name="seven" unicode="7" 
d="M399 542q-14 -31 -36 -87.5t-45 -122.5q-20 -60 -37.5 -132t-28.5 -139q-2 -11 -5 -24.5t-10 -25t-18 -19t-28 -7.5q-16 0 -30 11.5t-14 42.5q0 10 3 24t11 36t23 55.5t39 82.5l124 249l88 172h-208q-30 0 -56 -2t-46 -9.5t-34 -23.5t-21 -43h-12l21 143h389l8 17h12z
" />
    <glyph glyph-name="eight" unicode="8" 
d="M501 188q0 -36 -15 -72.5t-44.5 -65t-73.5 -46.5t-101 -18q-62 0 -107 15t-74 41.5t-43.5 62t-14.5 76.5q0 143 165 204q-39 21 -64 43.5t-39.5 45t-20 45.5t-5.5 46q0 34 11.5 65.5t36.5 55.5t63 38.5t92 14.5q50 0 87 -13t61 -34.5t36 -50t12 -58.5q0 -62 -41.5 -106
t-109.5 -64q41 -21 76 -41.5t60 -46t39 -58.5t14 -79zM406 583q0 69 -36.5 106.5t-105.5 37.5q-39 0 -66 -10t-44 -28t-24.5 -43t-7.5 -55q0 -29 17 -55t42.5 -48t55 -39t54.5 -27q39 18 62 42t34.5 47.5t15 43t3.5 28.5zM434 163q0 42 -20 73t-52.5 55.5t-72 44t-78.5 39.5
q-58 -35 -89.5 -87t-31.5 -109q0 -46 15 -80t40 -56.5t57.5 -33.5t67.5 -11q44 0 75 14t51 37t29 52.5t9 61.5z" />
    <glyph glyph-name="nine" unicode="9" 
d="M33 496q0 51 15.5 95t44 77t70 52t93.5 19q56 0 95.5 -16.5t66.5 -44t42 -62.5t23 -71.5t10 -72t2 -62.5q0 -78 -17.5 -154t-53 -136t-90 -97t-129.5 -37q-26 0 -48 7t-38 18q-20 14 -31.5 36.5t-11.5 41.5q0 14 1 24.5t3 19.5h14q-2 -9 -2.5 -19t-0.5 -25
q0 -17 9.5 -35.5t26.5 -31.5q20 -15 42.5 -19.5t35.5 -4.5q49 0 87 23t64 66.5t40.5 106t16.5 141.5q-45 -33 -88.5 -45t-85.5 -12q-43 0 -80.5 13.5t-65.5 40.5t-44 68t-16 96zM117 500q0 -64 15.5 -103t39 -60t51.5 -28t53 -7q35 0 70 13.5t67 36.5q3 32 1 62t-3 59
q-3 57 -14 103.5t-30.5 80t-47 52t-63.5 18.5q-48 0 -75.5 -24t-41.5 -59t-18 -74.5t-4 -69.5z" />
    <glyph glyph-name="colon" unicode=":" horiz-adv-x="206" 
d="M153 35q0 -20 -13.5 -35t-36.5 -15q-20 0 -35 14t-15 36q0 21 15 35.5t35 14.5q23 0 36.5 -15t13.5 -35zM153 455q0 -20 -13.5 -35t-36.5 -15q-20 0 -35 14t-15 36q0 21 15 35.5t35 14.5q23 0 36.5 -15t13.5 -35z" />
    <glyph glyph-name="semicolon" unicode=";" horiz-adv-x="215" 
d="M157 455q0 -20 -13.5 -35t-36.5 -15q-20 0 -35 14t-15 36q0 21 15 35.5t35 14.5q23 0 36.5 -15t13.5 -35zM162 33q0 -53 -28 -105t-68 -88l-9 9q32 33 47 63.5t15 53.5q0 21 -9.5 29.5t-25.5 19.5q-14 9 -22.5 19.5t-8.5 26.5q0 19 14 32t37 13q24 0 41 -18t17 -55z" />
    <glyph glyph-name="less" unicode="&#x3c;" 
d="M514 73l-508 267l508 265l8 -16l-477 -249q120 -63 239 -125.5t239 -125.5z" />
    <glyph glyph-name="equal" unicode="=" 
d="M9 427v16h510v-16h-510zM9 240v16h510v-16h-510z" />
    <glyph glyph-name="greater" unicode="&#x3e;" 
d="M5 89q120 63 239 125.5t239 125.5l-477 249l8 16l508 -265l-508 -267z" />
    <glyph glyph-name="question" unicode="?" horiz-adv-x="474" 
d="M434 504q0 -40 -14.5 -74t-40 -65t-60 -60.5t-74.5 -60.5q-20 -15 -35 -30t-15 -40v-35h-12v125q0 20 10 32.5t36 32.5q22 16 47 37t46.5 48t35.5 60.5t14 74.5q0 33 -10 64.5t-30.5 56t-52.5 39.5t-75 15q-29 0 -57.5 -10.5t-47.5 -28.5q-18 -17 -29 -39t-11 -46
q0 -19 2 -26.5t4 -15.5h-14q-2 8 -4 18t-2 25q0 20 11 45.5t34 46.5q23 20 53 31.5t61 11.5q50 0 92 -16.5t73 -47t48 -73.5t17 -95zM239 35q0 -20 -13.5 -35t-36.5 -15q-20 0 -35 14t-15 36q0 21 15 35.5t35 14.5q23 0 36.5 -15t13.5 -35z" />
    <glyph glyph-name="at" unicode="@" horiz-adv-x="907" 
d="M879 389q0 -63 -16.5 -113.5t-44 -89.5t-62.5 -67t-71.5 -46t-72.5 -26.5t-64 -8.5q-26 0 -41 11t-17 37q-1 10 2.5 34.5t18.5 64.5q-23 -32 -45 -57t-43 -43q-32 -26 -58.5 -36t-51.5 -10q-44 0 -66.5 28.5t-22.5 82.5q0 49 21.5 109t60.5 112q25 33 50.5 57.5t53.5 41
t59.5 24.5t69.5 8q42 0 68 -15l10 28h60l-102 -324q-4 -12 -8 -26.5t-7 -28.5t-5 -26t-2 -19q0 -32 30 -32q36 0 84.5 20.5t93 61t75.5 102t31 142.5q0 27 -5 60.5t-18.5 68.5t-36.5 69t-59 62q-44 33 -109.5 56t-160.5 23q-72 0 -138 -20t-121 -57q-82 -56 -132 -154.5
t-50 -229.5q0 -88 32 -165t83 -130q60 -61 145 -96t175 -35q80 0 142 12.5t110 34t84 50.5t65 61l9 -8q-29 -33 -65.5 -63t-85 -52.5t-112 -35.5t-145.5 -13t-162.5 28.5t-144 84t-103 137t-39.5 188.5q0 140 49 236.5t134 157.5q54 38 123.5 59.5t147.5 21.5
q91 0 160.5 -22.5t119.5 -60.5q61 -48 90.5 -115.5t29.5 -148.5zM597 453q-3 12 -15.5 24.5t-46.5 12.5q-23 0 -47.5 -13t-48.5 -34.5t-46.5 -50.5t-42.5 -62q-15 -27 -28 -56.5t-22.5 -57t-15 -52.5t-5.5 -44q0 -40 12.5 -54.5t29.5 -14.5q20 0 45.5 11.5t49.5 31.5
q20 17 40 40t38 50q21 32 33.5 61t19.5 49z" />
    <glyph glyph-name="A" unicode="A" horiz-adv-x="666" 
d="M626 0h-89q-4 12 -14.5 41.5t-24.5 70t-31 87.5t-33 94h-256l-35 -90q-7 -16 -16 -40.5t-18 -52.5t-17 -57t-14 -53h-38q10 19 25 53t33.5 78.5t39 96.5t41.5 106l87 235q14 36 28.5 75t30.5 79h24zM305 635l-123 -330h247z" />
    <glyph glyph-name="B" unicode="B" horiz-adv-x="671" 
d="M90 723h67q42 0 88.5 2.5t90.5 2.5q70 0 117.5 -12t76.5 -33t42 -49t13 -60q0 -66 -46.5 -113.5t-133.5 -62.5q43 -6 81.5 -21t67 -38.5t45.5 -56t17 -72.5q0 -52 -19 -92t-53.5 -67.5t-82.5 -41.5t-106 -14q-33 0 -60 1l-54 2q-26 1 -52 1.5t-55 0.5h-44v723zM523 214
q0 22 -7.5 53t-31 59t-68 47.5t-119.5 19.5h-121v-373q45 -10 80.5 -11.5t62.5 -1.5q29 0 64.5 9t66.5 32.5t52 63.5t21 102zM498 557q0 53 -22.5 84.5t-53.5 48t-63.5 21.5t-51.5 5q-32 0 -67 -3t-64 -10v-298h143q7 0 23 1t36 5.5t41 14t38.5 26.5t29 42.5t11.5 62.5z" />
    <glyph glyph-name="C" unicode="C" horiz-adv-x="734" 
d="M668 49q-57 -33 -116.5 -48t-126.5 -15q-92 0 -161 27.5t-115.5 76.5t-69.5 117t-23 148q0 63 18 130.5t61.5 124t115.5 93t179 36.5q48 0 101.5 -10.5t120.5 -42.5l-6 -56q-38 45 -93 71t-138 26q-70 0 -120 -30t-82.5 -80.5t-48 -117t-15.5 -138.5q0 -94 23 -162.5
t61.5 -113t88 -66t103.5 -21.5q79 0 137 27t100 78z" />
    <glyph glyph-name="D" unicode="D" horiz-adv-x="791" 
d="M90 723h55q21 0 46.5 1t52.5 1.5t53 1.5t47 1q90 0 153.5 -19t107 -49.5t69.5 -68.5t39.5 -76t17.5 -71.5t4 -55.5q0 -32 -5.5 -74t-20.5 -85.5t-42 -85.5t-70.5 -75t-105.5 -53t-147 -20q-20 0 -46.5 1t-52.5 2q-23 1 -44.5 1.5t-37.5 0.5h-73v723zM642 379q0 31 -5 68
t-18 74.5t-35 72.5t-55 62t-78.5 43.5t-106.5 16.5q-38 0 -80 -3t-89 -11v-680q14 -3 34.5 -5.5t43 -5t45.5 -3.5t43 -1q79 0 136 30t94 81t54 118.5t17 142.5z" />
    <glyph glyph-name="E" unicode="E" horiz-adv-x="607" 
d="M239 12q36 0 79.5 1.5t87.5 6t86 14t77 25.5l-11 -59h-468v723h454l3 -54q-51 30 -116 36t-145 6h-111v-326h67q23 0 52.5 1.5t58 3.5t52 5t34.5 5v-40q-11 2 -34.5 4t-52 4t-58 3.5t-52.5 1.5h-67v-361h64z" />
    <glyph glyph-name="F" unicode="F" horiz-adv-x="585" 
d="M174 0h-84v723h454l3 -54q-51 30 -116 36t-145 6h-111v-326h67q23 0 52.5 1.5t58 3.5t52 5t34.5 5v-40q-11 2 -34.5 4t-52 4t-58 3.5t-52.5 1.5h-67z" />
    <glyph glyph-name="G" unicode="G" horiz-adv-x="789" 
d="M709 85q-51 -44 -125.5 -71.5t-154.5 -27.5q-101 0 -172 32t-115.5 84t-65 119t-20.5 136q0 82 28.5 152t79 121t120 80t152.5 29q43 0 102.5 -10.5t124.5 -42.5l-6 -56q-15 18 -36.5 35t-50 31t-63.5 22.5t-75 8.5q-61 0 -112.5 -25t-89.5 -72t-59.5 -116.5
t-21.5 -157.5q0 -102 26.5 -170.5t67.5 -110t90 -59.5t95 -18q45 0 79 9t57.5 21t38 24t21.5 18v277h85v-262z" />
    <glyph glyph-name="H" unicode="H" horiz-adv-x="750" 
d="M575 0v368h-400v-368h-85v723h85v-343h400v343h85v-723h-85z" />
    <glyph glyph-name="I" unicode="I" horiz-adv-x="265" 
d="M175 0h-85v723h85v-723z" />
    <glyph glyph-name="J" unicode="J" horiz-adv-x="423" 
d="M248 723h85v-428q0 -47 -4.5 -84.5t-12.5 -67.5t-20 -53.5t-28 -42.5q-29 -35 -69 -48t-74 -13q-23 0 -46.5 9t-40.5 26q-12 12 -20 29.5t-8 37.5q0 14 1 24t5 23h14q-3 -11 -4.5 -20.5t-1.5 -26.5q0 -19 7 -33.5t18 -26.5q30 -30 78 -30q29 0 55.5 13t43.5 47
q10 20 14.5 45.5t6 55t1.5 62v66.5v436z" />
    <glyph glyph-name="K" unicode="K" horiz-adv-x="659" 
d="M175 0h-85v723h85v-723zM272 425l383 -425h-111l-340 380l163 152q33 31 65 62.5t57.5 58t43.5 45.5t23 25h44q-6 -5 -26 -22.5t-44 -39t-47 -42.5t-35 -31z" />
    <glyph glyph-name="L" unicode="L" horiz-adv-x="582" 
d="M231 12q36 0 79.5 1.5t88 6t86.5 14t77 25.5l-11 -59h-461v723h85v-711h56z" />
    <glyph glyph-name="M" unicode="M" horiz-adv-x="895" 
d="M720 0v665l-294 -547h-21l-297 551v-417q0 -84 2 -147t10 -105h-40q9 42 11.5 110t2.5 173v440h79l281 -520q69 131 139.5 260t139.5 260h72v-723h-85z" />
    <glyph glyph-name="N" unicode="N" horiz-adv-x="729" 
d="M611 499q0 21 -0.5 50.5t-2 61t-3.5 61.5t-6 51h40q-4 -19 -7 -47.5t-4.5 -63t-2 -71.5t-0.5 -72v-483h-13l-488 606v-347q0 -75 2.5 -137t10.5 -108h-40q6 23 8.5 57.5t3.5 70.5t1 67.5v49.5v364q-21 27 -45.5 57t-44.5 57h106l485 -607v383v0z" />
    <glyph glyph-name="O" unicode="O" horiz-adv-x="862" 
d="M806 363q0 -37 -8 -79.5t-25.5 -84.5t-46 -80.5t-70.5 -68t-98 -47t-128 -17.5q-71 0 -127 17.5t-97.5 47t-70 68t-46 80.5t-25.5 84.5t-8 79.5q0 60 20 126t64 121.5t115.5 92t174.5 36.5q105 0 176.5 -34.5t116 -89t64 -121.5t19.5 -131zM713 363q0 78 -18.5 144.5
t-54 115.5t-88.5 76.5t-122 27.5q-68 0 -120.5 -26t-88 -73.5t-54 -115t-18.5 -149.5q0 -70 17.5 -135.5t53 -116.5t88 -82t122.5 -31q72 0 125 31t88 82t52.5 116.5t17.5 135.5z" />
    <glyph glyph-name="P" unicode="P" horiz-adv-x="619" 
d="M579 520q0 -45 -18.5 -86.5t-54.5 -73.5t-89 -51t-122 -19q-27 0 -57.5 2t-62.5 10v-302h-85v723h9q48 1 104 6t102 5q79 0 132 -19.5t84.5 -50t44.5 -69t13 -75.5zM486 520q0 100 -51.5 151t-145.5 51q-28 0 -57 -4t-57 -11v-394q32 -8 61 -9.5t55 -1.5q87 0 141 55.5
t54 162.5z" />
    <glyph glyph-name="Q" unicode="Q" horiz-adv-x="862" 
d="M806 363q0 -37 -7.5 -78.5t-25 -83t-45 -79.5t-67.5 -67.5t-93.5 -48t-122.5 -20.5q-49 -34 -82 -50t-53 -24h22q27 0 52.5 -6t53 -18t59.5 -29.5t73 -41.5q25 -14 52 -22t54 -8q13 0 30 4t36 13.5t39 26t39 41.5l9 -8q-27 -38 -57 -59t-59 -31t-55.5 -12t-45.5 -2
q-23 0 -49.5 4t-57.5 14t-66.5 27t-76.5 43q-23 15 -51.5 31.5t-57.5 15.5h-39v12q33 4 60 10.5t51 16t47 22.5t49 30q-70 1 -124 19.5t-94.5 48t-68.5 67.5t-45.5 79.5t-25 83.5t-7.5 79q0 60 20 126t64.5 121.5t115.5 92t174 36.5q105 0 176.5 -34.5t116 -89t64 -121.5
t19.5 -131zM713 363q0 78 -18.5 144.5t-54 115.5t-88.5 76.5t-122 27.5q-68 0 -120.5 -26t-88 -73.5t-54 -115t-18.5 -149.5q0 -70 17.5 -135.5t53 -116.5t88 -82t122.5 -31q72 0 125 31t88 82t52.5 116.5t17.5 135.5z" />
    <glyph glyph-name="R" unicode="R" horiz-adv-x="693" 
d="M637 10q10 0 17.5 6t12 15t7 19.5t2.5 20.5h12q0 -11 -2.5 -26t-11.5 -28t-26 -22t-46 -9q-32 0 -57.5 15t-47.5 42.5t-42 66.5t-40 86q-17 39 -41 72.5t-54.5 57t-66.5 36t-78 10.5v-372h-85v723h14q51 -1 108 5t107 6q87 0 140.5 -17t83.5 -43.5t40 -59t10 -62.5
q0 -47 -22 -83t-59.5 -60.5t-88 -37.5t-107.5 -13q82 -26 132 -73t79 -100q15 -26 29.5 -57.5t25.5 -56.5q4 -9 9 -19.5t12 -20t15 -15.5t19 -6zM500 547q0 88 -52 131.5t-140 43.5q-38 0 -74 -6t-59 -11v-321l53 -5q20 -2 41 -4t41 -2q43 0 78 13t60 36t38.5 55t13.5 70z
" />
    <glyph glyph-name="S" unicode="S" horiz-adv-x="576" 
d="M528 181q0 -39 -16 -74t-47 -62t-76 -43t-103 -16q-11 0 -34.5 1.5t-54.5 7.5t-67.5 17.5t-73.5 32.5l6 56q15 -19 36 -37.5t49 -33t62 -23.5t76 -9q45 0 77.5 11.5t53 31t30 44.5t9.5 52q0 33 -15.5 62.5t-41.5 55t-60.5 47.5t-71.5 41q-41 22 -78 44.5t-65.5 49
t-45.5 58.5t-17 73q0 33 12.5 64t38.5 55t67.5 38t100.5 14q60 0 108.5 -14t86.5 -35l-6 -56q-28 39 -74 66t-115 27q-43 0 -71 -10t-45 -25.5t-24 -36t-7 -41.5q0 -36 15 -64.5t40.5 -51.5t58.5 -42t70 -38q39 -21 77 -44t68 -51t48.5 -63t18.5 -79z" />
    <glyph glyph-name="T" unicode="T" horiz-adv-x="665" 
d="M290 0v711h-67q-49 0 -83 -4t-58 -10.5t-39.5 -14t-26.5 -13.5l3 54h627l3 -54q-11 6 -26.5 13.5t-39 14t-57.5 10.5t-83 4h-68v-711h-85z" />
    <glyph glyph-name="U" unicode="U" horiz-adv-x="739" 
d="M633 498q0 60 -1 116t-9 109h36q-8 -54 -9 -110.5t-3 -123.5v-173q0 -70 -12.5 -129.5t-43 -103t-82 -68.5t-128.5 -25q-73 0 -123 15t-82.5 38.5t-49.5 53t-25 58.5t-9 55t-1 42v471h85v-488q0 -72 23 -116.5t55 -69.5t67.5 -34t60.5 -9q76 0 124.5 24.5t76.5 66.5
t39 98.5t11 120.5v182v0z" />
    <glyph glyph-name="V" unicode="V" horiz-adv-x="700" 
d="M389 90q59 139 101 240t71 173q21 53 35 90t23.5 62t14.5 41t8 27h38q-4 -8 -12.5 -25.5t-18.5 -38.5t-19.5 -42t-15.5 -34q-7 -16 -15 -34t-19.5 -45.5t-28.5 -68t-42.5 -101.5t-61.5 -146.5t-86 -201.5h-14l-317 737h90l269 -633v0z" />
    <glyph glyph-name="W" unicode="W" horiz-adv-x="1024" 
d="M872 446q13 35 27 75t27 78t23.5 71t16.5 53h38q-3 -8 -16 -36t-30 -69t-37 -90.5t-38 -98.5l-166 -443h-13l-181 494q-48 -124 -96 -247t-96 -247h-14q-29 79 -66 174.5t-76 193.5t-77 193.5t-68 175.5h90l240 -623l155 401l-76 222h88l215 -622l130 345v0z" />
    <glyph glyph-name="X" unicode="X" horiz-adv-x="668" 
d="M374 399l269 -399h-103l-222 332q-9 -10 -28 -33.5t-40.5 -51t-43 -54.5t-34.5 -44q-41 -55 -65 -89.5t-42 -59.5h-40q11 13 30.5 36t41 49t42.5 51t36 43q28 34 61 74.5t73 91.5l-254 378h105l206 -312q10 13 28.5 37.5t38.5 52.5t39.5 55.5t32.5 47.5q6 9 17 25
t23.5 34t23.5 34.5t16 25.5h40q-7 -8 -23 -27t-34 -41t-35.5 -44t-27.5 -36z" />
    <glyph glyph-name="Y" unicode="Y" horiz-adv-x="662" 
d="M370 316q44 74 70 118t41 69.5t22 37.5t13 23q15 27 28.5 52t25 46t19.5 36.5t12 24.5h36q-5 -7 -16.5 -24.5t-31 -48.5t-48 -78t-68.5 -113l-97 -160v-299h-85v291l-261 432h100z" />
    <glyph glyph-name="Z" unicode="Z" horiz-adv-x="595" 
d="M242 12q88 0 171.5 8.5t151.5 38.5l-12 -59h-528v15l438 696h-116q-70 0 -115 -2.5t-75 -8t-50 -13.5t-40 -18l3 54h493v-18l-440 -693h119z" />
    <glyph glyph-name="bracketleft" unicode="[" horiz-adv-x="388" 
d="M78 -164v919h225v-12h-84q-21 0 -32 -5.5t-16.5 -13t-6.5 -16t-1 -15.5v-792q0 -8 1 -17t6.5 -17t16.5 -13.5t32 -5.5h84v-12h-225z" />
    <glyph glyph-name="backslash" unicode="\" horiz-adv-x="568" 
d="M-20 790l15 10l593 -883l-15 -10z" />
    <glyph glyph-name="bracketright" unicode="]" horiz-adv-x="388" 
d="M85 -164v12h84q21 0 32 5.5t16.5 13.5t6.5 17t1 17v792q0 7 -1 15.5t-6.5 16t-16.5 13t-32 5.5h-84v12h225v-919h-225z" />
    <glyph glyph-name="asciicircum" unicode="^" 
d="M438 567l-175 136l-173 -136h-29l202 160l203 -160h-28z" />
    <glyph glyph-name="underscore" unicode="_" horiz-adv-x="585" 
d="M-11 -201v16h607v-16h-607z" />
    <glyph glyph-name="grave" unicode="`" horiz-adv-x="328" 
d="M22 698q0 28 26 28q13 0 23.5 -6t32.5 -27l133 -131h-24q-30 16 -57 33q-23 14 -48.5 29.5t-43.5 27.5q-14 9 -28 21t-14 25z" />
    <glyph glyph-name="a" unicode="a" horiz-adv-x="484" 
d="M429 13q12 0 22.5 13t15.5 39h12q-7 -45 -27.5 -60.5t-46.5 -15.5q-76 0 -76 103q-34 -36 -62.5 -56.5t-52 -31t-42.5 -13t-33 -2.5q-60 0 -88.5 29.5t-28.5 72.5q0 46 29.5 78.5t72 54.5t91.5 35t88 19l26 4v51q0 36 -5.5 63.5t-20 46.5t-38.5 28.5t-61 9.5
q-23 0 -44.5 -6t-38.5 -17q-21 -14 -33.5 -34t-12.5 -43q0 -25 4 -37h-13q-2 6 -3 16t-1 21q0 23 13 46.5t41 40.5q18 11 42.5 18t51.5 7q36 0 70 -7.5t60.5 -25.5t42 -49t15.5 -78v-265q0 -10 1 -19.5t4.5 -17.5t9.5 -13t16 -5zM329 270q-45 -8 -86 -20.5t-72 -32
t-49.5 -47t-18.5 -66.5q0 -46 23.5 -64.5t55.5 -18.5q18 0 39 8.5t41 21.5t37.5 28t29.5 29v162z" />
    <glyph glyph-name="b" unicode="b" horiz-adv-x="553" 
d="M518 256q0 -71 -22 -122t-58 -83t-81 -47t-91 -15q-39 0 -88.5 13t-107.5 54v707l69 23v-342q40 30 80 39.5t65 9.5q48 0 90.5 -14.5t74.5 -44t50.5 -74t18.5 -104.5zM437 246q0 42 -10.5 82t-32.5 71.5t-56.5 50.5t-83.5 19q-37 0 -66 -11t-49 -26v-321
q0 -30 11.5 -50.5t30.5 -34t41.5 -19.5t45.5 -6q31 0 61.5 15t54.5 45t38.5 76t14.5 109z" />
    <glyph glyph-name="c" unicode="c" horiz-adv-x="475" 
d="M279 13q47 0 90.5 27.5t69.5 87.5l11 -5q-9 -20 -22.5 -43.5t-35.5 -43.5t-53.5 -33.5t-76.5 -13.5q-47 0 -88.5 16.5t-72 48t-48.5 77.5t-18 105q0 49 14.5 95.5t44 82.5t75 57.5t107.5 21.5q32 0 59.5 -7.5t53.5 -27.5q21 -17 32.5 -40.5t11.5 -49.5q0 -12 -1 -24.5
t-5 -27.5h-13q5 14 5.5 28.5t0.5 22.5q0 20 -10.5 42.5t-29.5 38.5q-23 20 -50.5 26.5t-57.5 6.5t-58 -12t-50 -40t-35 -75.5t-13 -117.5q0 -59 13 -101t35 -69t52 -40t63 -13z" />
    <glyph glyph-name="d" unicode="d" horiz-adv-x="553" 
d="M483 0h-69v52q-24 -23 -63.5 -43t-87.5 -20q-31 0 -70.5 11t-74.5 39t-59 75.5t-24 121.5q0 58 20 105.5t54.5 80.5t80.5 51.5t98 19.5q30 0 60.5 -5t65.5 -17v292l69 23v-786zM414 419q-16 32 -50 47t-71 15q-86 0 -131.5 -60.5t-45.5 -176.5q0 -72 17 -117t43 -70.5
t57 -34.5t59 -9q23 0 42.5 6t35 15t27 18.5t17.5 15.5v351z" />
    <glyph glyph-name="e" unicode="e" horiz-adv-x="475" 
d="M258 493q49 0 85 -18.5t59.5 -48.5t35 -68t12.5 -77h-334q0 -87 15 -140t37.5 -81.5t50.5 -37.5t54 -9q47 0 87.5 22.5t74.5 76.5l10 -7q-29 -50 -74 -83t-117 -33q-34 0 -72.5 12t-71 40.5t-54 76.5t-21.5 120q0 58 15.5 105t44 80.5t70 51.5t93.5 18zM373 293
q0 37 -7.5 71.5t-22.5 60t-38 41t-54 15.5q-59 0 -93 -45.5t-42 -142.5h257z" />
    <glyph glyph-name="f" unicode="f" horiz-adv-x="272" 
d="M332 716q0 -11 -2 -22.5t-4 -19.5h-12q2 8 4 17t2 23q0 9 -3.5 18.5t-10.5 16.5q-16 17 -47 17q-18 0 -37.5 -8t-36.5 -31q-12 -16 -19 -41.5t-10.5 -55t-5 -58.5t-1.5 -51v-40h136v-16h-136v-465h-69v465h-80v16h80q0 57 7.5 103.5t21.5 81.5q26 57 65.5 84.5t84.5 27.5
q32 0 52 -17q11 -9 16 -21t5 -24z" />
    <glyph glyph-name="g" unicode="g" horiz-adv-x="526" 
d="M372 472q5 12 12 26t15 28q29 50 80 50q14 0 26.5 -4.5t20.5 -8.5l-6 -33q-9 8 -22.5 17.5t-30.5 9.5q-14 0 -28 -6.5t-27 -26.5q-8 -11 -15.5 -28.5t-11.5 -28.5q21 -10 38.5 -22t30.5 -28t20.5 -36.5t7.5 -46.5q0 -50 -22.5 -83t-56 -52t-72 -26.5t-70.5 -7.5h-19
q-16 0 -34.5 -1t-32.5 -3q-23 -4 -32 -15.5t-9 -22.5q0 -15 9.5 -25t24.5 -17t32.5 -11t33.5 -7l87 -16q34 -6 68 -16t61 -26t43.5 -38.5t16.5 -54.5q0 -26 -10.5 -51.5t-38.5 -46t-76.5 -33.5t-123.5 -13q-79 0 -128 12.5t-76.5 31.5t-37 41.5t-9.5 42.5t7 39t24 36t44 30
t68 21q-27 9 -46.5 27.5t-19.5 48.5q0 29 21 50.5t67 26.5q-62 20 -96 62t-34 97q0 75 59 117t159 42q28 0 56 -5t53 -16zM401 332q0 44 -11.5 72.5t-31 45.5t-45.5 24t-54 7q-42 0 -68 -15t-40.5 -38t-19.5 -51t-5 -53q0 -13 4 -37.5t18 -49t40.5 -42.5t71.5 -18
q36 0 63 13t44 35t25.5 49.5t8.5 57.5zM454 -111q0 13 -6.5 27.5t-22 28.5t-41.5 25.5t-64 18.5q-37 7 -73.5 13.5t-72.5 12.5q-22 -5 -42.5 -15.5t-36 -24.5t-24.5 -32.5t-9 -39.5q0 -26 10 -48.5t33 -39t62 -26t98 -9.5q97 0 143 30.5t46 78.5z" />
    <glyph glyph-name="h" unicode="h" horiz-adv-x="517" 
d="M378 0v324q0 52 -11 81t-28.5 43.5t-37.5 17.5t-38 3q-29 0 -62.5 -14t-61.5 -31v-424h-69v763l69 23v-348q45 32 84 43.5t69 11.5q55 0 86 -17.5t46.5 -44.5t19 -60t3.5 -63v-308h-69z" />
    <glyph glyph-name="i" unicode="i" horiz-adv-x="209" 
d="M70 0v472l69 23v-495h-69zM154 637q0 -20 -13.5 -35t-36.5 -15t-36.5 15t-13.5 35t13.5 35t36.5 15t36.5 -15t13.5 -35z" />
    <glyph glyph-name="j" unicode="j" horiz-adv-x="212" 
d="M73 469q20 5 37 11.5t32 14.5v-502q0 -111 -46 -166q-26 -31 -55 -45t-60 -14q-20 0 -34.5 6.5t-24.5 16.5q-11 11 -16.5 27t-5.5 30q0 9 1 19t5 22h12q-2 -5 -4 -14.5t-2 -25.5q0 -15 5.5 -28.5t13.5 -21.5q11 -11 24.5 -15t24.5 -4q6 0 15.5 1t20 5.5t21 14.5t18.5 27
q18 39 18 124v517zM156 637q0 -20 -13.5 -35t-36.5 -15t-36.5 15t-13.5 35t13.5 35t36.5 15t36.5 -15t13.5 -35z" />
    <glyph glyph-name="k" unicode="k" horiz-adv-x="485" 
d="M139 786v-611q66 74 132 149t125 157h36l-172 -189q22 -29 51.5 -67.5t61 -79t61 -79t51.5 -66.5h-81l-186 245l-79 -86v-159h-69v763z" />
    <glyph glyph-name="l" unicode="l" horiz-adv-x="209" 
d="M139 786v-786h-69v763z" />
    <glyph glyph-name="m" unicode="m" horiz-adv-x="788" 
d="M280 493q30 0 51.5 -6t36 -15t23.5 -19t14 -18q33 23 75.5 40.5t84.5 17.5q40 0 69 -11.5t46 -29.5q15 -15 22.5 -33t10.5 -36t3.5 -35.5t0.5 -30.5v-317h-69v319q1 31 -2.5 58t-16 47.5t-35.5 32.5t-60 12q-25 0 -59 -13t-64 -33q7 -14 12 -33.5t5 -54.5v-335h-69v335
q0 40 -8 66t-23 41t-35 21t-44 6t-54 -10.5t-56 -27.5v-431h-69v471l69 24v-50q21 16 42.5 25.5t40.5 14.5t34 6.5t24 1.5z" />
    <glyph glyph-name="n" unicode="n" horiz-adv-x="517" 
d="M378 0v324q0 52 -11 81t-28.5 43.5t-37.5 17.5t-38 3q-29 0 -62.5 -14t-61.5 -31v-424h-69v471l69 24v-57q45 32 84 43.5t69 11.5q55 0 86 -17.5t46.5 -44.5t19 -60t3.5 -63v-308h-69z" />
    <glyph glyph-name="o" unicode="o" horiz-adv-x="548" 
d="M513 240q0 -57 -18 -103t-50 -79t-75.5 -51t-95.5 -18q-51 0 -95 17.5t-76 50.5t-50 79.5t-18 103.5q0 63 18 110.5t50 79t76 47.5t95 16q52 0 95.5 -15t75.5 -45.5t50 -78.5t18 -114zM432 240q0 69 -13.5 115.5t-35.5 74.5t-50.5 39.5t-58.5 11.5t-58.5 -11.5
t-50.5 -39.5t-35.5 -74.5t-13.5 -115.5t13.5 -115t35.5 -73.5t50.5 -39t58.5 -11.5t58.5 11.5t50.5 39t35.5 73.5t13.5 115z" />
    <glyph glyph-name="p" unicode="p" horiz-adv-x="545" 
d="M139 495v-65q24 22 62.5 42.5t85.5 20.5q37 0 76.5 -12t72 -41t53.5 -77.5t21 -120.5q0 -52 -15.5 -97.5t-45.5 -80t-74 -54.5t-101 -21q-30 0 -66 7.5t-69 28.5v-192v-9v-46h-69v694zM429 239q0 121 -44 175.5t-122 54.5q-30 0 -64 -16.5t-60 -36.5v-378q19 -11 46 -18
t66 -7q37 0 69.5 14.5t56.5 43t38 70.5t14 98z" />
    <glyph glyph-name="q" unicode="q" horiz-adv-x="545" 
d="M475 -222h-69v246q-18 -10 -54.5 -22.5t-81.5 -12.5q-37 0 -78 10.5t-76 37.5t-58 74t-23 120q0 64 19.5 113t52.5 82t77.5 50t94.5 17q26 0 46.5 -3t38 -9.5t33.5 -17t33 -26.5q8 13 17 27.5t17 28.5h11v-715zM406 370q0 8 -2 26.5t-14 37t-37.5 33t-73.5 14.5
q-43 0 -74 -19.5t-50.5 -52.5t-29 -77t-9.5 -94q0 -63 15.5 -106t41.5 -69.5t59.5 -38t68.5 -11.5q25 0 51 4.5t54 20.5v332z" />
    <glyph glyph-name="r" unicode="r" horiz-adv-x="351" 
d="M139 495v-69q10 11 23.5 23t29.5 21.5t34.5 16t39.5 6.5q16 0 31.5 -2t33.5 -13l-8 -42q-17 19 -37 26t-34 7q-30 0 -57 -14t-56 -43v-412h-69v472z" />
    <glyph glyph-name="s" unicode="s" horiz-adv-x="385" 
d="M365 132q0 -33 -15 -61t-40 -48q-20 -16 -50 -25t-63 -9q-27 0 -55 9.5t-51 26.5q-20 15 -36 36t-27 45l11 6q24 -44 60 -70q40 -29 98 -29q16 0 36 5t33 14q38 25 38 70q0 19 -8 34t-20.5 27t-27.5 21t-30 17l-70 38q-54 30 -78 58.5t-24 70.5q0 35 13.5 59t34.5 38.5
t46.5 21t48.5 6.5q34 0 68.5 -9.5t66.5 -28.5l-6 -48q-8 11 -19.5 24t-27.5 24t-36 18.5t-44 7.5q-21 0 -36 -6.5t-25 -17.5t-15 -25t-5 -28q0 -32 14 -49.5t31 -28.5q15 -9 34.5 -19t36.5 -18q30 -15 55 -30t44 -33t29.5 -41t10.5 -53z" />
    <glyph glyph-name="t" unicode="t" horiz-adv-x="382" 
d="M263 13q12 0 27 4t31 15t31.5 29.5t28.5 48.5l11 -5q-8 -21 -20.5 -41.5t-30.5 -37t-42 -27t-54 -10.5q-69 0 -104.5 38t-35.5 108v334h-100v12h30q36 6 60 28.5t38.5 53.5t21 67t6.5 70h13v-219h27q51 0 84.5 2.5t53.5 7.5l5 -22h-170v-349q0 -31 7.5 -51.5t20 -33
t28.5 -17.5t33 -5z" />
    <glyph glyph-name="u" unicode="u" horiz-adv-x="514" 
d="M375 0v54q-30 -24 -56.5 -37.5t-47.5 -19.5t-36.5 -7t-22.5 -1q-43 0 -70.5 14t-43.5 35.5t-22 48t-6 51.5v334l69 23v-359q0 -43 11.5 -67.5t28 -37t35.5 -15.5t35 -3q30 0 65 17t61 38v404l69 23v-495h-69z" />
    <glyph glyph-name="v" unicode="v" horiz-adv-x="462" 
d="M337 266q10 25 22 58t23.5 64.5t19.5 57t11 35.5h34l-15 -33t-23 -50.5t-27 -61t-27 -64.5q-5 -11 -10.5 -25t-17.5 -43.5t-32.5 -80t-54.5 -134.5h-10q-22 54 -46 108.5t-47 108.5q-10 23 -26 60t-32.5 77t-32.5 77t-26 61h76l168 -401q3 9 7.5 20.5t12.5 31t20.5 51.5
t32.5 83z" />
    <glyph glyph-name="w" unicode="w" horiz-adv-x="713" 
d="M376 481q8 -24 47 -127t107 -278l70 198q11 30 21.5 63t19.5 61.5t15 51t8 31.5h34q-5 -11 -15 -34t-22 -53t-26 -65.5t-27 -71.5l-96 -268h-15l-129 330q-11 -27 -22.5 -57.5t-26.5 -69t-34.5 -88l-45.5 -115.5h-14l-205 492h71l168 -406q24 66 50 132l52 132l-55 142
h70v0z" />
    <glyph glyph-name="x" unicode="x" horiz-adv-x="456" 
d="M342 381q-23 -26 -46 -54.5t-45 -55.5l197 -271h-83l-157 220q-15 -20 -38 -49t-46.5 -60.5t-45 -61t-34.5 -49.5h-36q42 49 80 93q16 19 32.5 38.5t31.5 38t27.5 34t21.5 26.5l-184 251h86l141 -201q13 15 32.5 40.5t40.5 54t40.5 57t33.5 49.5h36q-5 -6 -15.5 -18.5
t-23.5 -27.5t-25.5 -29.5t-20.5 -24.5z" />
    <glyph glyph-name="y" unicode="y" horiz-adv-x="471" 
d="M275 63q26 70 44.5 121t31.5 88t22 63.5t16 49.5t13.5 45.5t14.5 50.5h34q-12 -28 -28 -68.5t-34 -85.5t-35.5 -91.5t-32.5 -87.5q-16 -43 -35.5 -91t-46.5 -114q-15 -37 -31.5 -71.5t-37.5 -60.5q-17 -19 -38 -31t-50 -12q-22 0 -36.5 5.5t-25.5 11.5l6 42
q22 -23 39.5 -29t30.5 -6q20 0 34 6t29 23q18 24 39.5 65.5t39.5 96.5q-24 53 -53 117t-59 131t-58.5 131.5t-52.5 118.5h76l184 -418v0z" />
    <glyph glyph-name="z" unicode="z" horiz-adv-x="417" 
d="M396 468l-304 -456h63q36 0 75 1t74 7q64 11 93 32l-9 -52h-378v15l307 454h-50q-29 0 -60.5 -0.5t-61.5 -3.5t-57 -10t-47 -20l3 46h352v-13z" />
    <glyph glyph-name="braceleft" unicode="{" horiz-adv-x="349" 
d="M45 286q38 3 59 27t30.5 55.5t11.5 63t2 49.5q0 12 -1 28t-2.5 32.5t-2.5 32.5t-1 27q0 12 2.5 35.5t17.5 49.5t47 49t90 32l3 -11q-17 -5 -32 -11t-26.5 -17t-18.5 -29t-7 -46q0 -43 5.5 -83t5.5 -82q0 -80 -36.5 -130.5t-108.5 -76.5q72 -26 108.5 -77t36.5 -131
q0 -43 -5.5 -83t-5.5 -82q0 -28 7 -46t18.5 -29t26.5 -17t32 -11l-3 -11q-58 9 -90 32t-47 49t-17.5 49.5t-2.5 35.5q0 11 1 27t2.5 32.5t2.5 32.5t1 28q0 18 -2 49.5t-11.5 63t-30.5 55.5t-59 27v11z" />
    <glyph glyph-name="bar" unicode="|" horiz-adv-x="216" 
d="M100 -92v812h16v-812h-16z" />
    <glyph glyph-name="braceright" unicode="}" horiz-adv-x="349" 
d="M304 275q-38 -3 -59 -27t-30.5 -55.5t-11.5 -63t-2 -49.5q0 -12 1 -28t2.5 -32.5t2.5 -32.5t1 -27q0 -12 -2.5 -35.5t-17.5 -49.5t-47 -49t-90 -32l-3 11q16 5 31.5 11t27 17t18.5 29t7 46q0 42 -5.5 82t-5.5 83q0 80 36.5 131t108.5 77q-72 26 -108.5 76.5t-36.5 130.5
q0 42 5.5 82t5.5 83q0 28 -7 46t-18.5 29t-27 17t-31.5 11l3 11q58 -9 90 -32t47 -49t17.5 -49.5t2.5 -35.5q0 -11 -1 -27t-2.5 -32.5t-2.5 -32.5t-1 -28q0 -18 2 -49.5t11.5 -63t30.5 -55.5t59 -27v-11z" />
    <glyph glyph-name="asciitilde" unicode="~" 
d="M392 332q57 0 95 55h13q-9 -21 -23.5 -40t-33 -34t-40 -23.5t-45.5 -8.5q-25 0 -50.5 7t-55.5 19q-29 11 -48.5 18t-32.5 10.5t-21.5 5t-14.5 1.5q-30 0 -52.5 -13.5t-41.5 -42.5h-13q9 20 23 39t32 34t39.5 24t45.5 9q26 0 48.5 -6t41.5 -14q58 -20 87.5 -30t46.5 -10z
" />
    <glyph glyph-name="uni00A0" unicode="&#xa0;" horiz-adv-x="224" 
 />
    <glyph glyph-name="exclamdown" unicode="&#xa1;" horiz-adv-x="282" 
d="M141 -230.91q24 0 37.5 7.99902t15.5 18.998q-5 40.9951 -9 73.9902q-4 32.9961 -7.5 68.9922q-3.5 35.9951 -7.5 78.9902t-9 102.987q-2 18.998 -4.5 56.4932t-4.5 75.4912q-3 43.9941 -5 93.9883h-12q-3 -49.9941 -6 -93.9883q-2 -37.9961 -4 -75.4912t-4 -56.4932
q-5 -59.9922 -9 -102.987t-7.5 -78.9902q-3.5 -35.9961 -7.5 -68.9922q-4 -32.9951 -9 -73.9902q2 -10.999 15.5 -18.998t37.5 -7.99902zM191 470.004q0 19.998 -13.5 34.9961t-36.5 14.998q-20 0 -35 -13.998t-15 -35.9961q0 -20.9971 15 -35.4951t35 -14.498
q23 0 36.5 14.998t13.5 34.9951z" />
    <glyph glyph-name="cent" unicode="&#xa2;" 
d="M277 -97v86q-45 2 -85 19t-69 48.5t-46 77t-17 102.5q0 46 13 90.5t39.5 79.5t67.5 58t97 28v97h12v-96h12q32 0 59.5 -7.5t53.5 -27.5q21 -17 32.5 -40.5t11.5 -49.5q0 -12 -1 -25.5t-5 -26.5h-13q5 13 5.5 28t0.5 23q0 20 -10.5 42.5t-29.5 38.5q-23 20 -50.5 26.5
t-57.5 6.5h-8v-467q1 -1 4 -1h11q47 0 90.5 27.5t69.5 87.5l11 -5q-9 -20 -22.5 -43t-35.5 -43.5t-53 -34t-75 -13.5v-86h-12zM141 236q0 -105 39 -158.5t97 -62.5v465q-28 -5 -53 -19.5t-43.5 -43t-29 -73t-10.5 -108.5z" />
    <glyph glyph-name="sterling" unicode="&#xa3;" 
d="M141 388v53t1 65q2 108 51 170.5t152 62.5q50 0 82 -24q18 -14 27.5 -33.5t9.5 -40.5q0 -17 -2 -29.5t-5 -23.5h-12q5 17 6 29.5t1 21.5q0 19 -7.5 36t-22.5 29q-28 23 -76 23q-15 0 -31.5 -4t-32 -13.5t-29.5 -26.5t-23 -43q-14 -38 -14 -81t2 -88q1 -20 2 -39.5
t1 -43.5h158v-12h-158v-41t-2 -45q-3 -48 -16.5 -87t-34 -70.5t-46 -55t-52.5 -40.5q37 14 73.5 25.5t81.5 11.5q36 0 62 -7.5t48.5 -16.5t45 -16.5t51.5 -7.5q10 0 23.5 5.5t25 18.5t19 35.5t7.5 55.5h12q1 -56 -14.5 -87t-36.5 -45q-19 -13 -42.5 -18t-58.5 -5
q-21 0 -44.5 5.5t-49.5 12.5q-32 9 -68 17t-71 8q-26 0 -57 -5.5t-67 -19.5v15q12 5 28.5 13.5t27.5 20.5q33 33 56 102q14 41 16.5 92.5t2.5 128.5h-110v12h110z" />
    <glyph glyph-name="currency" unicode="&#xa4;" horiz-adv-x="542" 
d="M434 149q-32 -29 -73.5 -44.5t-89.5 -15.5t-89 16t-73 45l-93 -92l-12 12l93 92q-31 32 -48.5 73.5t-17.5 89.5t17 89t48 73l-92 92l12 12l92 -92q32 29 73.5 46t89.5 17t89.5 -16.5t73.5 -45.5l92 91l12 -12l-91 -91q31 -32 49 -73.5t18 -89.5t-18 -90t-50 -74l92 -91
l-12 -12zM47 325q0 -46 17.5 -86t48 -70t71.5 -47t87 -17q47 0 88.5 17t72 47t48.5 70t18 86q0 45 -18 85.5t-48.5 70.5t-72 47.5t-88.5 17.5q-46 0 -87 -17.5t-71.5 -47.5t-48 -70.5t-17.5 -85.5z" />
    <glyph glyph-name="yen" unicode="&#xa5;" 
d="M220 210v77h-130v12h125l-191 424h96l180 -405l6.5 13t16 34.5t22 49.5t25.5 57.5t25 58.5t21 52q13 36 28.5 75t23.5 65h36q-4 -7 -14 -26.5t-21.5 -43t-22 -44.5t-14.5 -31q-6 -13 -17 -38.5t-25 -56.5t-28.5 -63.5t-26.5 -59.5t-20 -44l-8 -17h132v-12h-134v-77h134
v-12h-134v-198h-85v198h-130v12h130z" />
    <glyph glyph-name="brokenbar" unicode="&#xa6;" horiz-adv-x="216" 
d="M100 383v337h16v-337h-16zM100 -92v337h16v-337h-16z" />
    <glyph glyph-name="section" unicode="&#xa7;" horiz-adv-x="530" 
d="M492 240q0 -34 -11.5 -62t-29 -51t-38.5 -41t-40 -32q16 -16 24.5 -31t12.5 -27t4 -21.5v-14.5q0 -26 -11.5 -53t-33.5 -49.5t-54 -36.5t-72 -14q-29 0 -54 9t-41 22q-18 15 -27.5 35t-9.5 40q0 12 2 21.5t5 20.5h14q-2 -8 -4.5 -15.5t-2.5 -26.5q0 -20 8.5 -37.5
t24.5 -29.5q15 -12 36.5 -19.5t48.5 -7.5q52 0 84.5 28t32.5 75q0 30 -14 53t-36 40l-182 139q-37 29 -63.5 64t-26.5 88q0 28 9.5 54.5t26 50.5t38 44.5t45.5 37.5q-21 25 -31 45.5t-10 51.5q0 26 11 52.5t33.5 48t55.5 35t78 13.5q23 0 45.5 -7t42.5 -21q17 -12 29.5 -32
t12.5 -42q0 -13 -1.5 -23.5t-3.5 -21.5h-14q5 17 5 43q0 20 -10 37t-26 29q-17 13 -38 19.5t-42 6.5q-41 0 -60.5 -8.5t-33.5 -23.5q-14 -14 -22 -32.5t-8 -41.5q0 -11 2.5 -23t10 -25t21.5 -28t37 -31l160 -120q31 -24 49 -45.5t27.5 -40.5t12 -36t2.5 -32zM440 198
q0 32 -17 67.5t-65 71.5l-193 146q-42 -35 -58.5 -69t-16.5 -69q0 -18 3 -34.5t12.5 -33.5t27 -35.5t46.5 -40.5l185 -139q40 32 58 67.5t18 68.5z" />
    <glyph glyph-name="dieresis" unicode="&#xa8;" horiz-adv-x="349" 
d="M128 637q0 -20 -13.5 -35t-36.5 -15t-36.5 15t-13.5 35t13.5 35t36.5 15t36.5 -15t13.5 -35zM321 637q0 -20 -13.5 -35t-36.5 -15t-36.5 15t-13.5 35t13.5 35t36.5 15t36.5 -15t13.5 -35z" />
    <glyph glyph-name="copyright" unicode="&#xa9;" horiz-adv-x="760" 
d="M185 352q0 34 10 71t34 67.5t64 50.5t100 20q25 0 56 -5.5t63 -22.5l-6 -42q-20 26 -49 42t-72 16q-38 0 -65 -16t-44 -43t-24.5 -62.5t-7.5 -74.5q0 -51 11.5 -88t31.5 -61t46.5 -35t55.5 -11q22 0 41.5 6t36 14.5t29 19t20.5 19.5l2 -42q-16 -9 -34.5 -14.5t-36.5 -9
t-33.5 -4.5t-24.5 -1q-51 0 -89.5 15.5t-64 43t-38 65t-12.5 82.5zM10 349q0 75 29 141t79 115.5t117.5 78t144.5 28.5q76 0 143.5 -28.5t118 -78t79.5 -115.5t29 -141t-29 -141.5t-79.5 -115.5t-118 -77.5t-143.5 -28.5q-77 0 -144.5 28.5t-117.5 77.5t-79 115.5t-29 141.5
zM26 349q0 -72 28 -135t76 -110.5t112.5 -74.5t137.5 -27t137.5 27t112.5 74.5t76 110.5t28 135t-28 135t-76 110t-112.5 74.5t-137.5 27.5t-137.5 -27.5t-112.5 -74.5t-76 -110t-28 -135z" />
    <glyph glyph-name="ordfeminine" unicode="&#xaa;" horiz-adv-x="340" 
d="M153 727q-15 0 -28.5 -3t-23.5 -11q-11 -8 -17.5 -19t-6.5 -24q0 -11 1 -16t3 -10h-10q-2 6 -3 12t-1 14q0 14 7.5 27.5t20.5 22.5q14 11 30.5 15t31.5 4q11 0 29.5 -3t35.5 -11q21 -10 34.5 -29.5t13.5 -52.5v-166q0 -9 3 -20.5t17 -11.5q7 0 13 9t8 23h12
q-6 -47 -50 -47q-26 0 -37 15t-13 40q-17 -20 -34 -31t-32.5 -16t-28.5 -6.5t-22 -1.5q-36 0 -51 18t-15 44q0 27 17.5 47t44.5 33.5t59 22t62 12.5v40q0 14 -3 33t-21 33q-8 7 -21 10.5t-25 3.5zM223 595q-27 -4 -50 -11t-40.5 -18t-27 -27t-9.5 -39q0 -26 13 -37t30 -11
q22 0 46 15.5t38 32.5v95z" />
    <glyph glyph-name="guillemotleft" unicode="&#xab;" horiz-adv-x="522" 
d="M308 238q14 -14 26 -27.5t23 -25.5q36 -41 55 -65t30 -38l-9 -8q-23 23 -48 45t-49 42q-31 26 -57 45.5l-42 31.5l42 31.5t57 45.5q24 20 49 42t48 45l9 -8q-11 -14 -30 -38t-55 -65q-11 -12 -23 -25.5t-26 -27.5zM33 238q43 27 87 58t86 64q42 32 80 65t70 63l10 -8
q-19 -26 -51 -63t-84 -90q-20 -20 -43.5 -42.5t-49.5 -46.5q26 -24 49.5 -46.5t43.5 -42.5q52 -53 84 -90t51 -63l-10 -8q-32 30 -70 63t-80 65q-42 33 -86 64t-87 58z" />
    <glyph glyph-name="logicalnot" unicode="&#xac;" 
d="M503 216v113h-494v16h510v-129h-16z" />
    <glyph glyph-name="uni00AD" unicode="&#xad;" horiz-adv-x="354" 
d="M50 288h254v-16h-254v16z" />
    <glyph glyph-name="registered" unicode="&#xae;" horiz-adv-x="612" 
d="M30 441q0 56 21.5 105.5t58.5 86t87.5 58t107.5 21.5t107.5 -21.5t88 -58t59.5 -86t22 -105.5q0 -57 -22 -106t-59.5 -86t-88 -58t-107.5 -21t-107.5 21t-87.5 58t-58.5 86t-21.5 106zM46 441q0 -53 20 -99.5t55.5 -81t82.5 -54.5t101 -20t101.5 20t83 54.5t56 81
t20.5 99.5t-20.5 99.5t-56 81t-83 54.5t-101.5 20t-101 -20t-82.5 -54.5t-55.5 -81t-20 -99.5zM428 323q7 0 9.5 5t2.5 11h12q0 -10 -7.5 -23t-30.5 -13q-25 0 -39.5 21.5t-28.5 50.5q-7 14 -12.5 23t-10.5 16q-26 28 -67 30v-136h-37v275h8q20 0 40.5 2t40.5 2
q33 0 54 -6.5t32 -17t15 -23t4 -23.5q0 -37 -30 -56t-70 -19q30 -9 46.5 -25t28.5 -36q3 -5 7.5 -14.5t9.5 -19t11 -17t12 -7.5zM371 516q0 59 -68 59q-10 0 -23.5 -1.5t-23.5 -3.5v-114q14 -2 24.5 -2.5t21.5 -0.5q32 0 50.5 17t18.5 46z" />
    <glyph glyph-name="macron" unicode="&#xaf;" horiz-adv-x="417" 
d="M63 575v16h291v-16h-291z" />
    <glyph glyph-name="degree" unicode="&#xb0;" horiz-adv-x="315" 
d="M48 628q0 22 8.5 42t23 34.5t34.5 23t43 8.5t43 -8.5t35 -23t23.5 -34.5t8.5 -42q0 -23 -8.5 -42.5t-23.5 -33.5t-35 -22.5t-43 -8.5t-43 8.5t-34.5 22.5t-23 33.5t-8.5 42.5zM64 628q0 -19 7.5 -35.5t20 -29t29.5 -19.5t36 -7t36 7t30 19.5t20.5 29t7.5 35.5t-7.5 36
t-20.5 29.5t-30 19.5t-36 7t-36 -7t-29.5 -19.5t-20 -29.5t-7.5 -36z" />
    <glyph glyph-name="plusminus" unicode="&#xb1;" 
d="M272 333v-221h-16v221h-247v16h247v213h16v-213h247v-16h-247zM9 42v16h510v-16h-510z" />
    <glyph glyph-name="twosuperior" unicode="&#xb2;" horiz-adv-x="340" 
d="M288 292h-264v10l110 118q21 23 40.5 46t34 46t23 47.5t8.5 51.5q0 33 -8 55t-20.5 35.5t-28.5 19.5t-32 6q-15 0 -30.5 -4.5t-26.5 -12.5q-13 -9 -22 -23.5t-9 -27.5q0 -12 1 -18.5t3 -12.5h-10q-2 8 -3 14t-1 17q0 17 11 33.5t25 25.5q30 21 67 21q68 0 102.5 -32.5
t34.5 -92.5q0 -21 -8.5 -41.5t-22 -40t-31 -38.5t-34.5 -35l-129 -125h138q42 0 58.5 7.5t18.5 21.5q0 2 0.5 7t0.5 8h12z" />
    <glyph glyph-name="threesuperior" unicode="&#xb3;" horiz-adv-x="340" 
d="M307 424q0 -58 -39.5 -96.5t-119.5 -38.5q-20 0 -42 6.5t-35 15.5q-22 16 -29.5 36t-7.5 31t1 19t3 14h10q-2 -6 -3 -12t-1 -21q0 -18 10.5 -33t22.5 -25q13 -10 31.5 -15t34.5 -5q34 0 54.5 13t30.5 32.5t13 42.5t3 43q0 38 -10.5 59t-26.5 31t-33.5 12t-32.5 2
q-11 0 -20.5 -1t-22.5 -4v23q18 -5 28.5 -5.5t21.5 -0.5q36 0 62.5 24.5t26.5 66.5t-20.5 65.5t-62.5 23.5q-16 0 -32.5 -3.5t-29.5 -11.5q-15 -10 -25 -25t-10 -29q0 -5 0.5 -10t2.5 -14h-10q-2 7 -2.5 11t-0.5 13q0 16 11 33.5t31 29.5q12 7 30 12.5t35 5.5q42 0 69.5 -9
t43 -23.5t21.5 -32t6 -34.5q0 -31 -25 -59t-70 -39q46 -8 77 -37.5t31 -80.5z" />
    <glyph glyph-name="acute" unicode="&#xb4;" horiz-adv-x="328" 
d="M306 698q0 -13 -14 -25t-28 -21q-18 -12 -44 -27.5t-49 -29.5q-27 -17 -56 -33h-24l133 131q22 21 32.5 27t23.5 6q26 0 26 -28z" />
    <glyph glyph-name="mu" unicode="&#xb5;" horiz-adv-x="514" 
d="M375 0v54q-30 -24 -56.5 -37.5t-47.5 -19.5t-36.5 -7t-22.5 -1q-47 0 -80 21.5t-50 65.5q3 -47 10 -87.5t13 -65.5q6 -26 9 -42t3 -28q0 -18 -4.5 -29t-11 -16.5t-13.5 -7.5t-12 -2t-11.5 2t-13 7.5t-11 16.5t-4.5 29q0 12 3 28t9 42q8 32 15 82t7 123v344l69 23v-359
q0 -43 11.5 -67.5t28 -37t35.5 -15.5t35 -3q30 0 65 17t61 38v404l69 23v-495h-69z" />
    <glyph glyph-name="mu" unicode="&#x3bc;" horiz-adv-x="514" 
d="M375 0v54q-30 -24 -56.5 -37.5t-47.5 -19.5t-36.5 -7t-22.5 -1q-47 0 -80 21.5t-50 65.5q3 -47 10 -87.5t13 -65.5q6 -26 9 -42t3 -28q0 -18 -4.5 -29t-11 -16.5t-13.5 -7.5t-12 -2t-11.5 2t-13 7.5t-11 16.5t-4.5 29q0 12 3 28t9 42q8 32 15 82t7 123v344l69 23v-359
q0 -43 11.5 -67.5t28 -37t35.5 -15.5t35 -3q30 0 65 17t61 38v404l69 23v-495h-69z" />
    <glyph glyph-name="paragraph" unicode="&#xb6;" horiz-adv-x="457" 
d="M332 -92v812h16v-812h-16zM198 -92v562h-6q-64 0 -104.5 31.5t-40.5 94.5q0 61 40.5 92.5t104.5 31.5h22v-812h-16z" />
    <glyph glyph-name="periodcentered" unicode="&#xb7;" horiz-adv-x="222" 
d="M161 284q0 -20 -13.5 -35t-36.5 -15q-20 0 -35 14t-15 36q0 21 15 35.5t35 14.5q23 0 36.5 -15t13.5 -35z" />
    <glyph glyph-name="cedilla" unicode="&#xb8;" horiz-adv-x="309" 
d="M135 -201q-23 0 -45 4.5t-42 14.5l5 11q16 -8 37.5 -13t38.5 -5q21 0 35 5.5t22.5 14.5t12 20.5t3.5 23.5q0 50 -54 50q-13 0 -32 -6l-8 7l38 90h14l-34 -79q14 5 27.5 6t24.5 1q15 0 29.5 -3.5t26 -11t18.5 -19t7 -28.5q0 -20 -10 -35t-27 -26t-39.5 -16.5t-47.5 -5.5z
" />
    <glyph glyph-name="onesuperior" unicode="&#xb9;" horiz-adv-x="340" 
d="M144 292v354q-14 -16 -36.5 -34.5t-33.5 -25.5h-14q48 46 76 79t45 68h15v-441h-52z" />
    <glyph glyph-name="ordmasculine" unicode="&#xba;" horiz-adv-x="350" 
d="M339 584q0 -43 -16.5 -72.5t-41 -47.5t-53 -26t-53.5 -8q-43 0 -74 14.5t-51 37t-29.5 49.5t-9.5 53t9.5 53.5t29.5 50t51 37t74 14.5q25 0 53.5 -8t53 -26.5t41 -48t16.5 -72.5zM276 584q0 10 -2 33.5t-12 48t-30.5 43t-56.5 18.5t-56.5 -18t-30 -42t-12 -47.5
t-2.5 -35.5t2.5 -36t12 -47.5t30 -41t56.5 -17.5t56.5 18.5t30.5 42.5t12 47.5t2 33.5z" />
    <glyph glyph-name="guillemotright" unicode="&#xbb;" horiz-adv-x="522" 
d="M214 238q-14 14 -26 27.5t-23 25.5q-36 41 -55 65t-30 38l9 8q23 -23 48 -45t49 -42q31 -26 57 -45.5l42 -31.5l-42 -31.5t-57 -45.5q-24 -20 -49 -42t-48 -45l-9 8q11 14 30 38t55 65q11 12 23 25.5t26 27.5zM489 238q-43 -27 -87 -58t-86 -64q-42 -32 -80 -65t-70 -63
l-10 8q19 26 51 63t84 90q20 20 43.5 42.5t49.5 46.5q-26 24 -49.5 46.5t-43.5 42.5q-52 53 -84 90t-51 63l10 8q32 -30 70 -63t80 -65q42 -33 86 -64t87 -58z" />
    <glyph glyph-name="onequarter" unicode="&#xbc;" horiz-adv-x="822" 
d="M655 106v171l52 37v-208h50v-12h-50v-94h-52v94h-182v13q3 1 15 20t29.5 48.5t38.5 66.5t42 75t40.5 73.5t33.5 62.5l49 -28l-233 -319h167zM162 -10l-15 10l500 744l15 -11zM140 292v354q-14 -16 -36.5 -34.5t-33.5 -25.5h-14q48 46 76 79t45 68h15v-441h-52z" />
    <glyph glyph-name="onehalf" unicode="&#xbd;" horiz-adv-x="822" 
d="M148 -16l-15 10l500 744l15 -11zM120 292v354q-14 -16 -36.5 -34.5t-33.5 -25.5h-14q48 46 76 79t45 68h15v-441h-52zM765 0h-264v10l110 118q21 23 40.5 46t34 46t23 47.5t8.5 51.5q0 33 -8 55t-20.5 35.5t-28.5 19.5t-32 6q-15 0 -30.5 -4.5t-26.5 -12.5
q-13 -9 -22 -23.5t-9 -27.5q0 -12 1 -18.5t3 -12.5h-10q-2 8 -3 14t-1 17q0 17 11 33.5t25 25.5q30 21 67 21q68 0 102.5 -32.5t34.5 -92.5q0 -21 -8.5 -41.5t-22 -40t-31 -38.5t-34.5 -35l-129 -125h138q42 0 58.5 7.5t18.5 21.5q0 2 0.5 7t0.5 8h12z" />
    <glyph glyph-name="threequarters" unicode="&#xbe;" horiz-adv-x="822" 
d="M175 -13l-15 10l500 744l15 -11zM318 424q0 -58 -39.5 -96.5t-119.5 -38.5q-20 0 -42 6.5t-35 15.5q-22 16 -29.5 36t-7.5 31t1 19t3 14h10q-2 -6 -3 -12t-1 -21q0 -18 10.5 -33t22.5 -25q13 -10 31.5 -15t34.5 -5q34 0 54.5 13t30.5 32.5t13 42.5t3 43q0 38 -10.5 59
t-26.5 31t-33.5 12t-32.5 2q-11 0 -20.5 -1t-22.5 -4v23q18 -5 28.5 -5.5t21.5 -0.5q36 0 62.5 24.5t26.5 66.5t-20.5 65.5t-62.5 23.5q-16 0 -32.5 -3.5t-29.5 -11.5q-15 -10 -25 -25t-10 -29q0 -5 0.5 -10t2.5 -14h-10q-2 7 -2.5 11t-0.5 13q0 16 11 33.5t31 29.5
q12 7 30 12.5t35 5.5q42 0 69.5 -9t43 -23.5t21.5 -32t6 -34.5q0 -31 -25 -59t-70 -39q46 -8 77 -37.5t31 -80.5zM652 106v171l52 37v-208h50v-12h-50v-94h-52v94h-182v13q3 1 15 20t29.5 48.5t38.5 66.5t42 75t40.5 73.5t33.5 62.5l49 -28l-233 -319h167z" />
    <glyph glyph-name="questiondown" unicode="&#xbf;" horiz-adv-x="474" 
d="M40.0527 1.06152q0 39.9951 14.498 73.9912q14.499 33.9961 39.9951 64.9922q25.4971 30.9961 59.9932 60.4922t74.4912 60.4922q19.9971 14.999 34.9951 29.9971t14.998 39.9951v34.9951h11.999v-124.984q0 -19.9971 -9.99902 -32.4961
q-9.99902 -12.498 -35.9951 -32.4961q-21.998 -15.998 -46.9951 -36.9951q-24.9961 -20.998 -46.4941 -47.9941q-21.4971 -26.9971 -35.4951 -60.4932q-13.999 -33.4951 -13.999 -74.4902q0 -32.9961 9.99902 -64.4922t30.4961 -55.9932q20.498 -24.4971 52.4941 -39.4951
q31.9961 -14.999 74.9912 -14.999q28.9961 0 57.4922 10.499q28.4971 10.499 47.4941 28.4971q17.998 16.998 28.9971 38.9951q10.998 21.9971 10.998 45.9941q0 18.998 -1.99902 26.4971q-2 7.49902 -4 15.498h13.998q2 -7.99902 4 -17.998t2 -24.9971
q0 -19.9971 -10.999 -45.4941t-33.9961 -46.4941q-22.9971 -19.998 -52.9932 -31.4961q-29.9961 -11.499 -60.9922 -11.499q-49.9941 0 -91.9893 16.498t-72.9912 46.9941t-47.9941 73.4912t-16.998 94.9883zM235.029 470.004q0 19.998 13.498 34.9961t36.4961 14.998
q19.9971 0 34.9951 -13.998t14.998 -35.9961q0 -20.9971 -14.998 -35.4951t-34.9951 -14.498q-22.998 0 -36.4961 14.998t-13.498 34.9951z" />
    <glyph glyph-name="Agrave" unicode="&#xc0;" horiz-adv-x="666" 
d="M626 0h-89q-4 12 -14.5 41.5t-24.5 70t-31 87.5t-33 94h-256l-35 -90q-7 -16 -16 -40.5t-18 -52.5t-17 -57t-14 -53h-38q10 19 25 53t33.5 78.5t39 96.5t41.5 106l87 235q14 36 28.5 75t30.5 79h24zM305 635l-123 -330h247zM181 905q0 28 26 28q13 0 23.5 -6t32.5 -27
l133 -131h-24q-30 16 -57 33q-23 14 -48.5 29.5t-43.5 27.5q-14 9 -28 21t-14 25z" />
    <glyph glyph-name="Aacute" unicode="&#xc1;" horiz-adv-x="666" 
d="M626 0h-89q-4 12 -14.5 41.5t-24.5 70t-31 87.5t-33 94h-256l-35 -90q-7 -16 -16 -40.5t-18 -52.5t-17 -57t-14 -53h-38q10 19 25 53t33.5 78.5t39 96.5t41.5 106l87 235q14 36 28.5 75t30.5 79h24zM305 635l-123 -330h247zM506 905q0 -13 -14 -25t-28 -21
q-18 -12 -44 -27.5t-49 -29.5q-27 -17 -56 -33h-24l133 131q22 21 32.5 27t23.5 6q26 0 26 -28z" />
    <glyph glyph-name="Acircumflex" unicode="&#xc2;" horiz-adv-x="666" 
d="M626 0h-89q-4 12 -14.5 41.5t-24.5 70t-31 87.5t-33 94h-256l-35 -90q-7 -16 -16 -40.5t-18 -52.5t-17 -57t-14 -53h-38q10 19 25 53t33.5 78.5t39 96.5t41.5 106l87 235q14 36 28.5 75t30.5 79h24zM305 635l-123 -330h247zM403 799q-9 6 -19.5 14.5t-20.5 17t-18 15
t-11 9.5l-69 -56q-9 -8 -20 -16t-20 -15q-11 -8 -21 -15h-15q11 10 25 25.5t36 40.5q11 14 23.5 29t22.5 29q11 16 23 32h30l22 -32q10 -14 22.5 -29t24.5 -29q21 -25 35.5 -40.5t24.5 -25.5h-14q-10 8 -21 16q-9 7 -20 14.5t-20 15.5z" />
    <glyph glyph-name="Atilde" unicode="&#xc3;" horiz-adv-x="666" 
d="M626 0h-89q-4 12 -14.5 41.5t-24.5 70t-31 87.5t-33 94h-256l-35 -90q-7 -16 -16 -40.5t-18 -52.5t-17 -57t-14 -53h-38q10 19 25 53t33.5 78.5t39 96.5t41.5 106l87 235q14 36 28.5 75t30.5 79h24zM305 635l-123 -330h247zM360 840q17 -10 38 -20t38 -10q22 0 45.5 10
t47.5 40l10 -8q-20 -35 -49.5 -60.5t-70.5 -25.5q-23 0 -43 9.5t-42 23.5q-17 11 -37.5 20.5t-38.5 9.5q-23 0 -46 -9.5t-47 -40.5l-10 8q21 35 49.5 60.5t70.5 25.5q20 0 44 -11.5t41 -21.5z" />
    <glyph glyph-name="Adieresis" unicode="&#xc4;" horiz-adv-x="666" 
d="M626 0h-89q-4 12 -14.5 41.5t-24.5 70t-31 87.5t-33 94h-256l-35 -90q-7 -16 -16 -40.5t-18 -52.5t-17 -57t-14 -53h-38q10 19 25 53t33.5 78.5t39 96.5t41.5 106l87 235q14 36 28.5 75t30.5 79h24zM305 635l-123 -330h247zM287 812q0 -20 -13.5 -35t-36.5 -15t-36.5 15
t-13.5 35t13.5 35t36.5 15t36.5 -15t13.5 -35zM480 812q0 -20 -13.5 -35t-36.5 -15t-36.5 15t-13.5 35t13.5 35t36.5 15t36.5 -15t13.5 -35z" />
    <glyph glyph-name="Aring" unicode="&#xc5;" horiz-adv-x="667" 
d="M250 795q0 36 25 61.5t61 25.5t61.5 -25.5t25.5 -61.5q0 -31 -20 -54.5t-50 -29.5l274 -711h-89q-4 12 -14.5 41.5t-25 70t-31.5 87.5t-33 94h-256l-35 -90q-7 -16 -16 -40.5t-18 -52.5t-17 -57t-14 -53h-38q10 19 25 53t33.5 78.5t39 96.5t41.5 106l87 235
q12 33 25.5 68.5t27.5 72.5q-30 6 -49.5 29.5t-19.5 55.5zM305 635l-123 -330h247zM266 795q0 -29 20.5 -49.5t49.5 -20.5q30 0 50.5 20.5t20.5 49.5t-20.5 50t-50.5 21q-29 0 -49.5 -21t-20.5 -50z" />
    <glyph glyph-name="AE" unicode="&#xc6;" horiz-adv-x="951" 
d="M583 12q36 0 79.5 1.5t87.5 6t86 14t77 25.5l-11 -59h-468v291h-223l-47 -81q-8 -14 -25.5 -44t-36 -63t-34 -62t-20.5 -41h-38q7 9 21.5 31.5t34 51.5t41 63t41.5 67q7 12 25 41t48 80t74 126.5t104 180.5q15 26 22.5 42.5t17.5 39.5h449l3 -54q-51 30 -116 36t-145 6
h-111v-326h67q23 0 52.5 1.5t58 3.5t52 5t34.5 5v-40q-11 2 -34.5 4t-52 4t-58 3.5t-52.5 1.5h-67v-361h64zM434 675l-151 -262l-65 -110h216v372z" />
    <glyph glyph-name="Ccedilla" unicode="&#xc7;" horiz-adv-x="734" 
d="M668 49q-57 -33 -116 -47.5t-125 -15.5l-24 -58q14 5 26 7.5t29 2.5q16 0 32 -4t29.5 -13t22 -22.5t8.5 -32.5q0 -45 -39.5 -70.5t-97.5 -25.5q-49 0 -91 22l5 11q17 -10 39.5 -15.5t39.5 -5.5q21 0 35.5 7t24.5 18t14.5 24.5t4.5 25.5q0 28 -15.5 43t-43.5 15
q-7 0 -14.5 -1t-18.5 -5l-9 7l28 70q-89 2 -155.5 30.5t-111 77.5t-67 115.5t-22.5 145.5q0 63 18 130.5t61.5 124t115.5 93t179 36.5q48 0 101.5 -10.5t120.5 -42.5l-6 -56q-38 45 -93 71t-138 26q-70 0 -120 -30t-82.5 -80.5t-48 -117t-15.5 -138.5q0 -94 23 -162.5
t61.5 -113t88 -66t103.5 -21.5q79 0 137 27t100 78z" />
    <glyph glyph-name="Egrave" unicode="&#xc8;" horiz-adv-x="607" 
d="M239 12q36 0 79.5 1.5t87.5 6t86 14t77 25.5l-11 -59h-468v723h454l3 -54q-51 30 -116 36t-145 6h-111v-326h67q23 0 52.5 1.5t58 3.5t52 5t34.5 5v-40q-11 2 -34.5 4t-52 4t-58 3.5t-52.5 1.5h-67v-361h64zM194 905q0 28 26 28q13 0 23.5 -6t32.5 -27l133 -131h-24
q-30 16 -57 33q-23 14 -48.5 29.5t-43.5 27.5q-14 9 -28 21t-14 25z" />
    <glyph glyph-name="Eacute" unicode="&#xc9;" horiz-adv-x="607" 
d="M239 12q36 0 79.5 1.5t87.5 6t86 14t77 25.5l-11 -59h-468v723h454l3 -54q-51 30 -116 36t-145 6h-111v-326h67q23 0 52.5 1.5t58 3.5t52 5t34.5 5v-40q-11 2 -34.5 4t-52 4t-58 3.5t-52.5 1.5h-67v-361h64zM472 905q0 -13 -14 -25t-28 -21q-18 -12 -44 -27.5t-49 -29.5
q-27 -17 -56 -33h-24l133 131q22 21 32.5 27t23.5 6q26 0 26 -28z" />
    <glyph glyph-name="Ecircumflex" unicode="&#xca;" horiz-adv-x="607" 
d="M239 12q36 0 79.5 1.5t87.5 6t86 14t77 25.5l-11 -59h-468v723h454l3 -54q-51 30 -116 36t-145 6h-111v-326h67q23 0 52.5 1.5t58 3.5t52 5t34.5 5v-40q-11 2 -34.5 4t-52 4t-58 3.5t-52.5 1.5h-67v-361h64zM394 799q-9 6 -19.5 14.5t-20.5 17t-18 15t-11 9.5l-69 -56
q-9 -8 -20 -16t-20 -15q-11 -8 -21 -15h-15q11 10 25 25.5t36 40.5q11 14 23.5 29t22.5 29q11 16 23 32h30l22 -32q10 -14 22.5 -29t24.5 -29q21 -25 35.5 -40.5t24.5 -25.5h-14q-10 8 -21 16q-9 7 -20 14.5t-20 15.5z" />
    <glyph glyph-name="Edieresis" unicode="&#xcb;" horiz-adv-x="607" 
d="M239 12q36 0 79.5 1.5t87.5 6t86 14t77 25.5l-11 -59h-468v723h454l3 -54q-51 30 -116 36t-145 6h-111v-326h67q23 0 52.5 1.5t58 3.5t52 5t34.5 5v-40q-11 2 -34.5 4t-52 4t-58 3.5t-52.5 1.5h-67v-361h64zM275 812q0 -20 -13.5 -35t-36.5 -15t-36.5 15t-13.5 35
t13.5 35t36.5 15t36.5 -15t13.5 -35zM468 812q0 -20 -13.5 -35t-36.5 -15t-36.5 15t-13.5 35t13.5 35t36.5 15t36.5 -15t13.5 -35z" />
    <glyph glyph-name="Igrave" unicode="&#xcc;" horiz-adv-x="265" 
d="M175 0h-85v723h85v-723zM4 905q0 28 26 28q13 0 23.5 -6t32.5 -27l133 -131h-24q-30 16 -57 33q-23 14 -48.5 29.5t-43.5 27.5q-14 9 -28 21t-14 25z" />
    <glyph glyph-name="Iacute" unicode="&#xcd;" horiz-adv-x="265" 
d="M175 0h-85v723h85v-723zM287 905q0 -13 -14 -25t-28 -21q-18 -12 -44 -27.5t-49 -29.5q-27 -17 -56 -33h-24l133 131q22 21 32.5 27t23.5 6q26 0 26 -28z" />
    <glyph glyph-name="Icircumflex" unicode="&#xce;" horiz-adv-x="265" 
d="M175 0h-85v723h85v-723zM203 799q-9 6 -19.5 14.5t-20.5 17t-18 15t-11 9.5l-69 -56q-9 -8 -20 -16t-20 -15q-11 -8 -21 -15h-15q11 10 25 25.5t36 40.5q11 14 23.5 29t22.5 29q11 16 23 32h30l22 -32q10 -14 22.5 -29t24.5 -29q21 -25 35.5 -40.5t24.5 -25.5h-14
q-10 8 -21 16q-9 7 -20 14.5t-20 15.5z" />
    <glyph glyph-name="Idieresis" unicode="&#xcf;" horiz-adv-x="265" 
d="M175 0h-85v723h85v-723zM87 812q0 -20 -13.5 -35t-36.5 -15t-36.5 15t-13.5 35t13.5 35t36.5 15t36.5 -15t13.5 -35zM280 812q0 -20 -13.5 -35t-36.5 -15t-36.5 15t-13.5 35t13.5 35t36.5 15t36.5 -15t13.5 -35z" />
    <glyph glyph-name="Eth" unicode="&#xd0;" horiz-adv-x="805" 
d="M104 371h-119v16h119v336h55q21 0 46.5 1t52.5 1.5t53 1.5t47 1q90 0 153.5 -19t107 -49.5t69.5 -68.5t39.5 -76t17.5 -71.5t4 -55.5q0 -32 -5.5 -74t-20.5 -85.5t-42 -85.5t-70.5 -75t-105.5 -53t-147 -20q-20 0 -46.5 1t-52.5 2q-23 1 -44.5 1.5t-37.5 0.5h-73v371z
M656 379q0 31 -5 68t-18 74.5t-35 72.5t-55 62t-78.5 43.5t-106.5 16.5q-38 0 -80 -3t-89 -11v-315h172v-16h-172v-349q14 -3 34.5 -5.5t43 -5t45.5 -3.5t43 -1q79 0 136 30t94 81t54 118.5t17 142.5z" />
    <glyph glyph-name="Ntilde" unicode="&#xd1;" horiz-adv-x="729" 
d="M611 499q0 21 -0.5 50.5t-2 61t-3.5 61.5t-6 51h40q-4 -19 -7 -47.5t-4.5 -63t-2 -71.5t-0.5 -72v-483h-13l-488 606v-347q0 -75 2.5 -137t10.5 -108h-40q6 23 8.5 57.5t3.5 70.5t1 67.5v49.5v364q-21 27 -45.5 57t-44.5 57h106l485 -607v383v0zM396 840q17 -10 38 -20
t38 -10q22 0 45.5 10t47.5 40l10 -8q-20 -35 -49.5 -60.5t-70.5 -25.5q-23 0 -43 9.5t-42 23.5q-17 11 -37.5 20.5t-38.5 9.5q-23 0 -46 -9.5t-47 -40.5l-10 8q21 35 49.5 60.5t70.5 25.5q20 0 44 -11.5t41 -21.5z" />
    <glyph glyph-name="Ograve" unicode="&#xd2;" horiz-adv-x="862" 
d="M806 363q0 -37 -8 -79.5t-25.5 -84.5t-46 -80.5t-70.5 -68t-98 -47t-128 -17.5q-71 0 -127 17.5t-97.5 47t-70 68t-46 80.5t-25.5 84.5t-8 79.5q0 60 20 126t64 121.5t115.5 92t174.5 36.5q105 0 176.5 -34.5t116 -89t64 -121.5t19.5 -131zM713 363q0 78 -18.5 144.5
t-54 115.5t-88.5 76.5t-122 27.5q-68 0 -120.5 -26t-88 -73.5t-54 -115t-18.5 -149.5q0 -70 17.5 -135.5t53 -116.5t88 -82t122.5 -31q72 0 125 31t88 82t52.5 116.5t17.5 135.5zM317 905q0 28 26 28q13 0 23.5 -6t32.5 -27l133 -131h-24q-30 16 -57 33q-23 14 -48.5 29.5
t-43.5 27.5q-14 9 -28 21t-14 25z" />
    <glyph glyph-name="Oacute" unicode="&#xd3;" horiz-adv-x="862" 
d="M806 363q0 -37 -8 -79.5t-25.5 -84.5t-46 -80.5t-70.5 -68t-98 -47t-128 -17.5q-71 0 -127 17.5t-97.5 47t-70 68t-46 80.5t-25.5 84.5t-8 79.5q0 60 20 126t64 121.5t115.5 92t174.5 36.5q105 0 176.5 -34.5t116 -89t64 -121.5t19.5 -131zM713 363q0 78 -18.5 144.5
t-54 115.5t-88.5 76.5t-122 27.5q-68 0 -120.5 -26t-88 -73.5t-54 -115t-18.5 -149.5q0 -70 17.5 -135.5t53 -116.5t88 -82t122.5 -31q72 0 125 31t88 82t52.5 116.5t17.5 135.5zM586 905q0 -13 -14 -25t-28 -21q-18 -12 -44 -27.5t-49 -29.5q-27 -17 -56 -33h-24l133 131
q22 21 32.5 27t23.5 6q26 0 26 -28z" />
    <glyph glyph-name="Ocircumflex" unicode="&#xd4;" horiz-adv-x="862" 
d="M806 363q0 -37 -8 -79.5t-25.5 -84.5t-46 -80.5t-70.5 -68t-98 -47t-128 -17.5q-71 0 -127 17.5t-97.5 47t-70 68t-46 80.5t-25.5 84.5t-8 79.5q0 60 20 126t64 121.5t115.5 92t174.5 36.5q105 0 176.5 -34.5t116 -89t64 -121.5t19.5 -131zM713 363q0 78 -18.5 144.5
t-54 115.5t-88.5 76.5t-122 27.5q-68 0 -120.5 -26t-88 -73.5t-54 -115t-18.5 -149.5q0 -70 17.5 -135.5t53 -116.5t88 -82t122.5 -31q72 0 125 31t88 82t52.5 116.5t17.5 135.5zM501 799q-9 6 -19.5 14.5t-20.5 17t-18 15t-11 9.5l-69 -56q-9 -8 -20 -16t-20 -15
q-11 -8 -21 -15h-15q11 10 25 25.5t36 40.5q11 14 23.5 29t22.5 29q11 16 23 32h30l22 -32q10 -14 22.5 -29t24.5 -29q21 -25 35.5 -40.5t24.5 -25.5h-14q-10 8 -21 16q-9 7 -20 14.5t-20 15.5z" />
    <glyph glyph-name="Otilde" unicode="&#xd5;" horiz-adv-x="862" 
d="M806 363q0 -37 -8 -79.5t-25.5 -84.5t-46 -80.5t-70.5 -68t-98 -47t-128 -17.5q-71 0 -127 17.5t-97.5 47t-70 68t-46 80.5t-25.5 84.5t-8 79.5q0 60 20 126t64 121.5t115.5 92t174.5 36.5q105 0 176.5 -34.5t116 -89t64 -121.5t19.5 -131zM713 363q0 78 -18.5 144.5
t-54 115.5t-88.5 76.5t-122 27.5q-68 0 -120.5 -26t-88 -73.5t-54 -115t-18.5 -149.5q0 -70 17.5 -135.5t53 -116.5t88 -82t122.5 -31q72 0 125 31t88 82t52.5 116.5t17.5 135.5zM452 840q17 -10 38 -20t38 -10q22 0 45.5 10t47.5 40l10 -8q-20 -35 -49.5 -60.5t-70.5 -25.5
q-23 0 -43 9.5t-42 23.5q-17 11 -37.5 20.5t-38.5 9.5q-23 0 -46 -9.5t-47 -40.5l-10 8q21 35 49.5 60.5t70.5 25.5q20 0 44 -11.5t41 -21.5z" />
    <glyph glyph-name="Odieresis" unicode="&#xd6;" horiz-adv-x="862" 
d="M806 363q0 -37 -8 -79.5t-25.5 -84.5t-46 -80.5t-70.5 -68t-98 -47t-128 -17.5q-71 0 -127 17.5t-97.5 47t-70 68t-46 80.5t-25.5 84.5t-8 79.5q0 60 20 126t64 121.5t115.5 92t174.5 36.5q105 0 176.5 -34.5t116 -89t64 -121.5t19.5 -131zM713 363q0 78 -18.5 144.5
t-54 115.5t-88.5 76.5t-122 27.5q-68 0 -120.5 -26t-88 -73.5t-54 -115t-18.5 -149.5q0 -70 17.5 -135.5t53 -116.5t88 -82t122.5 -31q72 0 125 31t88 82t52.5 116.5t17.5 135.5zM385 812q0 -20 -13.5 -35t-36.5 -15t-36.5 15t-13.5 35t13.5 35t36.5 15t36.5 -15t13.5 -35z
M578 812q0 -20 -13.5 -35t-36.5 -15t-36.5 15t-13.5 35t13.5 35t36.5 15t36.5 -15t13.5 -35z" />
    <glyph glyph-name="multiply" unicode="&#xd7;" 
d="M265 302l-189 -184l-12 12l189 185l-190 185l13 13l189 -186l189 186l12 -13l-189 -185l189 -186l-12 -11z" />
    <glyph glyph-name="Oslash" unicode="&#xd8;" horiz-adv-x="862" 
d="M806 363q0 -37 -8 -79.5t-25.5 -84.5t-46 -80.5t-70.5 -68t-98 -47t-128 -17.5q-83 0 -143.5 23t-104.5 60l-74 -85l-13 13l74 84q-31 30 -52.5 65.5t-35 72.5t-19.5 74t-6 70q0 60 20 126t64 121.5t115.5 92t174.5 36.5q81 0 141 -21t104 -56l67 77l13 -12l-67 -76
q31 -29 53.5 -63.5t37 -72t21 -76.5t6.5 -76zM713 363q0 72 -15.5 134t-46.5 110l-432 -496q35 -51 87.5 -82t123.5 -31q72 0 125 31t88 82t52.5 116.5t17.5 135.5zM149 363q0 -65 15 -125.5t45 -110.5l431 495q-36 49 -88.5 77t-121.5 28q-68 0 -120.5 -26t-88 -73.5
t-54 -115t-18.5 -149.5z" />
    <glyph glyph-name="Ugrave" unicode="&#xd9;" horiz-adv-x="739" 
d="M633 498q0 60 -1 116t-9 109h36q-8 -54 -9 -110.5t-3 -123.5v-173q0 -70 -12.5 -129.5t-43 -103t-82 -68.5t-128.5 -25q-73 0 -123 15t-82.5 38.5t-49.5 53t-25 58.5t-9 55t-1 42v471h85v-488q0 -72 23 -116.5t55 -69.5t67.5 -34t60.5 -9q76 0 124.5 24.5t76.5 66.5
t39 98.5t11 120.5v182v0zM267 905q0 28 26 28q13 0 23.5 -6t32.5 -27l133 -131h-24q-30 16 -57 33q-23 14 -48.5 29.5t-43.5 27.5q-14 9 -28 21t-14 25z" />
    <glyph glyph-name="Uacute" unicode="&#xda;" horiz-adv-x="739" 
d="M633 498q0 60 -1 116t-9 109h36q-8 -54 -9 -110.5t-3 -123.5v-173q0 -70 -12.5 -129.5t-43 -103t-82 -68.5t-128.5 -25q-73 0 -123 15t-82.5 38.5t-49.5 53t-25 58.5t-9 55t-1 42v471h85v-488q0 -72 23 -116.5t55 -69.5t67.5 -34t60.5 -9q76 0 124.5 24.5t76.5 66.5
t39 98.5t11 120.5v182v0zM556 905q0 -13 -14 -25t-28 -21q-18 -12 -44 -27.5t-49 -29.5q-27 -17 -56 -33h-24l133 131q22 21 32.5 27t23.5 6q26 0 26 -28z" />
    <glyph glyph-name="Ucircumflex" unicode="&#xdb;" horiz-adv-x="739" 
d="M633 498q0 60 -1 116t-9 109h36q-8 -54 -9 -110.5t-3 -123.5v-173q0 -70 -12.5 -129.5t-43 -103t-82 -68.5t-128.5 -25q-73 0 -123 15t-82.5 38.5t-49.5 53t-25 58.5t-9 55t-1 42v471h85v-488q0 -72 23 -116.5t55 -69.5t67.5 -34t60.5 -9q76 0 124.5 24.5t76.5 66.5
t39 98.5t11 120.5v182v0zM472 799q-9 6 -19.5 14.5t-20.5 17t-18 15t-11 9.5l-69 -56q-9 -8 -20 -16t-20 -15q-11 -8 -21 -15h-15q11 10 25 25.5t36 40.5q11 14 23.5 29t22.5 29q11 16 23 32h30l22 -32q10 -14 22.5 -29t24.5 -29q21 -25 35.5 -40.5t24.5 -25.5h-14
q-10 8 -21 16q-9 7 -20 14.5t-20 15.5z" />
    <glyph glyph-name="Udieresis" unicode="&#xdc;" horiz-adv-x="739" 
d="M633 498q0 60 -1 116t-9 109h36q-8 -54 -9 -110.5t-3 -123.5v-173q0 -70 -12.5 -129.5t-43 -103t-82 -68.5t-128.5 -25q-73 0 -123 15t-82.5 38.5t-49.5 53t-25 58.5t-9 55t-1 42v471h85v-488q0 -72 23 -116.5t55 -69.5t67.5 -34t60.5 -9q76 0 124.5 24.5t76.5 66.5
t39 98.5t11 120.5v182v0zM352 812q0 -20 -13.5 -35t-36.5 -15t-36.5 15t-13.5 35t13.5 35t36.5 15t36.5 -15t13.5 -35zM545 812q0 -20 -13.5 -35t-36.5 -15t-36.5 15t-13.5 35t13.5 35t36.5 15t36.5 -15t13.5 -35z" />
    <glyph glyph-name="Yacute" unicode="&#xdd;" horiz-adv-x="662" 
d="M370 316q44 74 70 118t41 69.5t22 37.5t13 23q15 27 28.5 52t25 46t19.5 36.5t12 24.5h36q-5 -7 -16.5 -24.5t-31 -48.5t-48 -78t-68.5 -113l-97 -160v-299h-85v291l-261 432h100zM523 905q0 -13 -14 -25t-28 -21q-18 -12 -44 -27.5t-49 -29.5q-27 -17 -56 -33h-24
l133 131q22 21 32.5 27t23.5 6q26 0 26 -28z" />
    <glyph glyph-name="Thorn" unicode="&#xde;" horiz-adv-x="610" 
d="M175 0h-85v723h85v-132q33 8 64.5 11.5t59.5 3.5q79 0 131.5 -17.5t83.5 -46t43.5 -64.5t12.5 -73q0 -45 -18 -85t-53 -69.5t-87 -47t-121 -17.5q-27 0 -55.5 1t-60.5 7v-194zM477 405q0 93 -51 141t-136 48q-28 0 -59.5 -3t-55.5 -11v-373q30 -5 58 -6.5t53 -1.5
q40 0 75 12t61 37.5t40.5 64.5t14.5 92z" />
    <glyph glyph-name="germandbls" unicode="&#xdf;" horiz-adv-x="563" 
d="M538 154q0 -38 -19 -73t-50 -58q-18 -14 -44 -24t-52 -10q-20 0 -40.5 6t-33.5 16q-15 12 -22.5 27.5t-7.5 30.5q0 11 2 20t5 17h14q-3 -8 -5 -15.5t-2 -21.5q0 -31 28 -51q14 -10 32.5 -13.5t31.5 -3.5q23 0 42 7t33 23q14 15 21 38t7 50q0 40 -19 79.5t-75 74.5l-50 31
q-45 28 -66 50t-21 46q0 13 3.5 24.5t10.5 23t17.5 24t23.5 28.5q11 13 23 28.5t21.5 33.5t16 39.5t6.5 46.5q0 57 -21.5 87.5t-76.5 30.5q-52 0 -81.5 -53.5t-29.5 -177.5v-535h-69v469h-81v11l81 14v7q0 45 5.5 93.5t26.5 89.5t62.5 67.5t112.5 26.5q21 0 47.5 -6t50 -20
t39 -37t15.5 -58q0 -20 -6.5 -37t-19.5 -35t-33 -38t-47 -45q-18 -17 -30.5 -32.5t-12.5 -30.5q0 -18 22 -36t51 -37l76 -49q30 -19 47.5 -39t26.5 -40.5t11.5 -41.5t2.5 -42z" />
    <glyph glyph-name="agrave" unicode="&#xe0;" horiz-adv-x="484" 
d="M429 13q12 0 22.5 13t15.5 39h12q-7 -45 -27.5 -60.5t-46.5 -15.5q-76 0 -76 103q-34 -36 -62.5 -56.5t-52 -31t-42.5 -13t-33 -2.5q-60 0 -88.5 29.5t-28.5 72.5q0 46 29.5 78.5t72 54.5t91.5 35t88 19l26 4v51q0 36 -5.5 63.5t-20 46.5t-38.5 28.5t-61 9.5
q-23 0 -44.5 -6t-38.5 -17q-21 -14 -33.5 -34t-12.5 -43q0 -25 4 -37h-13q-2 6 -3 16t-1 21q0 23 13 46.5t41 40.5q18 11 42.5 18t51.5 7q36 0 70 -7.5t60.5 -25.5t42 -49t15.5 -78v-265q0 -10 1 -19.5t4.5 -17.5t9.5 -13t16 -5zM329 270q-45 -8 -86 -20.5t-72 -32
t-49.5 -47t-18.5 -66.5q0 -46 23.5 -64.5t55.5 -18.5q18 0 39 8.5t41 21.5t37.5 28t29.5 29v162zM99 698q0 28 26 28q13 0 23.5 -6t32.5 -27l133 -131h-24q-30 16 -57 33q-23 14 -48.5 29.5t-43.5 27.5q-14 9 -28 21t-14 25z" />
    <glyph glyph-name="aacute" unicode="&#xe1;" horiz-adv-x="484" 
d="M429 13q12 0 22.5 13t15.5 39h12q-7 -45 -27.5 -60.5t-46.5 -15.5q-76 0 -76 103q-34 -36 -62.5 -56.5t-52 -31t-42.5 -13t-33 -2.5q-60 0 -88.5 29.5t-28.5 72.5q0 46 29.5 78.5t72 54.5t91.5 35t88 19l26 4v51q0 36 -5.5 63.5t-20 46.5t-38.5 28.5t-61 9.5
q-23 0 -44.5 -6t-38.5 -17q-21 -14 -33.5 -34t-12.5 -43q0 -25 4 -37h-13q-2 6 -3 16t-1 21q0 23 13 46.5t41 40.5q18 11 42.5 18t51.5 7q36 0 70 -7.5t60.5 -25.5t42 -49t15.5 -78v-265q0 -10 1 -19.5t4.5 -17.5t9.5 -13t16 -5zM329 270q-45 -8 -86 -20.5t-72 -32
t-49.5 -47t-18.5 -66.5q0 -46 23.5 -64.5t55.5 -18.5q18 0 39 8.5t41 21.5t37.5 28t29.5 29v162zM383 698q0 -13 -14 -25t-28 -21q-18 -12 -44 -27.5t-49 -29.5q-27 -17 -56 -33h-24l133 131q22 21 32.5 27t23.5 6q26 0 26 -28z" />
    <glyph glyph-name="acircumflex" unicode="&#xe2;" horiz-adv-x="484" 
d="M429 13q12 0 22.5 13t15.5 39h12q-7 -45 -27.5 -60.5t-46.5 -15.5q-76 0 -76 103q-34 -36 -62.5 -56.5t-52 -31t-42.5 -13t-33 -2.5q-60 0 -88.5 29.5t-28.5 72.5q0 46 29.5 78.5t72 54.5t91.5 35t88 19l26 4v51q0 36 -5.5 63.5t-20 46.5t-38.5 28.5t-61 9.5
q-23 0 -44.5 -6t-38.5 -17q-21 -14 -33.5 -34t-12.5 -43q0 -25 4 -37h-13q-2 6 -3 16t-1 21q0 23 13 46.5t41 40.5q18 11 42.5 18t51.5 7q36 0 70 -7.5t60.5 -25.5t42 -49t15.5 -78v-265q0 -10 1 -19.5t4.5 -17.5t9.5 -13t16 -5zM329 270q-45 -8 -86 -20.5t-72 -32
t-49.5 -47t-18.5 -66.5q0 -46 23.5 -64.5t55.5 -18.5q18 0 39 8.5t41 21.5t37.5 28t29.5 29v162zM304 601q-9 6 -19.5 14.5t-20.5 17t-18 15t-11 9.5l-69 -56q-9 -8 -20 -16t-20 -15q-11 -8 -21 -15h-15q11 10 25 25.5t36 40.5q11 14 23.5 29t22.5 29q11 16 23 32h30l22 -32
q10 -14 22.5 -29t24.5 -29q21 -25 35.5 -40.5t24.5 -25.5h-14q-10 8 -21 16q-9 7 -20 14.5t-20 15.5z" />
    <glyph glyph-name="atilde" unicode="&#xe3;" horiz-adv-x="484" 
d="M429 13q12 0 22.5 13t15.5 39h12q-7 -45 -27.5 -60.5t-46.5 -15.5q-76 0 -76 103q-34 -36 -62.5 -56.5t-52 -31t-42.5 -13t-33 -2.5q-60 0 -88.5 29.5t-28.5 72.5q0 46 29.5 78.5t72 54.5t91.5 35t88 19l26 4v51q0 36 -5.5 63.5t-20 46.5t-38.5 28.5t-61 9.5
q-23 0 -44.5 -6t-38.5 -17q-21 -14 -33.5 -34t-12.5 -43q0 -25 4 -37h-13q-2 6 -3 16t-1 21q0 23 13 46.5t41 40.5q18 11 42.5 18t51.5 7q36 0 70 -7.5t60.5 -25.5t42 -49t15.5 -78v-265q0 -10 1 -19.5t4.5 -17.5t9.5 -13t16 -5zM329 270q-45 -8 -86 -20.5t-72 -32
t-49.5 -47t-18.5 -66.5q0 -46 23.5 -64.5t55.5 -18.5q18 0 39 8.5t41 21.5t37.5 28t29.5 29v162zM247 640q17 -10 38 -20t38 -10q22 0 45.5 10t47.5 40l10 -8q-20 -35 -49.5 -60.5t-70.5 -25.5q-23 0 -43 9.5t-42 23.5q-17 11 -37.5 20.5t-38.5 9.5q-23 0 -46 -9.5
t-47 -40.5l-10 8q21 35 49.5 60.5t70.5 25.5q20 0 44 -11.5t41 -21.5z" />
    <glyph glyph-name="adieresis" unicode="&#xe4;" horiz-adv-x="484" 
d="M429 13q12 0 22.5 13t15.5 39h12q-7 -45 -27.5 -60.5t-46.5 -15.5q-76 0 -76 103q-34 -36 -62.5 -56.5t-52 -31t-42.5 -13t-33 -2.5q-60 0 -88.5 29.5t-28.5 72.5q0 46 29.5 78.5t72 54.5t91.5 35t88 19l26 4v51q0 36 -5.5 63.5t-20 46.5t-38.5 28.5t-61 9.5
q-23 0 -44.5 -6t-38.5 -17q-21 -14 -33.5 -34t-12.5 -43q0 -25 4 -37h-13q-2 6 -3 16t-1 21q0 23 13 46.5t41 40.5q18 11 42.5 18t51.5 7q36 0 70 -7.5t60.5 -25.5t42 -49t15.5 -78v-265q0 -10 1 -19.5t4.5 -17.5t9.5 -13t16 -5zM329 270q-45 -8 -86 -20.5t-72 -32
t-49.5 -47t-18.5 -66.5q0 -46 23.5 -64.5t55.5 -18.5q18 0 39 8.5t41 21.5t37.5 28t29.5 29v162zM180 637q0 -20 -13.5 -35t-36.5 -15t-36.5 15t-13.5 35t13.5 35t36.5 15t36.5 -15t13.5 -35zM373 637q0 -20 -13.5 -35t-36.5 -15t-36.5 15t-13.5 35t13.5 35t36.5 15
t36.5 -15t13.5 -35z" />
    <glyph glyph-name="aring" unicode="&#xe5;" horiz-adv-x="484" 
d="M429 13q12 0 22.5 13t15.5 39h12q-7 -45 -27.5 -60.5t-46.5 -15.5q-76 0 -76 103q-34 -36 -62.5 -56.5t-52 -31t-42.5 -13t-33 -2.5q-60 0 -88.5 29.5t-28.5 72.5q0 46 29.5 78.5t72 54.5t91.5 35t88 19l26 4v51q0 36 -5.5 63.5t-20 46.5t-38.5 28.5t-61 9.5
q-23 0 -44.5 -6t-38.5 -17q-21 -14 -33.5 -34t-12.5 -43q0 -25 4 -37h-13q-2 6 -3 16t-1 21q0 23 13 46.5t41 40.5q18 11 42.5 18t51.5 7q36 0 70 -7.5t60.5 -25.5t42 -49t15.5 -78v-265q0 -10 1 -19.5t4.5 -17.5t9.5 -13t16 -5zM329 270q-45 -8 -86 -20.5t-72 -32
t-49.5 -47t-18.5 -66.5q0 -46 23.5 -64.5t55.5 -18.5q18 0 39 8.5t41 21.5t37.5 28t29.5 29v162zM139 630q0 36 25 61.5t61 25.5t61.5 -25.5t25.5 -61.5q0 -18 -7 -33.5t-18.5 -27t-27.5 -18.5t-34 -7t-33.5 7t-27.5 18.5t-18.5 27t-6.5 33.5zM155 630q0 -29 20.5 -49.5
t49.5 -20.5q30 0 50.5 20.5t20.5 49.5t-20.5 50t-50.5 21q-29 0 -49.5 -21t-20.5 -50z" />
    <glyph glyph-name="ae" unicode="&#xe6;" horiz-adv-x="761" 
d="M548 493q49 0 84 -18.5t58 -48.5t34 -68t12 -77h-330q0 -87 15 -140t37.5 -81.5t50 -37.5t53.5 -9q48 0 86.5 22.5t73.5 76.5l10 -7q-29 -50 -73 -83t-115 -33q-25 0 -53 6t-54.5 19.5t-50 36t-39.5 55.5q-23 -34 -50.5 -56.5t-55 -36t-53.5 -19t-44 -5.5
q-63 0 -92.5 29.5t-29.5 72.5q0 45 29 77.5t71.5 55t91.5 35.5t89 19l26 4v51q0 36 -5.5 63.5t-19.5 46.5t-38 28.5t-61 9.5q-25 0 -48.5 -7t-41.5 -20.5t-29 -32.5t-11 -43q0 -21 4 -34h-13q-1 4 -2.5 12t-1.5 22q0 22 10 43t29.5 37t47 25.5t62.5 9.5q26 0 51 -4t47 -13
t39.5 -24t29.5 -37q27 40 70 59t100 19zM329 270q-45 -8 -86 -20t-72 -31t-49.5 -46.5t-18.5 -66.5q0 -46 23.5 -65.5t60.5 -19.5q24 0 49 9.5t46 26t34 40t13 50.5v123zM660 293q0 37 -7 71.5t-21.5 60t-37.5 41t-54 15.5q-58 0 -92 -45.5t-42 -142.5h254z" />
    <glyph glyph-name="ccedilla" unicode="&#xe7;" horiz-adv-x="475" 
d="M279 13q47 0 90.5 27.5t69.5 87.5l11 -5q-9 -20 -22.5 -43t-35 -43t-52.5 -33.5t-75 -14.5l-22 -52q14 5 27.5 6t24.5 1q15 0 29.5 -3.5t26 -11t18.5 -19t7 -28.5q0 -20 -10 -35t-27 -26t-39.5 -16.5t-47.5 -5.5q-23 0 -45 4.5t-42 14.5l5 11q16 -8 37.5 -13t38.5 -5
q21 0 35 5.5t22.5 14.5t12 20.5t3.5 23.5q0 50 -54 50q-13 0 -32 -6l-8 7l26 63q-45 2 -84.5 19t-68.5 48.5t-46 77t-17 102.5q0 49 14.5 95.5t44 82.5t75 57.5t107.5 21.5q32 0 59.5 -7.5t53.5 -27.5q21 -17 32.5 -40.5t11.5 -49.5q0 -12 -1 -24.5t-5 -27.5h-13
q5 14 5.5 28.5t0.5 22.5q0 20 -10.5 42.5t-29.5 38.5q-23 20 -50.5 26.5t-57.5 6.5t-58 -12t-50 -40t-35 -75.5t-13 -117.5q0 -59 13 -101t35 -69t52 -40t63 -13z" />
    <glyph glyph-name="egrave" unicode="&#xe8;" horiz-adv-x="475" 
d="M258 493q49 0 85 -18.5t59.5 -48.5t35 -68t12.5 -77h-334q0 -87 15 -140t37.5 -81.5t50.5 -37.5t54 -9q47 0 87.5 22.5t74.5 76.5l10 -7q-29 -50 -74 -83t-117 -33q-34 0 -72.5 12t-71 40.5t-54 76.5t-21.5 120q0 58 15.5 105t44 80.5t70 51.5t93.5 18zM373 293
q0 37 -7.5 71.5t-22.5 60t-38 41t-54 15.5q-59 0 -93 -45.5t-42 -142.5h257zM114 698q0 28 26 28q13 0 23.5 -6t32.5 -27l133 -131h-24q-30 16 -57 33q-23 14 -48.5 29.5t-43.5 27.5q-14 9 -28 21t-14 25z" />
    <glyph glyph-name="eacute" unicode="&#xe9;" horiz-adv-x="475" 
d="M258 493q49 0 85 -18.5t59.5 -48.5t35 -68t12.5 -77h-334q0 -87 15 -140t37.5 -81.5t50.5 -37.5t54 -9q47 0 87.5 22.5t74.5 76.5l10 -7q-29 -50 -74 -83t-117 -33q-34 0 -72.5 12t-71 40.5t-54 76.5t-21.5 120q0 58 15.5 105t44 80.5t70 51.5t93.5 18zM373 293
q0 37 -7.5 71.5t-22.5 60t-38 41t-54 15.5q-59 0 -93 -45.5t-42 -142.5h257zM410 698q0 -13 -14 -25t-28 -21q-18 -12 -44 -27.5t-49 -29.5q-27 -17 -56 -33h-24l133 131q22 21 32.5 27t23.5 6q26 0 26 -28z" />
    <glyph glyph-name="ecircumflex" unicode="&#xea;" horiz-adv-x="475" 
d="M258 493q49 0 85 -18.5t59.5 -48.5t35 -68t12.5 -77h-334q0 -87 15 -140t37.5 -81.5t50.5 -37.5t54 -9q47 0 87.5 22.5t74.5 76.5l10 -7q-29 -50 -74 -83t-117 -33q-34 0 -72.5 12t-71 40.5t-54 76.5t-21.5 120q0 58 15.5 105t44 80.5t70 51.5t93.5 18zM373 293
q0 37 -7.5 71.5t-22.5 60t-38 41t-54 15.5q-59 0 -93 -45.5t-42 -142.5h257zM322 601q-9 6 -19.5 14.5t-20.5 17t-18 15t-11 9.5l-69 -56q-9 -8 -20 -16t-20 -15q-11 -8 -21 -15h-15q11 10 25 25.5t36 40.5q11 14 23.5 29t22.5 29q11 16 23 32h30l22 -32q10 -14 22.5 -29
t24.5 -29q21 -25 35.5 -40.5t24.5 -25.5h-14q-10 8 -21 16q-9 7 -20 14.5t-20 15.5z" />
    <glyph glyph-name="edieresis" unicode="&#xeb;" horiz-adv-x="475" 
d="M258 493q49 0 85 -18.5t59.5 -48.5t35 -68t12.5 -77h-334q0 -87 15 -140t37.5 -81.5t50.5 -37.5t54 -9q47 0 87.5 22.5t74.5 76.5l10 -7q-29 -50 -74 -83t-117 -33q-34 0 -72.5 12t-71 40.5t-54 76.5t-21.5 120q0 58 15.5 105t44 80.5t70 51.5t93.5 18zM373 293
q0 37 -7.5 71.5t-22.5 60t-38 41t-54 15.5q-59 0 -93 -45.5t-42 -142.5h257zM201 637q0 -20 -13.5 -35t-36.5 -15t-36.5 15t-13.5 35t13.5 35t36.5 15t36.5 -15t13.5 -35zM394 637q0 -20 -13.5 -35t-36.5 -15t-36.5 15t-13.5 35t13.5 35t36.5 15t36.5 -15t13.5 -35z" />
    <glyph glyph-name="igrave" unicode="&#xec;" horiz-adv-x="209" 
d="M70 0v472l69 23v-495h-69zM-36 698q0 28 26 28q13 0 23.5 -6t32.5 -27l133 -131h-24q-30 16 -57 33q-23 14 -48.5 29.5t-43.5 27.5q-14 9 -28 21t-14 25z" />
    <glyph glyph-name="iacute" unicode="&#xed;" horiz-adv-x="209" 
d="M70 0v472l69 23v-495h-69zM270 698q0 -13 -14 -25t-28 -21q-18 -12 -44 -27.5t-49 -29.5q-27 -17 -56 -33h-24l133 131q22 21 32.5 27t23.5 6q26 0 26 -28z" />
    <glyph glyph-name="icircumflex" unicode="&#xee;" horiz-adv-x="209" 
d="M70 0v472l69 23v-495h-69zM175 601q-9 6 -19.5 14.5t-20.5 17t-18 15t-11 9.5l-69 -56q-9 -8 -20 -16t-20 -15q-11 -8 -21 -15h-15q11 10 25 25.5t36 40.5q11 14 23.5 29t22.5 29q11 16 23 32h30l22 -32q10 -14 22.5 -29t24.5 -29q21 -25 35.5 -40.5t24.5 -25.5h-14
q-10 8 -21 16q-9 7 -20 14.5t-20 15.5z" />
    <glyph glyph-name="idieresis" unicode="&#xef;" horiz-adv-x="209" 
d="M70 0v472l69 23v-495h-69zM59 637q0 -20 -13.5 -35t-36.5 -15t-36.5 15t-13.5 35t13.5 35t36.5 15t36.5 -15t13.5 -35zM252 637q0 -20 -13.5 -35t-36.5 -15t-36.5 15t-13.5 35t13.5 35t36.5 15t36.5 -15t13.5 -35z" />
    <glyph glyph-name="eth" unicode="&#xf0;" horiz-adv-x="548" 
d="M395 694l-61 -51q49 -32 83 -72.5t55.5 -87t31 -99.5t9.5 -111q0 -61 -18 -113t-50 -90t-75.5 -59.5t-95.5 -21.5q-51 0 -95 17.5t-76 50.5t-50 79.5t-18 103.5q0 63 18 110.5t49.5 79t75 47.5t94.5 16q35 0 70.5 -10.5t72.5 -35.5q-6 27 -18.5 52t-27.5 47.5t-32 40.5
t-33 32l-61 -49l-9 11l57 48q-31 26 -79.5 46.5t-102.5 28.5v12q15 0 39.5 -3.5t53.5 -11t60 -19t60 -29.5l64 52zM432 252q0 66 -14 110t-36.5 70.5t-51 37.5t-58.5 11t-58 -11.5t-50 -39.5t-35 -74.5t-13 -115.5t13.5 -115t35.5 -73.5t50.5 -39t58.5 -11.5t58.5 14.5
t50.5 45t35.5 78t13.5 113.5z" />
    <glyph glyph-name="ntilde" unicode="&#xf1;" horiz-adv-x="517" 
d="M378 0v324q0 52 -11 81t-28.5 43.5t-37.5 17.5t-38 3q-29 0 -62.5 -14t-61.5 -31v-424h-69v471l69 24v-57q45 32 84 43.5t69 11.5q55 0 86 -17.5t46.5 -44.5t19 -60t3.5 -63v-308h-69zM276 640q17 -10 38 -20t38 -10q22 0 45.5 10t47.5 40l10 -8q-20 -35 -49.5 -60.5
t-70.5 -25.5q-23 0 -43 9.5t-42 23.5q-17 11 -37.5 20.5t-38.5 9.5q-23 0 -46 -9.5t-47 -40.5l-10 8q21 35 49.5 60.5t70.5 25.5q20 0 44 -11.5t41 -21.5z" />
    <glyph glyph-name="ograve" unicode="&#xf2;" horiz-adv-x="548" 
d="M513 240q0 -57 -18 -103t-50 -79t-75.5 -51t-95.5 -18q-51 0 -95 17.5t-76 50.5t-50 79.5t-18 103.5q0 63 18 110.5t50 79t76 47.5t95 16q52 0 95.5 -15t75.5 -45.5t50 -78.5t18 -114zM432 240q0 69 -13.5 115.5t-35.5 74.5t-50.5 39.5t-58.5 11.5t-58.5 -11.5
t-50.5 -39.5t-35.5 -74.5t-13.5 -115.5t13.5 -115t35.5 -73.5t50.5 -39t58.5 -11.5t58.5 11.5t50.5 39t35.5 73.5t13.5 115zM139 698q0 28 26 28q13 0 23.5 -6t32.5 -27l133 -131h-24q-30 16 -57 33q-23 14 -48.5 29.5t-43.5 27.5q-14 9 -28 21t-14 25z" />
    <glyph glyph-name="oacute" unicode="&#xf3;" horiz-adv-x="548" 
d="M513 240q0 -57 -18 -103t-50 -79t-75.5 -51t-95.5 -18q-51 0 -95 17.5t-76 50.5t-50 79.5t-18 103.5q0 63 18 110.5t50 79t76 47.5t95 16q52 0 95.5 -15t75.5 -45.5t50 -78.5t18 -114zM432 240q0 69 -13.5 115.5t-35.5 74.5t-50.5 39.5t-58.5 11.5t-58.5 -11.5
t-50.5 -39.5t-35.5 -74.5t-13.5 -115.5t13.5 -115t35.5 -73.5t50.5 -39t58.5 -11.5t58.5 11.5t50.5 39t35.5 73.5t13.5 115zM426 698q0 -13 -14 -25t-28 -21q-18 -12 -44 -27.5t-49 -29.5q-27 -17 -56 -33h-24l133 131q22 21 32.5 27t23.5 6q26 0 26 -28z" />
    <glyph glyph-name="ocircumflex" unicode="&#xf4;" horiz-adv-x="548" 
d="M513 240q0 -57 -18 -103t-50 -79t-75.5 -51t-95.5 -18q-51 0 -95 17.5t-76 50.5t-50 79.5t-18 103.5q0 63 18 110.5t50 79t76 47.5t95 16q52 0 95.5 -15t75.5 -45.5t50 -78.5t18 -114zM432 240q0 69 -13.5 115.5t-35.5 74.5t-50.5 39.5t-58.5 11.5t-58.5 -11.5
t-50.5 -39.5t-35.5 -74.5t-13.5 -115.5t13.5 -115t35.5 -73.5t50.5 -39t58.5 -11.5t58.5 11.5t50.5 39t35.5 73.5t13.5 115zM344 601q-9 6 -19.5 14.5t-20.5 17t-18 15t-11 9.5l-69 -56q-9 -8 -20 -16t-20 -15q-11 -8 -21 -15h-15q11 10 25 25.5t36 40.5q11 14 23.5 29
t22.5 29q11 16 23 32h30l22 -32q10 -14 22.5 -29t24.5 -29q21 -25 35.5 -40.5t24.5 -25.5h-14q-10 8 -21 16q-9 7 -20 14.5t-20 15.5z" />
    <glyph glyph-name="otilde" unicode="&#xf5;" horiz-adv-x="548" 
d="M513 240q0 -57 -18 -103t-50 -79t-75.5 -51t-95.5 -18q-51 0 -95 17.5t-76 50.5t-50 79.5t-18 103.5q0 63 18 110.5t50 79t76 47.5t95 16q52 0 95.5 -15t75.5 -45.5t50 -78.5t18 -114zM432 240q0 69 -13.5 115.5t-35.5 74.5t-50.5 39.5t-58.5 11.5t-58.5 -11.5
t-50.5 -39.5t-35.5 -74.5t-13.5 -115.5t13.5 -115t35.5 -73.5t50.5 -39t58.5 -11.5t58.5 11.5t50.5 39t35.5 73.5t13.5 115zM294 640q17 -10 38 -20t38 -10q22 0 45.5 10t47.5 40l10 -8q-20 -35 -49.5 -60.5t-70.5 -25.5q-23 0 -43 9.5t-42 23.5q-17 11 -37.5 20.5
t-38.5 9.5q-23 0 -46 -9.5t-47 -40.5l-10 8q21 35 49.5 60.5t70.5 25.5q20 0 44 -11.5t41 -21.5z" />
    <glyph glyph-name="odieresis" unicode="&#xf6;" horiz-adv-x="548" 
d="M513 240q0 -57 -18 -103t-50 -79t-75.5 -51t-95.5 -18q-51 0 -95 17.5t-76 50.5t-50 79.5t-18 103.5q0 63 18 110.5t50 79t76 47.5t95 16q52 0 95.5 -15t75.5 -45.5t50 -78.5t18 -114zM432 240q0 69 -13.5 115.5t-35.5 74.5t-50.5 39.5t-58.5 11.5t-58.5 -11.5
t-50.5 -39.5t-35.5 -74.5t-13.5 -115.5t13.5 -115t35.5 -73.5t50.5 -39t58.5 -11.5t58.5 11.5t50.5 39t35.5 73.5t13.5 115zM228 637q0 -20 -13.5 -35t-36.5 -15t-36.5 15t-13.5 35t13.5 35t36.5 15t36.5 -15t13.5 -35zM421 637q0 -20 -13.5 -35t-36.5 -15t-36.5 15
t-13.5 35t13.5 35t36.5 15t36.5 -15t13.5 -35z" />
    <glyph glyph-name="divide" unicode="&#xf7;" 
d="M9 329v16h510v-16h-510zM314 193q0 -20 -13.5 -35t-36.5 -15q-20 0 -35 14t-15 36q0 21 15 35.5t35 14.5q23 0 36.5 -15t13.5 -35zM314 481q0 -20 -13.5 -35t-36.5 -15q-20 0 -35 14t-15 36q0 21 15 35.5t35 14.5q23 0 36.5 -15t13.5 -35z" />
    <glyph glyph-name="oslash" unicode="&#xf8;" horiz-adv-x="548" 
d="M513 240q0 -57 -18 -103t-50 -79t-75.5 -51t-95.5 -18q-101 0 -166 62l-57 -63l-10 10l57 64q-30 32 -46.5 77t-16.5 101q0 63 18 110.5t50 79t76 47.5t95 16q49 0 90 -13t73 -41l50 56l11 -10l-50 -56q31 -31 48 -77.5t17 -111.5zM432 240q0 47 -6.5 82.5t-17.5 62.5
l-266 -296q23 -49 58 -68.5t74 -19.5q30 0 58.5 11.5t50.5 39t35.5 73.5t13.5 115zM116 240q0 -84 20 -136l266 296q-23 45 -57 63t-71 18q-30 0 -58.5 -11.5t-50.5 -39.5t-35.5 -74.5t-13.5 -115.5z" />
    <glyph glyph-name="ugrave" unicode="&#xf9;" horiz-adv-x="514" 
d="M375 0v54q-30 -24 -56.5 -37.5t-47.5 -19.5t-36.5 -7t-22.5 -1q-43 0 -70.5 14t-43.5 35.5t-22 48t-6 51.5v334l69 23v-359q0 -43 11.5 -67.5t28 -37t35.5 -15.5t35 -3q30 0 65 17t61 38v404l69 23v-495h-69zM112 698q0 28 26 28q13 0 23.5 -6t32.5 -27l133 -131h-24
q-30 16 -57 33q-23 14 -48.5 29.5t-43.5 27.5q-14 9 -28 21t-14 25z" />
    <glyph glyph-name="uacute" unicode="&#xfa;" horiz-adv-x="514" 
d="M375 0v54q-30 -24 -56.5 -37.5t-47.5 -19.5t-36.5 -7t-22.5 -1q-43 0 -70.5 14t-43.5 35.5t-22 48t-6 51.5v334l69 23v-359q0 -43 11.5 -67.5t28 -37t35.5 -15.5t35 -3q30 0 65 17t61 38v404l69 23v-495h-69zM430 698q0 -13 -14 -25t-28 -21q-18 -12 -44 -27.5t-49 -29.5
q-27 -17 -56 -33h-24l133 131q22 21 32.5 27t23.5 6q26 0 26 -28z" />
    <glyph glyph-name="ucircumflex" unicode="&#xfb;" horiz-adv-x="514" 
d="M375 0v54q-30 -24 -56.5 -37.5t-47.5 -19.5t-36.5 -7t-22.5 -1q-43 0 -70.5 14t-43.5 35.5t-22 48t-6 51.5v334l69 23v-359q0 -43 11.5 -67.5t28 -37t35.5 -15.5t35 -3q30 0 65 17t61 38v404l69 23v-495h-69zM332 601q-9 6 -19.5 14.5t-20.5 17t-18 15t-11 9.5l-69 -56
q-9 -8 -20 -16t-20 -15q-11 -8 -21 -15h-15q11 10 25 25.5t36 40.5q11 14 23.5 29t22.5 29q11 16 23 32h30l22 -32q10 -14 22.5 -29t24.5 -29q21 -25 35.5 -40.5t24.5 -25.5h-14q-10 8 -21 16q-9 7 -20 14.5t-20 15.5z" />
    <glyph glyph-name="udieresis" unicode="&#xfc;" horiz-adv-x="514" 
d="M375 0v54q-30 -24 -56.5 -37.5t-47.5 -19.5t-36.5 -7t-22.5 -1q-43 0 -70.5 14t-43.5 35.5t-22 48t-6 51.5v334l69 23v-359q0 -43 11.5 -67.5t28 -37t35.5 -15.5t35 -3q30 0 65 17t61 38v404l69 23v-495h-69zM216 637q0 -20 -13.5 -35t-36.5 -15t-36.5 15t-13.5 35
t13.5 35t36.5 15t36.5 -15t13.5 -35zM409 637q0 -20 -13.5 -35t-36.5 -15t-36.5 15t-13.5 35t13.5 35t36.5 15t36.5 -15t13.5 -35z" />
    <glyph glyph-name="yacute" unicode="&#xfd;" horiz-adv-x="471" 
d="M275 63q26 70 44.5 121t31.5 88t22 63.5t16 49.5t13.5 45.5t14.5 50.5h34q-12 -28 -28 -68.5t-34 -85.5t-35.5 -91.5t-32.5 -87.5q-16 -43 -35.5 -91t-46.5 -114q-15 -37 -31.5 -71.5t-37.5 -60.5q-17 -19 -38 -31t-50 -12q-22 0 -36.5 5.5t-25.5 11.5l6 42
q22 -23 39.5 -29t30.5 -6q20 0 34 6t29 23q18 24 39.5 65.5t39.5 96.5q-24 53 -53 117t-59 131t-58.5 131.5t-52.5 118.5h76l184 -418v0zM410 698q0 -13 -14 -25t-28 -21q-18 -12 -44 -27.5t-49 -29.5q-27 -17 -56 -33h-24l133 131q22 21 32.5 27t23.5 6q26 0 26 -28z" />
    <glyph glyph-name="thorn" unicode="&#xfe;" horiz-adv-x="545" 
d="M139 786v-356q24 22 62.5 42.5t85.5 20.5q37 0 76.5 -12t72 -41t53.5 -77.5t21 -120.5q0 -52 -15.5 -97.5t-45.5 -80t-74 -54.5t-101 -21q-30 0 -66 7.5t-69 28.5v-247h-69v985zM429 239q0 121 -44 175.5t-122 54.5q-30 0 -64 -16.5t-60 -36.5v-378q19 -11 46 -18t66 -7
q37 0 69.5 14.5t56.5 43t38 70.5t14 98z" />
    <glyph glyph-name="ydieresis" unicode="&#xff;" horiz-adv-x="471" 
d="M275 63q26 70 44.5 121t31.5 88t22 63.5t16 49.5t13.5 45.5t14.5 50.5h34q-12 -28 -28 -68.5t-34 -85.5t-35.5 -91.5t-32.5 -87.5q-16 -43 -35.5 -91t-46.5 -114q-15 -37 -31.5 -71.5t-37.5 -60.5q-17 -19 -38 -31t-50 -12q-22 0 -36.5 5.5t-25.5 11.5l6 42
q22 -23 39.5 -29t30.5 -6q20 0 34 6t29 23q18 24 39.5 65.5t39.5 96.5q-24 53 -53 117t-59 131t-58.5 131.5t-52.5 118.5h76l184 -418v0zM202 637q0 -20 -13.5 -35t-36.5 -15t-36.5 15t-13.5 35t13.5 35t36.5 15t36.5 -15t13.5 -35zM395 637q0 -20 -13.5 -35t-36.5 -15
t-36.5 15t-13.5 35t13.5 35t36.5 15t36.5 -15t13.5 -35z" />
    <glyph glyph-name="Amacron" unicode="&#x100;" horiz-adv-x="666" 
d="M626 0h-89q-4 12 -14.5 41.5t-24.5 70t-31 87.5t-33 94h-256l-35 -90q-7 -16 -16 -40.5t-18 -52.5t-17 -57t-14 -53h-38q10 19 25 53t33.5 78.5t39 96.5t41.5 106l87 235q14 36 28.5 75t30.5 79h24zM305 635l-123 -330h247zM188 783v16h291v-16h-291z" />
    <glyph glyph-name="amacron" unicode="&#x101;" horiz-adv-x="484" 
d="M429 13q12 0 22.5 13t15.5 39h12q-7 -45 -27.5 -60.5t-46.5 -15.5q-76 0 -76 103q-34 -36 -62.5 -56.5t-52 -31t-42.5 -13t-33 -2.5q-60 0 -88.5 29.5t-28.5 72.5q0 46 29.5 78.5t72 54.5t91.5 35t88 19l26 4v51q0 36 -5.5 63.5t-20 46.5t-38.5 28.5t-61 9.5
q-23 0 -44.5 -6t-38.5 -17q-21 -14 -33.5 -34t-12.5 -43q0 -25 4 -37h-13q-2 6 -3 16t-1 21q0 23 13 46.5t41 40.5q18 11 42.5 18t51.5 7q36 0 70 -7.5t60.5 -25.5t42 -49t15.5 -78v-265q0 -10 1 -19.5t4.5 -17.5t9.5 -13t16 -5zM329 270q-45 -8 -86 -20.5t-72 -32
t-49.5 -47t-18.5 -66.5q0 -46 23.5 -64.5t55.5 -18.5q18 0 39 8.5t41 21.5t37.5 28t29.5 29v162zM76 575v16h291v-16h-291z" />
    <glyph glyph-name="Abreve" unicode="&#x102;" horiz-adv-x="666" 
d="M626 0h-89q-4 12 -14.5 41.5t-24.5 70t-31 87.5t-33 94h-256l-35 -90q-7 -16 -16 -40.5t-18 -52.5t-17 -57t-14 -53h-38q10 19 25 53t33.5 78.5t39 96.5t41.5 106l87 235q14 36 28.5 75t30.5 79h24zM305 635l-123 -330h247zM333 778q-28 0 -53.5 7.5t-46.5 23t-35 38.5
t-18 53h14q7 -22 21.5 -36.5t33 -23.5t40.5 -12.5t44 -3.5t44 3.5t41 12.5t33.5 23.5t21.5 36.5h13q-4 -30 -18 -53t-34.5 -38.5t-46.5 -23t-54 -7.5z" />
    <glyph glyph-name="abreve" unicode="&#x103;" horiz-adv-x="484" 
d="M429 13q12 0 22.5 13t15.5 39h12q-7 -45 -27.5 -60.5t-46.5 -15.5q-76 0 -76 103q-34 -36 -62.5 -56.5t-52 -31t-42.5 -13t-33 -2.5q-60 0 -88.5 29.5t-28.5 72.5q0 46 29.5 78.5t72 54.5t91.5 35t88 19l26 4v51q0 36 -5.5 63.5t-20 46.5t-38.5 28.5t-61 9.5
q-23 0 -44.5 -6t-38.5 -17q-21 -14 -33.5 -34t-12.5 -43q0 -25 4 -37h-13q-2 6 -3 16t-1 21q0 23 13 46.5t41 40.5q18 11 42.5 18t51.5 7q36 0 70 -7.5t60.5 -25.5t42 -49t15.5 -78v-265q0 -10 1 -19.5t4.5 -17.5t9.5 -13t16 -5zM329 270q-45 -8 -86 -20.5t-72 -32
t-49.5 -47t-18.5 -66.5q0 -46 23.5 -64.5t55.5 -18.5q18 0 39 8.5t41 21.5t37.5 28t29.5 29v162zM228 555q-33 0 -60.5 12t-47.5 32.5t-31.5 47t-14.5 56.5h12q13 -44 50.5 -73t91.5 -29t91.5 29t49.5 73h13q-3 -30 -14.5 -56.5t-31.5 -47t-47.5 -32.5t-60.5 -12z" />
    <glyph glyph-name="Aogonek" unicode="&#x104;" horiz-adv-x="666" 
d="M626 0h-69q-14 -21 -21.5 -44t-7.5 -46q0 -25 14.5 -41t43.5 -16q22 0 44.5 12t41.5 28l8 -9q-29 -27 -59 -43.5t-68 -16.5q-35 0 -54 19t-19 48q0 27 16 55.5t41 53.5q-4 12 -14.5 41.5t-24.5 70t-31 87.5t-33 94h-256l-35 -90q-7 -16 -16 -40.5t-18 -52.5t-17 -57
t-14 -53h-38q10 19 25 53t33.5 78.5t39 96.5t41.5 106l87 235q14 36 28.5 75t30.5 79h24zM305 635l-123 -330h247z" />
    <glyph glyph-name="aogonek" unicode="&#x105;" horiz-adv-x="484" 
d="M476 -123q18 0 38 10.5t35 24.5l8 -9q-23 -23 -48.5 -37.5t-57.5 -14.5q-31 0 -47 16.5t-16 41.5q0 20 9.5 41t26.5 41q-5 -2 -9.5 -2h-9.5q-76 0 -76 103q-34 -36 -62.5 -56.5t-52 -31t-42.5 -13t-33 -2.5q-60 0 -88.5 29.5t-28.5 72.5q0 46 29.5 78.5t72 54.5t91.5 35
t88 19l26 4v51q0 36 -5.5 63.5t-19.5 46.5t-38 28.5t-61 9.5q-29 0 -53 -8t-41 -22t-26.5 -32.5t-9.5 -38.5q0 -15 1 -23t3 -13h-13q-1 5 -2.5 13t-1.5 23q0 22 10.5 42t30 36t46.5 25.5t61 9.5q36 0 70 -7.5t60.5 -25.5t42 -49t15.5 -78v-265q0 -10 1 -19.5t4.5 -17.5
t9.5 -13t16 -5q12 0 22.5 13t15.5 39h12q-3 -20 -8.5 -33t-13.5 -22q-14 -19 -22 -41t-8 -45q0 -22 12.5 -34.5t36.5 -12.5zM329 270q-45 -8 -86 -20.5t-72 -32t-49.5 -47t-18.5 -66.5q0 -46 23.5 -64.5t55.5 -18.5q18 0 39 8.5t41 21.5t37.5 28t29.5 29v162z" />
    <glyph glyph-name="Cacute" unicode="&#x106;" horiz-adv-x="734" 
d="M668 49q-57 -33 -116.5 -48t-126.5 -15q-92 0 -161 27.5t-115.5 76.5t-69.5 117t-23 148q0 63 18 130.5t61.5 124t115.5 93t179 36.5q48 0 101.5 -10.5t120.5 -42.5l-6 -56q-38 45 -93 71t-138 26q-70 0 -120 -30t-82.5 -80.5t-48 -117t-15.5 -138.5q0 -94 23 -162.5
t61.5 -113t88 -66t103.5 -21.5q79 0 137 27t100 78zM554 905q0 -13 -14 -25t-28 -21q-18 -12 -44 -27.5t-49 -29.5q-27 -17 -56 -33h-24l133 131q22 21 32.5 27t23.5 6q26 0 26 -28z" />
    <glyph glyph-name="cacute" unicode="&#x107;" horiz-adv-x="475" 
d="M279 13q47 0 90.5 27.5t69.5 87.5l11 -5q-9 -20 -22.5 -43.5t-35.5 -43.5t-53.5 -33.5t-76.5 -13.5q-47 0 -88.5 16.5t-72 48t-48.5 77.5t-18 105q0 49 14.5 95.5t44 82.5t75 57.5t107.5 21.5q32 0 59.5 -7.5t53.5 -27.5q21 -17 32.5 -40.5t11.5 -49.5q0 -12 -1 -24.5
t-5 -27.5h-13q5 14 5.5 28.5t0.5 22.5q0 20 -10.5 42.5t-29.5 38.5q-23 20 -50.5 26.5t-57.5 6.5t-58 -12t-50 -40t-35 -75.5t-13 -117.5q0 -59 13 -101t35 -69t52 -40t63 -13zM407 698q0 -13 -14 -25t-28 -21q-18 -12 -44 -27.5t-49 -29.5q-27 -17 -56 -33h-24l133 131
q22 21 32.5 27t23.5 6q26 0 26 -28z" />
    <glyph glyph-name="Cdotaccent" unicode="&#x10a;" horiz-adv-x="734" 
d="M668 49q-57 -33 -116.5 -48t-126.5 -15q-92 0 -161 27.5t-115.5 76.5t-69.5 117t-23 148q0 63 18 130.5t61.5 124t115.5 93t179 36.5q48 0 101.5 -10.5t120.5 -42.5l-6 -56q-38 45 -93 71t-138 26q-70 0 -120 -30t-82.5 -80.5t-48 -117t-15.5 -138.5q0 -94 23 -162.5
t61.5 -113t88 -66t103.5 -21.5q79 0 137 27t100 78zM488 812q0 -20 -13.5 -35t-36.5 -15t-36.5 15t-13.5 35t13.5 35t36.5 15t36.5 -15t13.5 -35z" />
    <glyph glyph-name="cdotaccent" unicode="&#x10b;" horiz-adv-x="475" 
d="M279 13q47 0 90.5 27.5t69.5 87.5l11 -5q-9 -20 -22.5 -43.5t-35.5 -43.5t-53.5 -33.5t-76.5 -13.5q-47 0 -88.5 16.5t-72 48t-48.5 77.5t-18 105q0 49 14.5 95.5t44 82.5t75 57.5t107.5 21.5q32 0 59.5 -7.5t53.5 -27.5q21 -17 32.5 -40.5t11.5 -49.5q0 -12 -1 -24.5
t-5 -27.5h-13q5 14 5.5 28.5t0.5 22.5q0 20 -10.5 42.5t-29.5 38.5q-23 20 -50.5 26.5t-57.5 6.5t-58 -12t-50 -40t-35 -75.5t-13 -117.5q0 -59 13 -101t35 -69t52 -40t63 -13zM331 637q0 -20 -13.5 -35t-36.5 -15t-36.5 15t-13.5 35t13.5 35t36.5 15t36.5 -15t13.5 -35z
" />
    <glyph glyph-name="Ccaron" unicode="&#x10c;" horiz-adv-x="734" 
d="M668 49q-57 -33 -116.5 -48t-126.5 -15q-92 0 -161 27.5t-115.5 76.5t-69.5 117t-23 148q0 63 18 130.5t61.5 124t115.5 93t179 36.5q48 0 101.5 -10.5t120.5 -42.5l-6 -56q-38 45 -93 71t-138 26q-70 0 -120 -30t-82.5 -80.5t-48 -117t-15.5 -138.5q0 -94 23 -162.5
t61.5 -113t88 -66t103.5 -21.5q79 0 137 27t100 78zM539 902q11 8 21 16h14q-10 -10 -24.5 -25.5t-35.5 -40.5q-12 -14 -24.5 -29.5t-22.5 -29.5q-11 -16 -22 -31h-30q-12 15 -23 31q-10 14 -22.5 29.5t-23.5 29.5q-22 25 -36 40.5t-25 25.5h15q10 -8 21 -16q9 -7 20 -14.5
t20 -15.5l69 -56q3 3 11 9.5t18 14.5t20.5 17t19.5 15z" />
    <glyph glyph-name="ccaron" unicode="&#x10d;" horiz-adv-x="475" 
d="M279 13q47 0 90.5 27.5t69.5 87.5l11 -5q-9 -20 -22.5 -43.5t-35.5 -43.5t-53.5 -33.5t-76.5 -13.5q-47 0 -88.5 16.5t-72 48t-48.5 77.5t-18 105q0 49 14.5 95.5t44 82.5t75 57.5t107.5 21.5q32 0 59.5 -7.5t53.5 -27.5q21 -17 32.5 -40.5t11.5 -49.5q0 -12 -1 -24.5
t-5 -27.5h-13q5 14 5.5 28.5t0.5 22.5q0 20 -10.5 42.5t-29.5 38.5q-23 20 -50.5 26.5t-57.5 6.5t-58 -12t-50 -40t-35 -75.5t-13 -117.5q0 -59 13 -101t35 -69t52 -40t63 -13zM387 705q11 8 21 16h14q-10 -10 -24.5 -25.5t-35.5 -40.5q-12 -14 -24.5 -29.5t-22.5 -29.5
q-11 -16 -22 -31h-30q-12 15 -23 31q-10 14 -22.5 29.5t-23.5 29.5q-22 25 -36 40.5t-25 25.5h15q10 -8 21 -16q9 -7 20 -14.5t20 -15.5l69 -56q3 3 11 9.5t18 14.5t20.5 17t19.5 15z" />
    <glyph glyph-name="Dcaron" unicode="&#x10e;" horiz-adv-x="791" 
d="M90 723h55q21 0 46.5 1t52.5 1.5t53 1.5t47 1q90 0 153.5 -19t107 -49.5t69.5 -68.5t39.5 -76t17.5 -71.5t4 -55.5q0 -32 -5.5 -74t-20.5 -85.5t-42 -85.5t-70.5 -75t-105.5 -53t-147 -20q-20 0 -46.5 1t-52.5 2q-23 1 -44.5 1.5t-37.5 0.5h-73v723zM642 379q0 31 -5 68
t-18 74.5t-35 72.5t-55 62t-78.5 43.5t-106.5 16.5q-38 0 -80 -3t-89 -11v-680q14 -3 34.5 -5.5t43 -5t45.5 -3.5t43 -1q79 0 136 30t94 81t54 118.5t17 142.5zM422 902q11 8 21 16h14q-10 -10 -24.5 -25.5t-35.5 -40.5q-12 -14 -24.5 -29.5t-22.5 -29.5q-11 -16 -22 -31
h-30q-12 15 -23 31q-10 14 -22.5 29.5t-23.5 29.5q-22 25 -36 40.5t-25 25.5h15q10 -8 21 -16q9 -7 20 -14.5t20 -15.5l69 -56q3 3 11 9.5t18 14.5t20.5 17t19.5 15z" />
    <glyph glyph-name="dcaron" unicode="&#x10f;" horiz-adv-x="602" 
d="M483 0h-69v52q-24 -23 -63.5 -43t-87.5 -20q-31 0 -70.5 11t-74.5 39t-59 75.5t-24 121.5q0 58 20 105.5t54.5 80.5t80.5 51.5t98 19.5q30 0 60.5 -5t65.5 -17v292l69 23v-786zM414 419q-16 32 -50 47t-71 15q-86 0 -131.5 -60.5t-45.5 -176.5q0 -72 17 -117t43 -70.5
t57 -34.5t59 -9q23 0 42.5 6t35 15t27 18.5t17.5 15.5v351zM538 525q14 23 26 55.5t12 66.5q0 30 -9 51t-20 35l5 12h62q5 -16 6.5 -29.5t1.5 -23.5q0 -51 -21 -93t-53 -81z" />
    <glyph glyph-name="Dcroat" unicode="&#x110;" horiz-adv-x="805" 
d="M104 371h-119v16h119v336h55q21 0 46.5 1t52.5 1.5t53 1.5t47 1q90 0 153.5 -19t107 -49.5t69.5 -68.5t39.5 -76t17.5 -71.5t4 -55.5q0 -32 -5.5 -74t-20.5 -85.5t-42 -85.5t-70.5 -75t-105.5 -53t-147 -20q-20 0 -46.5 1t-52.5 2q-23 1 -44.5 1.5t-37.5 0.5h-73v371z
M656 379q0 31 -5 68t-18 74.5t-35 72.5t-55 62t-78.5 43.5t-106.5 16.5q-38 0 -80 -3t-89 -11v-315h172v-16h-172v-349q14 -3 34.5 -5.5t43 -5t45.5 -3.5t43 -1q79 0 136 30t94 81t54 118.5t17 142.5z" />
    <glyph glyph-name="dcroat" unicode="&#x111;" horiz-adv-x="553" 
d="M483 650h63v-16h-63v-634h-69v52q-24 -23 -63.5 -43t-87.5 -20q-31 0 -70.5 11t-74.5 39t-59 75.5t-24 121.5q0 58 20 105.5t54.5 80.5t80.5 51.5t98 19.5q30 0 60.5 -5t65.5 -17v163h-186v16h186v113l69 23v-136zM414 419q-16 32 -50 47t-71 15q-86 0 -131.5 -60.5
t-45.5 -176.5q0 -72 17 -117t43 -70.5t57 -34.5t59 -9q23 0 42.5 6t35 15t27 18.5t17.5 15.5v351z" />
    <glyph glyph-name="Emacron" unicode="&#x112;" horiz-adv-x="607" 
d="M239 12q36 0 79.5 1.5t87.5 6t86 14t77 25.5l-11 -59h-468v723h454l3 -54q-51 30 -116 36t-145 6h-111v-326h67q23 0 52.5 1.5t58 3.5t52 5t34.5 5v-40q-11 2 -34.5 4t-52 4t-58 3.5t-52.5 1.5h-67v-361h64zM176 783v16h291v-16h-291z" />
    <glyph glyph-name="emacron" unicode="&#x113;" horiz-adv-x="475" 
d="M258 493q49 0 85 -18.5t59.5 -48.5t35 -68t12.5 -77h-334q0 -87 15 -140t37.5 -81.5t50.5 -37.5t54 -9q47 0 87.5 22.5t74.5 76.5l10 -7q-29 -50 -74 -83t-117 -33q-34 0 -72.5 12t-71 40.5t-54 76.5t-21.5 120q0 58 15.5 105t44 80.5t70 51.5t93.5 18zM373 293
q0 37 -7.5 71.5t-22.5 60t-38 41t-54 15.5q-59 0 -93 -45.5t-42 -142.5h257zM110 575v16h291v-16h-291z" />
    <glyph glyph-name="Edotaccent" unicode="&#x116;" horiz-adv-x="607" 
d="M239 12q36 0 79.5 1.5t87.5 6t86 14t77 25.5l-11 -59h-468v723h454l3 -54q-51 30 -116 36t-145 6h-111v-326h67q23 0 52.5 1.5t58 3.5t52 5t34.5 5v-40q-11 2 -34.5 4t-52 4t-58 3.5t-52.5 1.5h-67v-361h64zM383 812q0 -20 -13.5 -35t-36.5 -15t-36.5 15t-13.5 35
t13.5 35t36.5 15t36.5 -15t13.5 -35z" />
    <glyph glyph-name="edotaccent" unicode="&#x117;" horiz-adv-x="475" 
d="M258 493q49 0 85 -18.5t59.5 -48.5t35 -68t12.5 -77h-334q0 -87 15 -140t37.5 -81.5t50.5 -37.5t54 -9q47 0 87.5 22.5t74.5 76.5l10 -7q-29 -50 -74 -83t-117 -33q-34 0 -72.5 12t-71 40.5t-54 76.5t-21.5 120q0 58 15.5 105t44 80.5t70 51.5t93.5 18zM373 293
q0 37 -7.5 71.5t-22.5 60t-38 41t-54 15.5q-59 0 -93 -45.5t-42 -142.5h257zM308 637q0 -20 -13.5 -35t-36.5 -15t-36.5 15t-13.5 35t13.5 35t36.5 15t36.5 -15t13.5 -35z" />
    <glyph glyph-name="Eogonek" unicode="&#x118;" horiz-adv-x="607" 
d="M239 12q36 0 79.5 1.5t87.5 6t86 14t77 25.5l-11 -59h-60q-14 -21 -21.5 -44t-7.5 -46q0 -25 14.5 -41t43.5 -16q22 0 44.5 12t41.5 28l8 -9q-29 -27 -59 -43.5t-68 -16.5q-35 0 -54 19t-19 48q0 27 16 55.5t41 53.5h-388v723h454l3 -54q-51 30 -116 36t-145 6h-111v-326
h67q23 0 52.5 1.5t58 3.5t52 5t34.5 5v-40q-11 2 -34.5 4t-52 4t-58 3.5t-52.5 1.5h-67v-361h64z" />
    <glyph glyph-name="eogonek" unicode="&#x119;" horiz-adv-x="475" 
d="M367 -123q18 0 38 10.5t35 24.5l8 -9q-23 -23 -48.5 -37.5t-57.5 -14.5q-31 0 -47 16.5t-16 41.5q0 23 11.5 46t31.5 44q-29 -10 -68 -10q-34 0 -72.5 12t-71 40.5t-54 76.5t-21.5 120q0 58 15.5 105t44 80.5t70 51.5t93.5 18q49 0 85 -18.5t59.5 -48.5t35 -68t12.5 -77
h-334q0 -87 15 -140t37.5 -81.5t50.5 -37.5t54 -9q47 0 87.5 22.5t74.5 76.5l10 -7q-18 -31 -42 -56t-56 -40q-13 -19 -21 -40.5t-8 -44.5q0 -22 12.5 -34.5t36.5 -12.5zM373 293q0 37 -7.5 71.5t-22.5 60t-38 41t-54 15.5q-59 0 -93 -45.5t-42 -142.5h257z" />
    <glyph glyph-name="Ecaron" unicode="&#x11a;" horiz-adv-x="607" 
d="M239 12q36 0 79.5 1.5t87.5 6t86 14t77 25.5l-11 -59h-468v723h454l3 -54q-51 30 -116 36t-145 6h-111v-326h67q23 0 52.5 1.5t58 3.5t52 5t34.5 5v-40q-11 2 -34.5 4t-52 4t-58 3.5t-52.5 1.5h-67v-361h64zM436 902q11 8 21 16h14q-10 -10 -24.5 -25.5t-35.5 -40.5
q-12 -14 -24.5 -29.5t-22.5 -29.5q-11 -16 -22 -31h-30q-12 15 -23 31q-10 14 -22.5 29.5t-23.5 29.5q-22 25 -36 40.5t-25 25.5h15q10 -8 21 -16q9 -7 20 -14.5t20 -15.5l69 -56q3 3 11 9.5t18 14.5t20.5 17t19.5 15z" />
    <glyph glyph-name="ecaron" unicode="&#x11b;" horiz-adv-x="475" 
d="M258 493q49 0 85 -18.5t59.5 -48.5t35 -68t12.5 -77h-334q0 -87 15 -140t37.5 -81.5t50.5 -37.5t54 -9q47 0 87.5 22.5t74.5 76.5l10 -7q-29 -50 -74 -83t-117 -33q-34 0 -72.5 12t-71 40.5t-54 76.5t-21.5 120q0 58 15.5 105t44 80.5t70 51.5t93.5 18zM373 293
q0 37 -7.5 71.5t-22.5 60t-38 41t-54 15.5q-59 0 -93 -45.5t-42 -142.5h257zM362 705q11 8 21 16h14q-10 -10 -24.5 -25.5t-35.5 -40.5q-12 -14 -24.5 -29.5t-22.5 -29.5q-11 -16 -22 -31h-30q-12 15 -23 31q-10 14 -22.5 29.5t-23.5 29.5q-22 25 -36 40.5t-25 25.5h15
q10 -8 21 -16q9 -7 20 -14.5t20 -15.5l69 -56q3 3 11 9.5t18 14.5t20.5 17t19.5 15z" />
    <glyph glyph-name="Gbreve" unicode="&#x11e;" horiz-adv-x="789" 
d="M709 85q-51 -44 -125.5 -71.5t-154.5 -27.5q-101 0 -172 32t-115.5 84t-65 119t-20.5 136q0 82 28.5 152t79 121t120 80t152.5 29q43 0 102.5 -10.5t124.5 -42.5l-6 -56q-15 18 -36.5 35t-50 31t-63.5 22.5t-75 8.5q-61 0 -112.5 -25t-89.5 -72t-59.5 -116.5
t-21.5 -157.5q0 -102 26.5 -170.5t67.5 -110t90 -59.5t95 -18q45 0 79 9t57.5 21t38 24t21.5 18v277h85v-262zM437 778q-28 0 -53.5 7.5t-46.5 23t-35 38.5t-18 53h14q7 -22 21.5 -36.5t33 -23.5t40.5 -12.5t44 -3.5t44 3.5t41 12.5t33.5 23.5t21.5 36.5h13q-4 -30 -18 -53
t-34.5 -38.5t-46.5 -23t-54 -7.5z" />
    <glyph glyph-name="gbreve" unicode="&#x11f;" horiz-adv-x="526" 
d="M372 472q5 12 12 26t15 28q29 50 80 50q14 0 26.5 -4.5t20.5 -8.5l-6 -33q-9 8 -22.5 17.5t-30.5 9.5q-14 0 -28 -6.5t-27 -26.5q-8 -11 -15.5 -28.5t-11.5 -28.5q21 -10 38.5 -22t30.5 -28t20.5 -36.5t7.5 -46.5q0 -50 -22.5 -83t-56 -52t-72 -26.5t-70.5 -7.5h-19
q-16 0 -34.5 -1t-32.5 -3q-23 -4 -32 -15.5t-9 -22.5q0 -15 9.5 -25t24.5 -17t32.5 -11t33.5 -7l87 -16q34 -6 68 -16t61 -26t43.5 -38.5t16.5 -54.5q0 -26 -10.5 -51.5t-38.5 -46t-76.5 -33.5t-123.5 -13q-79 0 -128 12.5t-76.5 31.5t-37 41.5t-9.5 42.5t7 39t24 36t44 30
t68 21q-27 9 -46.5 27.5t-19.5 48.5q0 29 21 50.5t67 26.5q-62 20 -96 62t-34 97q0 75 59 117t159 42q28 0 56 -5t53 -16zM401 332q0 44 -11.5 72.5t-31 45.5t-45.5 24t-54 7q-42 0 -68 -15t-40.5 -38t-19.5 -51t-5 -53q0 -13 4 -37.5t18 -49t40.5 -42.5t71.5 -18
q36 0 63 13t44 35t25.5 49.5t8.5 57.5zM454 -111q0 13 -6.5 27.5t-22 28.5t-41.5 25.5t-64 18.5q-37 7 -73.5 13.5t-72.5 12.5q-22 -5 -42.5 -15.5t-36 -24.5t-24.5 -32.5t-9 -39.5q0 -26 10 -48.5t33 -39t62 -26t98 -9.5q97 0 143 30.5t46 78.5zM274 555q-33 0 -60.5 12
t-47.5 32.5t-31.5 47t-14.5 56.5h12q13 -44 50.5 -73t91.5 -29t91.5 29t49.5 73h13q-3 -30 -14.5 -56.5t-31.5 -47t-47.5 -32.5t-60.5 -12z" />
    <glyph glyph-name="Gdotaccent" unicode="&#x120;" horiz-adv-x="789" 
d="M709 85q-51 -44 -125.5 -71.5t-154.5 -27.5q-101 0 -172 32t-115.5 84t-65 119t-20.5 136q0 82 28.5 152t79 121t120 80t152.5 29q43 0 102.5 -10.5t124.5 -42.5l-6 -56q-15 18 -36.5 35t-50 31t-63.5 22.5t-75 8.5q-61 0 -112.5 -25t-89.5 -72t-59.5 -116.5
t-21.5 -157.5q0 -102 26.5 -170.5t67.5 -110t90 -59.5t95 -18q45 0 79 9t57.5 21t38 24t21.5 18v277h85v-262zM480 812q0 -20 -13.5 -35t-36.5 -15t-36.5 15t-13.5 35t13.5 35t36.5 15t36.5 -15t13.5 -35z" />
    <glyph glyph-name="gdotaccent" unicode="&#x121;" horiz-adv-x="526" 
d="M372 472q5 12 12 26t15 28q29 50 80 50q14 0 26.5 -4.5t20.5 -8.5l-6 -33q-9 8 -22.5 17.5t-30.5 9.5q-14 0 -28 -6.5t-27 -26.5q-8 -11 -15.5 -28.5t-11.5 -28.5q21 -10 38.5 -22t30.5 -28t20.5 -36.5t7.5 -46.5q0 -50 -22.5 -83t-56 -52t-72 -26.5t-70.5 -7.5h-19
q-16 0 -34.5 -1t-32.5 -3q-23 -4 -32 -15.5t-9 -22.5q0 -15 9.5 -25t24.5 -17t32.5 -11t33.5 -7l87 -16q34 -6 68 -16t61 -26t43.5 -38.5t16.5 -54.5q0 -26 -10.5 -51.5t-38.5 -46t-76.5 -33.5t-123.5 -13q-79 0 -128 12.5t-76.5 31.5t-37 41.5t-9.5 42.5t7 39t24 36t44 30
t68 21q-27 9 -46.5 27.5t-19.5 48.5q0 29 21 50.5t67 26.5q-62 20 -96 62t-34 97q0 75 59 117t159 42q28 0 56 -5t53 -16zM401 332q0 44 -11.5 72.5t-31 45.5t-45.5 24t-54 7q-42 0 -68 -15t-40.5 -38t-19.5 -51t-5 -53q0 -13 4 -37.5t18 -49t40.5 -42.5t71.5 -18
q36 0 63 13t44 35t25.5 49.5t8.5 57.5zM454 -111q0 13 -6.5 27.5t-22 28.5t-41.5 25.5t-64 18.5q-37 7 -73.5 13.5t-72.5 12.5q-22 -5 -42.5 -15.5t-36 -24.5t-24.5 -32.5t-9 -39.5q0 -26 10 -48.5t33 -39t62 -26t98 -9.5q97 0 143 30.5t46 78.5zM318 637q0 -20 -13.5 -35
t-36.5 -15t-36.5 15t-13.5 35t13.5 35t36.5 15t36.5 -15t13.5 -35z" />
    <glyph glyph-name="Gcommaaccent" unicode="&#x122;" horiz-adv-x="789" 
d="M709 85q-51 -44 -125.5 -71.5t-154.5 -27.5q-101 0 -172 32t-115.5 84t-65 119t-20.5 136q0 82 28.5 152t79 121t120 80t152.5 29q43 0 102.5 -10.5t124.5 -42.5l-6 -56q-15 18 -36.5 35t-50 31t-63.5 22.5t-75 8.5q-61 0 -112.5 -25t-89.5 -72t-59.5 -116.5
t-21.5 -157.5q0 -102 26.5 -170.5t67.5 -110t90 -59.5t95 -18q45 0 79 9t57.5 21t38 24t21.5 18v277h85v-262zM484 -160q0 -53 -28 -105t-68 -88l-9 9q32 33 47 63.5t15 53.5q0 21 -9.5 29.5t-25.5 19.5q-14 9 -22.5 19.5t-8.5 26.5q0 19 14 32t37 13q24 0 41 -18t17 -55z
" />
    <glyph glyph-name="gcommaaccent" unicode="&#x123;" horiz-adv-x="526" 
d="M372 472q5 12 12 26t15 28q29 50 80 50q14 0 26.5 -4.5t20.5 -8.5l-6 -33q-9 8 -22.5 17.5t-30.5 9.5q-14 0 -28 -6.5t-27 -26.5q-8 -11 -15.5 -28.5t-11.5 -28.5q21 -10 38.5 -22t30.5 -28t20.5 -36.5t7.5 -46.5q0 -50 -22.5 -83t-56 -52t-72 -26.5t-70.5 -7.5h-19
q-16 0 -34.5 -1t-32.5 -3q-23 -4 -32 -15.5t-9 -22.5q0 -15 9.5 -25t24.5 -17t32.5 -11t33.5 -7l87 -16q34 -6 68 -16t61 -26t43.5 -38.5t16.5 -54.5q0 -26 -10.5 -51.5t-38.5 -46t-76.5 -33.5t-123.5 -13q-79 0 -128 12.5t-76.5 31.5t-37 41.5t-9.5 42.5t7 39t24 36t44 30
t68 21q-27 9 -46.5 27.5t-19.5 48.5q0 29 21 50.5t67 26.5q-62 20 -96 62t-34 97q0 75 59 117t159 42q28 0 56 -5t53 -16zM401 332q0 44 -11.5 72.5t-31 45.5t-45.5 24t-54 7q-42 0 -68 -15t-40.5 -38t-19.5 -51t-5 -53q0 -13 4 -37.5t18 -49t40.5 -42.5t71.5 -18
q36 0 63 13t44 35t25.5 49.5t8.5 57.5zM454 -111q0 13 -6.5 27.5t-22 28.5t-41.5 25.5t-64 18.5q-37 7 -73.5 13.5t-72.5 12.5q-22 -5 -42.5 -15.5t-36 -24.5t-24.5 -32.5t-9 -39.5q0 -26 10 -48.5t33 -39t62 -26t98 -9.5q97 0 143 30.5t46 78.5zM214.019 640.981
q0 41.9951 20.9971 82.4902q20.998 40.4951 49.9941 72.4912l8.99902 -8q-20.998 -23.9961 -31.4961 -50.4932q-10.499 -26.4971 -10.499 -43.4951q0 -15.998 12.498 -22.4971q12.499 -6.49902 26.4971 -15.498q10.999 -6.99902 16.498 -15.998t5.49902 -23.9971
q0 -16.998 -11.998 -28.9961q-11.999 -11.999 -32.9961 -11.999q-22.9971 0 -38.4951 16.498t-15.498 49.4941z" />
    <glyph glyph-name="Hbar" unicode="&#x126;" horiz-adv-x="770" 
d="M585 0v368h-400v-368h-85v545h-100v12h100v166h85v-166h400v166h85v-166h100v-12h-100v-545h-85zM585 380v165h-400v-165h400z" />
    <glyph glyph-name="hbar" unicode="&#x127;" horiz-adv-x="517" 
d="M447 0h-69v324q0 52 -11 81t-28.5 43.5t-37.5 17.5t-38 3q-29 0 -62.5 -14t-61.5 -31v-424h-69v599h-73v16h73v148l69 23v-171h239v-16h-239v-161q45 32 84 43.5t69 11.5q55 0 86 -17.5t46.5 -44.5t19 -60t3.5 -63v-308z" />
    <glyph glyph-name="Imacron" unicode="&#x12a;" horiz-adv-x="265" 
d="M175 0h-85v723h85v-723zM-12 783v16h291v-16h-291z" />
    <glyph glyph-name="imacron" unicode="&#x12b;" horiz-adv-x="209" 
d="M70 0v472l69 23v-495h-69zM-40 575v16h291v-16h-291z" />
    <glyph glyph-name="Iogonek" unicode="&#x12e;" horiz-adv-x="265" 
d="M175 0h-30q-14 -21 -21.5 -44t-7.5 -46q0 -25 14.5 -41t43.5 -16q22 0 44.5 12t41.5 28l8 -9q-29 -27 -59 -43.5t-68 -16.5q-35 0 -54 19t-19 48q0 27 16 55.5t41 53.5h-35v723h85v-723z" />
    <glyph glyph-name="iogonek" unicode="&#x12f;" horiz-adv-x="209" 
d="M114 0q-11 -17 -17.5 -36.5t-6.5 -39.5q0 -22 12.5 -34.5t36.5 -12.5q18 0 38 10.5t35 24.5l8 -9q-23 -23 -48.5 -37.5t-57.5 -14.5q-31 0 -47 16.5t-16 41.5q0 23 12 46.5t32 44.5h-25v472l69 23v-495h-25zM154 637q0 -20 -13.5 -35t-36.5 -15t-36.5 15t-13.5 35
t13.5 35t36.5 15t36.5 -15t13.5 -35z" />
    <glyph glyph-name="Idotaccent" unicode="&#x130;" horiz-adv-x="265" 
d="M175 0h-85v723h85v-723zM183 812q0 -20 -13.5 -35t-36.5 -15t-36.5 15t-13.5 35t13.5 35t36.5 15t36.5 -15t13.5 -35z" />
    <glyph glyph-name="dotlessi" unicode="&#x131;" horiz-adv-x="209" 
d="M70 0v472l69 23v-495h-69z" />
    <glyph glyph-name="Kcommaaccent" unicode="&#x136;" horiz-adv-x="659" 
d="M175 0h-85v723h85v-723zM272 425l383 -425h-111l-340 380l163 152q33 31 65 62.5t57.5 58t43.5 45.5t23 25h44q-6 -5 -26 -22.5t-44 -39t-47 -42.5t-35 -31zM417 -160q0 -53 -28 -105t-68 -88l-9 9q32 33 47 63.5t15 53.5q0 21 -9.5 29.5t-25.5 19.5q-14 9 -22.5 19.5
t-8.5 26.5q0 19 14 32t37 13q24 0 41 -18t17 -55z" />
    <glyph glyph-name="kcommaaccent" unicode="&#x137;" horiz-adv-x="485" 
d="M139 786v-611q66 74 132 149t125 157h36l-172 -189q22 -29 51.5 -67.5t61 -79t61 -79t51.5 -66.5h-81l-186 245l-79 -86v-159h-69v763zM320 -153q0 -42 -21 -82.5t-50 -72.5l-9 8q21 24 31.5 50.5t10.5 43.5q0 16 -12.5 22.5t-26.5 15.5q-11 7 -16.5 16t-5.5 24
q0 17 12 29t33 12q23 0 38.5 -16.5t15.5 -49.5z" />
    <glyph glyph-name="Lacute" unicode="&#x139;" horiz-adv-x="582" 
d="M231 12q36 0 79.5 1.5t88 6t86.5 14t77 25.5l-11 -59h-461v723h85v-711h56zM319 905q0 -13 -14 -25t-28 -21q-18 -12 -44 -27.5t-49 -29.5q-27 -17 -56 -33h-24l133 131q22 21 32.5 27t23.5 6q26 0 26 -28z" />
    <glyph glyph-name="lacute" unicode="&#x13a;" horiz-adv-x="209" 
d="M139 786v-786h-69v763zM271 940q0 -13 -14 -25t-28 -21q-18 -12 -44 -27.5t-49 -29.5q-27 -17 -56 -33h-24l133 131q22 21 32.5 27t23.5 6q26 0 26 -28z" />
    <glyph glyph-name="Lcommaaccent" unicode="&#x13b;" horiz-adv-x="582" 
d="M231 12q36 0 79.5 1.5t88 6t86.5 14t77 25.5l-11 -59h-461v723h85v-711h56zM386 -160q0 -53 -28 -105t-68 -88l-9 9q32 33 47 63.5t15 53.5q0 21 -9.5 29.5t-25.5 19.5q-14 9 -22.5 19.5t-8.5 26.5q0 19 14 32t37 13q24 0 41 -18t17 -55z" />
    <glyph glyph-name="lcommaaccent" unicode="&#x13c;" horiz-adv-x="209" 
d="M139 786v-786h-69v763zM157 -153q0 -42 -21 -82.5t-50 -72.5l-9 8q21 24 31.5 50.5t10.5 43.5q0 16 -12.5 22.5t-26.5 15.5q-11 7 -16.5 16t-5.5 24q0 17 12 29t33 12q23 0 38.5 -16.5t15.5 -49.5z" />
    <glyph glyph-name="Lcaron" unicode="&#x13d;" horiz-adv-x="582" 
d="M231 12q36 0 79.5 1.5t88 6t86.5 14t77 25.5l-11 -59h-461v723h85v-711h56zM463 670q0 -42 -21 -82.5t-50 -72.5l-9 8q21 24 31.5 50.5t10.5 43.5q0 16 -12.5 22.5t-26.5 15.5q-11 7 -16.5 16t-5.5 24q0 17 12 29t33 12q23 0 38.5 -16.5t15.5 -49.5z" />
    <glyph glyph-name="lcaron" unicode="&#x13e;" horiz-adv-x="266" 
d="M139 786v-786h-69v763zM206 525q14 23 26 55.5t12 66.5q0 30 -9 51t-20 35l5 12h62q5 -16 6.5 -29.5t1.5 -23.5q0 -51 -21 -93t-53 -81z" />
    <glyph glyph-name="Ldot" unicode="&#x13f;" horiz-adv-x="582" 
d="M231 12q36 0 79.5 1.5t88 6t86.5 14t77 25.5l-11 -59h-461v723h85v-711h56zM455 368q0 -20 -13.5 -35t-36.5 -15t-36.5 15t-13.5 35t13.5 35t36.5 15t36.5 -15t13.5 -35z" />
    <glyph glyph-name="ldot" unicode="&#x140;" horiz-adv-x="336" 
d="M139 786v-786h-69v763zM316 383q0 -20 -13.5 -35t-36.5 -15t-36.5 15t-13.5 35t13.5 35t36.5 15t36.5 -15t13.5 -35z" />
    <glyph glyph-name="Lslash" unicode="&#x141;" horiz-adv-x="586" 
d="M235 12q36 0 79.5 1.5t88 6t86.5 14t77 25.5l-11 -59h-461v298l-93 -78l-11 14l104 87v402h85v-331l154 129l11 -14l-165 -138v-357h56z" />
    <glyph glyph-name="lslash" unicode="&#x142;" horiz-adv-x="213" 
d="M141 786v-413l90 75l10 -12l-100 -84v-352h-69v295l-90 -75l-10 13l100 83v447z" />
    <glyph glyph-name="Nacute" unicode="&#x143;" horiz-adv-x="729" 
d="M611 499q0 21 -0.5 50.5t-2 61t-3.5 61.5t-6 51h40q-4 -19 -7 -47.5t-4.5 -63t-2 -71.5t-0.5 -72v-483h-13l-488 606v-347q0 -75 2.5 -137t10.5 -108h-40q6 23 8.5 57.5t3.5 70.5t1 67.5v49.5v364q-21 27 -45.5 57t-44.5 57h106l485 -607v383v0zM528 905q0 -13 -14 -25
t-28 -21q-18 -12 -44 -27.5t-49 -29.5q-27 -17 -56 -33h-24l133 131q22 21 32.5 27t23.5 6q26 0 26 -28z" />
    <glyph glyph-name="nacute" unicode="&#x144;" horiz-adv-x="517" 
d="M378 0v324q0 52 -11 81t-28.5 43.5t-37.5 17.5t-38 3q-29 0 -62.5 -14t-61.5 -31v-424h-69v471l69 24v-57q45 32 84 43.5t69 11.5q55 0 86 -17.5t46.5 -44.5t19 -60t3.5 -63v-308h-69zM419 698q0 -13 -14 -25t-28 -21q-18 -12 -44 -27.5t-49 -29.5q-27 -17 -56 -33h-24
l133 131q22 21 32.5 27t23.5 6q26 0 26 -28z" />
    <glyph glyph-name="Ncommaaccent" unicode="&#x145;" horiz-adv-x="729" 
d="M611 499q0 21 -0.5 50.5t-2 61t-3.5 61.5t-6 51h40q-4 -19 -7 -47.5t-4.5 -63t-2 -71.5t-0.5 -72v-483h-13l-488 606v-347q0 -75 2.5 -137t10.5 -108h-40q6 23 8.5 57.5t3.5 70.5t1 67.5v49.5v364q-21 27 -45.5 57t-44.5 57h106l485 -607v383v0zM427 -160q0 -53 -28 -105
t-68 -88l-9 9q32 33 47 63.5t15 53.5q0 21 -9.5 29.5t-25.5 19.5q-14 9 -22.5 19.5t-8.5 26.5q0 19 14 32t37 13q24 0 41 -18t17 -55z" />
    <glyph glyph-name="ncommaaccent" unicode="&#x146;" horiz-adv-x="517" 
d="M378 0v324q0 52 -11 81t-28.5 43.5t-37.5 17.5t-38 3q-29 0 -62.5 -14t-61.5 -31v-424h-69v471l69 24v-57q45 32 84 43.5t69 11.5q55 0 86 -17.5t46.5 -44.5t19 -60t3.5 -63v-308h-69zM306 -153q0 -42 -21 -82.5t-50 -72.5l-9 8q21 24 31.5 50.5t10.5 43.5
q0 16 -12.5 22.5t-26.5 15.5q-11 7 -16.5 16t-5.5 24q0 17 12 29t33 12q23 0 38.5 -16.5t15.5 -49.5z" />
    <glyph glyph-name="Ncaron" unicode="&#x147;" horiz-adv-x="729" 
d="M611 499q0 21 -0.5 50.5t-2 61t-3.5 61.5t-6 51h40q-4 -19 -7 -47.5t-4.5 -63t-2 -71.5t-0.5 -72v-483h-13l-488 606v-347q0 -75 2.5 -137t10.5 -108h-40q6 23 8.5 57.5t3.5 70.5t1 67.5v49.5v364q-21 27 -45.5 57t-44.5 57h106l485 -607v383v0zM487 902q11 8 21 16h14
q-10 -10 -24.5 -25.5t-35.5 -40.5q-12 -14 -24.5 -29.5t-22.5 -29.5q-11 -16 -22 -31h-30q-12 15 -23 31q-10 14 -22.5 29.5t-23.5 29.5q-22 25 -36 40.5t-25 25.5h15q10 -8 21 -16q9 -7 20 -14.5t20 -15.5l69 -56q3 3 11 9.5t18 14.5t20.5 17t19.5 15z" />
    <glyph glyph-name="ncaron" unicode="&#x148;" horiz-adv-x="517" 
d="M378 0v324q0 52 -11 81t-28.5 43.5t-37.5 17.5t-38 3q-29 0 -62.5 -14t-61.5 -31v-424h-69v471l69 24v-57q45 32 84 43.5t69 11.5q55 0 86 -17.5t46.5 -44.5t19 -60t3.5 -63v-308h-69zM366 705q11 8 21 16h14q-10 -10 -24.5 -25.5t-35.5 -40.5q-12 -14 -24.5 -29.5
t-22.5 -29.5q-11 -16 -22 -31h-30q-12 15 -23 31q-10 14 -22.5 29.5t-23.5 29.5q-22 25 -36 40.5t-25 25.5h15q10 -8 21 -16q9 -7 20 -14.5t20 -15.5l69 -56q3 3 11 9.5t18 14.5t20.5 17t19.5 15z" />
    <glyph glyph-name="Omacron" unicode="&#x14c;" horiz-adv-x="862" 
d="M806 363q0 -37 -8 -79.5t-25.5 -84.5t-46 -80.5t-70.5 -68t-98 -47t-128 -17.5q-71 0 -127 17.5t-97.5 47t-70 68t-46 80.5t-25.5 84.5t-8 79.5q0 60 20 126t64 121.5t115.5 92t174.5 36.5q105 0 176.5 -34.5t116 -89t64 -121.5t19.5 -131zM713 363q0 78 -18.5 144.5
t-54 115.5t-88.5 76.5t-122 27.5q-68 0 -120.5 -26t-88 -73.5t-54 -115t-18.5 -149.5q0 -70 17.5 -135.5t53 -116.5t88 -82t122.5 -31q72 0 125 31t88 82t52.5 116.5t17.5 135.5zM286 783v16h291v-16h-291z" />
    <glyph glyph-name="omacron" unicode="&#x14d;" horiz-adv-x="548" 
d="M513 240q0 -57 -18 -103t-50 -79t-75.5 -51t-95.5 -18q-51 0 -95 17.5t-76 50.5t-50 79.5t-18 103.5q0 63 18 110.5t50 79t76 47.5t95 16q52 0 95.5 -15t75.5 -45.5t50 -78.5t18 -114zM432 240q0 69 -13.5 115.5t-35.5 74.5t-50.5 39.5t-58.5 11.5t-58.5 -11.5
t-50.5 -39.5t-35.5 -74.5t-13.5 -115.5t13.5 -115t35.5 -73.5t50.5 -39t58.5 -11.5t58.5 11.5t50.5 39t35.5 73.5t13.5 115zM129 575v16h291v-16h-291z" />
    <glyph glyph-name="Ohungarumlaut" unicode="&#x150;" horiz-adv-x="862" 
d="M806 363q0 -37 -8 -79.5t-25.5 -84.5t-46 -80.5t-70.5 -68t-98 -47t-128 -17.5q-71 0 -127 17.5t-97.5 47t-70 68t-46 80.5t-25.5 84.5t-8 79.5q0 60 20 126t64 121.5t115.5 92t174.5 36.5q105 0 176.5 -34.5t116 -89t64 -121.5t19.5 -131zM713 363q0 78 -18.5 144.5
t-54 115.5t-88.5 76.5t-122 27.5q-68 0 -120.5 -26t-88 -73.5t-54 -115t-18.5 -149.5q0 -70 17.5 -135.5t53 -116.5t88 -82t122.5 -31q72 0 125 31t88 82t52.5 116.5t17.5 135.5zM513 905q0 -13 -14 -25t-28 -21q-18 -12 -44 -27.5t-49 -29.5q-27 -17 -56 -33h-24l133 131
q22 21 32.5 27t23.5 6q26 0 26 -28zM684 905q0 -13 -14 -25t-28 -21q-18 -12 -44 -27.5t-49 -29.5q-27 -17 -56 -33h-24l133 131q22 21 32.5 27t23.5 6q26 0 26 -28z" />
    <glyph glyph-name="ohungarumlaut" unicode="&#x151;" horiz-adv-x="548" 
d="M513 240q0 -57 -18 -103t-50 -79t-75.5 -51t-95.5 -18q-51 0 -95 17.5t-76 50.5t-50 79.5t-18 103.5q0 63 18 110.5t50 79t76 47.5t95 16q52 0 95.5 -15t75.5 -45.5t50 -78.5t18 -114zM432 240q0 69 -13.5 115.5t-35.5 74.5t-50.5 39.5t-58.5 11.5t-58.5 -11.5
t-50.5 -39.5t-35.5 -74.5t-13.5 -115.5t13.5 -115t35.5 -73.5t50.5 -39t58.5 -11.5t58.5 11.5t50.5 39t35.5 73.5t13.5 115zM373 698q0 -13 -14 -25t-28 -21q-18 -12 -44 -27.5t-49 -29.5q-27 -17 -56 -33h-24l133 131q22 21 32.5 27t23.5 6q26 0 26 -28zM547 698
q0 -13 -14 -25t-28 -21q-18 -12 -44 -27.5t-49 -29.5q-27 -17 -56 -33h-24l133 131q22 21 32.5 27t23.5 6q26 0 26 -28z" />
    <glyph glyph-name="OE" unicode="&#x152;" horiz-adv-x="1154" 
d="M786 12q36 0 79.5 1.5t87.5 6t86 14t77 25.5l-11 -59h-434q-10 0 -26.5 -0.5t-34 -1.5t-34 -2.5l-27.5 -2.5q-36 -2 -68.5 -4.5t-50.5 -2.5q-72 0 -127.5 16t-97.5 44t-70 65t-46 79t-25.5 86t-7.5 87q0 60 18.5 126t61 121.5t112.5 92t174 36.5q42 0 80 -2.5t75 -5.5
q7 -1 24.5 -2t36.5 -2.5t36.5 -2.5t25.5 -1h391l3 -54q-51 30 -116 36t-145 6h-111v-326h67q23 0 52.5 1.5t58 3.5t52 5t34.5 5v-40q-11 2 -34.5 4t-52 4t-58 3.5t-52.5 1.5h-67v-361h64zM637 706q-38 6 -87 13.5t-111 7.5q-69 0 -123 -26t-91 -73.5t-56.5 -115
t-19.5 -149.5q0 -70 17.5 -135.5t52.5 -116.5t87.5 -82t123.5 -31q60 0 114.5 8t92.5 17v683z" />
    <glyph glyph-name="oe" unicode="&#x153;" horiz-adv-x="868" 
d="M655 493q49 0 84 -18.5t58 -48.5t34 -68t12 -77h-330q0 -87 15 -140t37.5 -81.5t50 -37.5t54.5 -9q47 0 85.5 22.5t73.5 76.5l10 -7q-29 -50 -73 -83t-115 -33q-24 0 -50 5t-50 18t-45 34t-36 53q-29 -51 -79.5 -80.5t-116.5 -29.5q-51 0 -95 17.5t-76 50.5t-50 79.5
t-18 103.5q0 63 18 110.5t50 79t76 47.5t95 16q68 0 119.5 -27.5t80.5 -81.5q28 51 74 80t107 29zM432 240q0 69 -13.5 115.5t-35.5 74.5t-50.5 39.5t-58.5 11.5t-58.5 -11.5t-50.5 -39.5t-35.5 -74.5t-13.5 -115.5t13.5 -115t35.5 -73.5t50.5 -39t58.5 -11.5t58.5 11.5
t50.5 39t35.5 73.5t13.5 115zM767 293q0 37 -7 71.5t-21.5 60t-37.5 41t-55 15.5q-57 0 -91.5 -45.5t-41.5 -142.5h254z" />
    <glyph glyph-name="Racute" unicode="&#x154;" horiz-adv-x="693" 
d="M637 10q10 0 17.5 6t12 15t7 19.5t2.5 20.5h12q0 -11 -2.5 -26t-11.5 -28t-26 -22t-46 -9q-32 0 -57.5 15t-47.5 42.5t-42 66.5t-40 86q-17 39 -41 72.5t-54.5 57t-66.5 36t-78 10.5v-372h-85v723h14q51 -1 108 5t107 6q87 0 140.5 -17t83.5 -43.5t40 -59t10 -62.5
q0 -47 -22 -83t-59.5 -60.5t-88 -37.5t-107.5 -13q82 -26 132 -73t79 -100q15 -26 29.5 -57.5t25.5 -56.5q4 -9 9 -19.5t12 -20t15 -15.5t19 -6zM500 547q0 88 -52 131.5t-140 43.5q-38 0 -74 -6t-59 -11v-321l53 -5q20 -2 41 -4t41 -2q43 0 78 13t60 36t38.5 55t13.5 70z
M484 905q0 -13 -14 -25t-28 -21q-18 -12 -44 -27.5t-49 -29.5q-27 -17 -56 -33h-24l133 131q22 21 32.5 27t23.5 6q26 0 26 -28z" />
    <glyph glyph-name="racute" unicode="&#x155;" horiz-adv-x="351" 
d="M139 495v-69q10 11 23.5 23t29.5 21.5t34.5 16t39.5 6.5q16 0 31.5 -2t33.5 -13l-8 -42q-17 19 -37 26t-34 7q-30 0 -57 -14t-56 -43v-412h-69v472zM348 698q0 -13 -14 -25t-28 -21q-18 -12 -44 -27.5t-49 -29.5q-27 -17 -56 -33h-24l133 131q22 21 32.5 27t23.5 6
q26 0 26 -28z" />
    <glyph glyph-name="Rcommaaccent" unicode="&#x156;" horiz-adv-x="693" 
d="M637 10q10 0 17.5 6t12 15t7 19.5t2.5 20.5h12q0 -11 -2.5 -26t-11.5 -28t-26 -22t-46 -9q-32 0 -57.5 15t-47.5 42.5t-42 66.5t-40 86q-17 39 -41 72.5t-54.5 57t-66.5 36t-78 10.5v-372h-85v723h14q51 -1 108 5t107 6q87 0 140.5 -17t83.5 -43.5t40 -59t10 -62.5
q0 -47 -22 -83t-59.5 -60.5t-88 -37.5t-107.5 -13q82 -26 132 -73t79 -100q15 -26 29.5 -57.5t25.5 -56.5q4 -9 9 -19.5t12 -20t15 -15.5t19 -6zM500 547q0 88 -52 131.5t-140 43.5q-38 0 -74 -6t-59 -11v-321l53 -5q20 -2 41 -4t41 -2q43 0 78 13t60 36t38.5 55t13.5 70z
M427 -160q0 -53 -28 -105t-68 -88l-9 9q32 33 47 63.5t15 53.5q0 21 -9.5 29.5t-25.5 19.5q-14 9 -22.5 19.5t-8.5 26.5q0 19 14 32t37 13q24 0 41 -18t17 -55z" />
    <glyph glyph-name="rcommaaccent" unicode="&#x157;" horiz-adv-x="351" 
d="M139 495v-69q10 11 23.5 23t29.5 21.5t34.5 16t39.5 6.5q16 0 31.5 -2t33.5 -13l-8 -42q-17 19 -37 26t-34 7q-30 0 -57 -14t-56 -43v-412h-69v472zM180 -153q0 -42 -21 -82.5t-50 -72.5l-9 8q21 24 31.5 50.5t10.5 43.5q0 16 -12.5 22.5t-26.5 15.5q-11 7 -16.5 16
t-5.5 24q0 17 12 29t33 12q23 0 38.5 -16.5t15.5 -49.5z" />
    <glyph glyph-name="Rcaron" unicode="&#x158;" horiz-adv-x="693" 
d="M637 10q10 0 17.5 6t12 15t7 19.5t2.5 20.5h12q0 -11 -2.5 -26t-11.5 -28t-26 -22t-46 -9q-32 0 -57.5 15t-47.5 42.5t-42 66.5t-40 86q-17 39 -41 72.5t-54.5 57t-66.5 36t-78 10.5v-372h-85v723h14q51 -1 108 5t107 6q87 0 140.5 -17t83.5 -43.5t40 -59t10 -62.5
q0 -47 -22 -83t-59.5 -60.5t-88 -37.5t-107.5 -13q82 -26 132 -73t79 -100q15 -26 29.5 -57.5t25.5 -56.5q4 -9 9 -19.5t12 -20t15 -15.5t19 -6zM500 547q0 88 -52 131.5t-140 43.5q-38 0 -74 -6t-59 -11v-321l53 -5q20 -2 41 -4t41 -2q43 0 78 13t60 36t38.5 55t13.5 70z
M418 902q11 8 21 16h14q-10 -10 -24.5 -25.5t-35.5 -40.5q-12 -14 -24.5 -29.5t-22.5 -29.5q-11 -16 -22 -31h-30q-12 15 -23 31q-10 14 -22.5 29.5t-23.5 29.5q-22 25 -36 40.5t-25 25.5h15q10 -8 21 -16q9 -7 20 -14.5t20 -15.5l69 -56q3 3 11 9.5t18 14.5t20.5 17
t19.5 15z" />
    <glyph glyph-name="rcaron" unicode="&#x159;" horiz-adv-x="351" 
d="M139 495v-69q10 11 23.5 23t29.5 21.5t34.5 16t39.5 6.5q16 0 31.5 -2t33.5 -13l-8 -42q-17 19 -37 26t-34 7q-30 0 -57 -14t-56 -43v-412h-69v472zM322 705q11 8 21 16h14q-10 -10 -24.5 -25.5t-35.5 -40.5q-12 -14 -24.5 -29.5t-22.5 -29.5q-11 -16 -22 -31h-30
q-12 15 -23 31q-10 14 -22.5 29.5t-23.5 29.5q-22 25 -36 40.5t-25 25.5h15q10 -8 21 -16q9 -7 20 -14.5t20 -15.5l69 -56q3 3 11 9.5t18 14.5t20.5 17t19.5 15z" />
    <glyph glyph-name="Sacute" unicode="&#x15a;" horiz-adv-x="576" 
d="M528 181q0 -39 -16 -74t-47 -62t-76 -43t-103 -16q-11 0 -34.5 1.5t-54.5 7.5t-67.5 17.5t-73.5 32.5l6 56q15 -19 36 -37.5t49 -33t62 -23.5t76 -9q45 0 77.5 11.5t53 31t30 44.5t9.5 52q0 33 -15.5 62.5t-41.5 55t-60.5 47.5t-71.5 41q-41 22 -78 44.5t-65.5 49
t-45.5 58.5t-17 73q0 33 12.5 64t38.5 55t67.5 38t100.5 14q60 0 108.5 -14t86.5 -35l-6 -56q-28 39 -74 66t-115 27q-43 0 -71 -10t-45 -25.5t-24 -36t-7 -41.5q0 -36 15 -64.5t40.5 -51.5t58.5 -42t70 -38q39 -21 77 -44t68 -51t48.5 -63t18.5 -79zM445 905q0 -13 -14 -25
t-28 -21q-18 -12 -44 -27.5t-49 -29.5q-27 -17 -56 -33h-24l133 131q22 21 32.5 27t23.5 6q26 0 26 -28z" />
    <glyph glyph-name="sacute" unicode="&#x15b;" horiz-adv-x="385" 
d="M365 132q0 -33 -15 -61t-40 -48q-20 -16 -50 -25t-63 -9q-27 0 -55 9.5t-51 26.5q-20 15 -36 36t-27 45l11 6q24 -44 60 -70q40 -29 98 -29q16 0 36 5t33 14q38 25 38 70q0 19 -8 34t-20.5 27t-27.5 21t-30 17l-70 38q-54 30 -78 58.5t-24 70.5q0 35 13.5 59t34.5 38.5
t46.5 21t48.5 6.5q34 0 68.5 -9.5t66.5 -28.5l-6 -48q-8 11 -19.5 24t-27.5 24t-36 18.5t-44 7.5q-21 0 -36 -6.5t-25 -17.5t-15 -25t-5 -28q0 -32 14 -49.5t31 -28.5q15 -9 34.5 -19t36.5 -18q30 -15 55 -30t44 -33t29.5 -41t10.5 -53zM353 698q0 -13 -14 -25t-28 -21
q-18 -12 -44 -27.5t-49 -29.5q-27 -17 -56 -33h-24l133 131q22 21 32.5 27t23.5 6q26 0 26 -28z" />
    <glyph glyph-name="Scedilla" unicode="&#x15e;" horiz-adv-x="576" 
d="M528 181q0 -39 -16 -74t-47 -62t-76 -43t-103 -16l-24 -58q14 5 26 7.5t29 2.5q16 0 32 -4t29.5 -13t22 -22.5t8.5 -32.5q0 -45 -39.5 -70.5t-97.5 -25.5q-49 0 -91 22l5 11q17 -10 39.5 -15.5t39.5 -5.5q21 0 35.5 7t24.5 18t14.5 24.5t4.5 25.5q0 28 -15.5 43t-43.5 15
q-7 0 -14.5 -1t-18.5 -5l-9 7l28 70q-15 1 -38.5 3.5t-52 9t-60.5 17.5t-64 29l6 56q15 -19 36 -37.5t49 -33t62 -23.5t76 -9q45 0 77.5 11.5t53 31t30 44.5t9.5 52q0 33 -15.5 62.5t-41.5 55t-60.5 47.5t-71.5 41q-41 22 -78 44.5t-65.5 49t-45.5 58.5t-17 73q0 33 12.5 64
t38.5 55t67.5 38t100.5 14q60 0 108.5 -14t86.5 -35l-6 -56q-28 39 -74 66t-115 27q-43 0 -71 -10t-45 -25.5t-24 -36t-7 -41.5q0 -36 15 -64.5t40.5 -51.5t58.5 -42t70 -38q39 -21 77 -44t68 -51t48.5 -63t18.5 -79z" />
    <glyph glyph-name="scedilla" unicode="&#x15f;" horiz-adv-x="385" 
d="M365 132q0 -33 -15 -61t-40 -48q-20 -16 -50 -25t-63 -9h-2l-22 -52q14 5 27.5 6t24.5 1q15 0 29.5 -3.5t26 -11t18.5 -19t7 -28.5q0 -20 -10 -35t-27 -26t-39.5 -16.5t-47.5 -5.5q-23 0 -45 4.5t-42 14.5l5 11q16 -8 37.5 -13t38.5 -5q21 0 35 5.5t22.5 14.5t12 20.5
t3.5 23.5q0 50 -54 50q-13 0 -32 -6l-8 7l26 64q-24 2 -47.5 11t-42.5 24q-20 15 -36 36t-27 45l11 6q24 -44 60 -70q40 -29 98 -29q16 0 36 5t33 14q38 25 38 70q0 19 -8 34t-20.5 27t-27.5 21t-30 17l-70 38q-54 30 -78 58.5t-24 70.5q0 35 13.5 59t34.5 38.5t46.5 21
t48.5 6.5q34 0 68.5 -9.5t66.5 -28.5l-6 -48q-8 11 -19.5 24t-27.5 24t-36 18.5t-44 7.5q-21 0 -36 -6.5t-25 -17.5t-15 -25t-5 -28q0 -32 14 -49.5t31 -28.5q15 -9 34.5 -19t36.5 -18q30 -15 55 -30t44 -33t29.5 -41t10.5 -53z" />
    <glyph glyph-name="Scaron" unicode="&#x160;" horiz-adv-x="576" 
d="M528 181q0 -39 -16 -74t-47 -62t-76 -43t-103 -16q-11 0 -34.5 1.5t-54.5 7.5t-67.5 17.5t-73.5 32.5l6 56q15 -19 36 -37.5t49 -33t62 -23.5t76 -9q45 0 77.5 11.5t53 31t30 44.5t9.5 52q0 33 -15.5 62.5t-41.5 55t-60.5 47.5t-71.5 41q-41 22 -78 44.5t-65.5 49
t-45.5 58.5t-17 73q0 33 12.5 64t38.5 55t67.5 38t100.5 14q60 0 108.5 -14t86.5 -35l-6 -56q-28 39 -74 66t-115 27q-43 0 -71 -10t-45 -25.5t-24 -36t-7 -41.5q0 -36 15 -64.5t40.5 -51.5t58.5 -42t70 -38q39 -21 77 -44t68 -51t48.5 -63t18.5 -79zM395 902q11 8 21 16h14
q-10 -10 -24.5 -25.5t-35.5 -40.5q-12 -14 -24.5 -29.5t-22.5 -29.5q-11 -16 -22 -31h-30q-12 15 -23 31q-10 14 -22.5 29.5t-23.5 29.5q-22 25 -36 40.5t-25 25.5h15q10 -8 21 -16q9 -7 20 -14.5t20 -15.5l69 -56q3 3 11 9.5t18 14.5t20.5 17t19.5 15z" />
    <glyph glyph-name="scaron" unicode="&#x161;" horiz-adv-x="385" 
d="M365 132q0 -33 -15 -61t-40 -48q-20 -16 -50 -25t-63 -9q-27 0 -55 9.5t-51 26.5q-20 15 -36 36t-27 45l11 6q24 -44 60 -70q40 -29 98 -29q16 0 36 5t33 14q38 25 38 70q0 19 -8 34t-20.5 27t-27.5 21t-30 17l-70 38q-54 30 -78 58.5t-24 70.5q0 35 13.5 59t34.5 38.5
t46.5 21t48.5 6.5q34 0 68.5 -9.5t66.5 -28.5l-6 -48q-8 11 -19.5 24t-27.5 24t-36 18.5t-44 7.5q-21 0 -36 -6.5t-25 -17.5t-15 -25t-5 -28q0 -32 14 -49.5t31 -28.5q15 -9 34.5 -19t36.5 -18q30 -15 55 -30t44 -33t29.5 -41t10.5 -53zM315 705q11 8 21 16h14
q-10 -10 -24.5 -25.5t-35.5 -40.5q-12 -14 -24.5 -29.5t-22.5 -29.5q-11 -16 -22 -31h-30q-12 15 -23 31q-10 14 -22.5 29.5t-23.5 29.5q-22 25 -36 40.5t-25 25.5h15q10 -8 21 -16q9 -7 20 -14.5t20 -15.5l69 -56q3 3 11 9.5t18 14.5t20.5 17t19.5 15z" />
    <glyph glyph-name="Tcedilla" unicode="&#x162;" horiz-adv-x="665" 
d="M322 -230q-49 0 -91 22l5 11q17 -10 39.5 -15.5t39.5 -5.5q21 0 35.5 7t24.5 18t14.5 24.5t4.5 25.5q0 28 -15.5 43t-43.5 15q-7 0 -14.5 -1t-18.5 -5l-9 7l33 84h-36v711h-67q-49 0 -83 -4t-58 -10.5t-39.5 -14t-26.5 -13.5l3 54h627l3 -54q-11 6 -26.5 13.5t-39 14
t-57.5 10.5t-83 4h-68v-711h-34l-29 -72q14 5 26 7.5t29 2.5q16 0 32 -4t29.5 -13t22 -22.5t8.5 -32.5q0 -45 -39.5 -70.5t-97.5 -25.5z" />
    <glyph glyph-name="tcedilla" unicode="&#x163;" horiz-adv-x="382" 
d="M232 -201q-23 0 -45 4.5t-42 14.5l5 11q16 -8 37.5 -13t38.5 -5q21 0 35 5.5t22.5 14.5t12 20.5t3.5 23.5q0 50 -54 50q-13 0 -32 -6l-8 7l28 64q-63 3 -95.5 40.5t-32.5 104.5v334h-100v12h30q36 6 60 28.5t38.5 53.5t21 67t6.5 70h13v-219h27q51 0 84.5 2.5t53.5 7.5
l5 -22h-170v-349q0 -31 7.5 -51.5t20 -33t28.5 -17.5t33 -5q12 0 27 4t31 15t31.5 29.5t28.5 48.5l11 -5q-8 -21 -20.5 -41.5t-30.5 -37t-41.5 -27t-53.5 -10.5l-23 -52q14 5 27.5 6t24.5 1q15 0 29.5 -3.5t26 -11t18.5 -19t7 -28.5q0 -20 -10 -35t-27 -26t-39.5 -16.5
t-47.5 -5.5z" />
    <glyph glyph-name="Tcaron" unicode="&#x164;" horiz-adv-x="665" 
d="M290 0v711h-67q-49 0 -83 -4t-58 -10.5t-39.5 -14t-26.5 -13.5l3 54h627l3 -54q-11 6 -26.5 13.5t-39 14t-57.5 10.5t-83 4h-68v-711h-85zM442 902q11 8 21 16h14q-10 -10 -24.5 -25.5t-35.5 -40.5q-12 -14 -24.5 -29.5t-22.5 -29.5q-11 -16 -22 -31h-30q-12 15 -23 31
q-10 14 -22.5 29.5t-23.5 29.5q-22 25 -36 40.5t-25 25.5h15q10 -8 21 -16q9 -7 20 -14.5t20 -15.5l69 -56q3 3 11 9.5t18 14.5t20.5 17t19.5 15z" />
    <glyph glyph-name="tcaron" unicode="&#x165;" horiz-adv-x="382" 
d="M263 13q12 0 27 4t31 15t31.5 29.5t28.5 48.5l11 -5q-8 -21 -20.5 -41.5t-30.5 -37t-42 -27t-54 -10.5q-69 0 -104.5 38t-35.5 108v334h-100v12h30q36 6 60 28.5t38.5 53.5t21 67t6.5 70h13v-219h27q51 0 84.5 2.5t53.5 7.5l5 -22h-170v-349q0 -31 7.5 -51.5t20 -33
t28.5 -17.5t33 -5zM248 525q14 23 26 55.5t12 66.5q0 30 -9 51t-20 35l5 12h62q5 -16 6.5 -29.5t1.5 -23.5q0 -51 -21 -93t-53 -81z" />
    <glyph glyph-name="Umacron" unicode="&#x16a;" horiz-adv-x="739" 
d="M633 498q0 60 -1 116t-9 109h36q-8 -54 -9 -110.5t-3 -123.5v-173q0 -70 -12.5 -129.5t-43 -103t-82 -68.5t-128.5 -25q-73 0 -123 15t-82.5 38.5t-49.5 53t-25 58.5t-9 55t-1 42v471h85v-488q0 -72 23 -116.5t55 -69.5t67.5 -34t60.5 -9q76 0 124.5 24.5t76.5 66.5
t39 98.5t11 120.5v182v0zM253 783v16h291v-16h-291z" />
    <glyph glyph-name="umacron" unicode="&#x16b;" horiz-adv-x="514" 
d="M375 0v54q-30 -24 -56.5 -37.5t-47.5 -19.5t-36.5 -7t-22.5 -1q-43 0 -70.5 14t-43.5 35.5t-22 48t-6 51.5v334l69 23v-359q0 -43 11.5 -67.5t28 -37t35.5 -15.5t35 -3q30 0 65 17t61 38v404l69 23v-495h-69zM120 575v16h291v-16h-291z" />
    <glyph glyph-name="Uring" unicode="&#x16e;" horiz-adv-x="739" 
d="M633 498q0 60 -1 116t-9 109h36q-8 -54 -9 -110.5t-3 -123.5v-173q0 -70 -12.5 -129.5t-43 -103t-82 -68.5t-128.5 -25q-73 0 -123 15t-82.5 38.5t-49.5 53t-25 58.5t-9 55t-1 42v471h85v-488q0 -72 23 -116.5t55 -69.5t67.5 -34t60.5 -9q76 0 124.5 24.5t76.5 66.5
t39 98.5t11 120.5v182v0zM311 831q0 36 25 61.5t61 25.5t61.5 -25.5t25.5 -61.5q0 -18 -7 -33.5t-18.5 -27t-27.5 -18.5t-34 -7t-33.5 7t-27.5 18.5t-18.5 27t-6.5 33.5zM327 831q0 -29 20.5 -49.5t49.5 -20.5q30 0 50.5 20.5t20.5 49.5t-20.5 50t-50.5 21q-29 0 -49.5 -21
t-20.5 -50z" />
    <glyph glyph-name="uring" unicode="&#x16f;" horiz-adv-x="514" 
d="M375 0v54q-30 -24 -56.5 -37.5t-47.5 -19.5t-36.5 -7t-22.5 -1q-43 0 -70.5 14t-43.5 35.5t-22 48t-6 51.5v334l69 23v-359q0 -43 11.5 -67.5t28 -37t35.5 -15.5t35 -3q30 0 65 17t61 38v404l69 23v-495h-69zM182 630q0 36 25 61.5t61 25.5t61.5 -25.5t25.5 -61.5
q0 -18 -7 -33.5t-18.5 -27t-27.5 -18.5t-34 -7t-33.5 7t-27.5 18.5t-18.5 27t-6.5 33.5zM198 630q0 -29 20.5 -49.5t49.5 -20.5q30 0 50.5 20.5t20.5 49.5t-20.5 50t-50.5 21q-29 0 -49.5 -21t-20.5 -50z" />
    <glyph glyph-name="Uhungarumlaut" unicode="&#x170;" horiz-adv-x="739" 
d="M633 498q0 60 -1 116t-9 109h36q-8 -54 -9 -110.5t-3 -123.5v-173q0 -70 -12.5 -129.5t-43 -103t-82 -68.5t-128.5 -25q-73 0 -123 15t-82.5 38.5t-49.5 53t-25 58.5t-9 55t-1 42v471h85v-488q0 -72 23 -116.5t55 -69.5t67.5 -34t60.5 -9q76 0 124.5 24.5t76.5 66.5
t39 98.5t11 120.5v182v0zM478 905q0 -13 -14 -25t-28 -21q-18 -12 -44 -27.5t-49 -29.5q-27 -17 -56 -33h-24l133 131q22 21 32.5 27t23.5 6q26 0 26 -28zM649 905q0 -13 -14 -25t-28 -21q-18 -12 -44 -27.5t-49 -29.5q-27 -17 -56 -33h-24l133 131q22 21 32.5 27t23.5 6
q26 0 26 -28z" />
    <glyph glyph-name="uhungarumlaut" unicode="&#x171;" horiz-adv-x="514" 
d="M375 0v54q-30 -24 -56.5 -37.5t-47.5 -19.5t-36.5 -7t-22.5 -1q-43 0 -70.5 14t-43.5 35.5t-22 48t-6 51.5v334l69 23v-359q0 -43 11.5 -67.5t28 -37t35.5 -15.5t35 -3q30 0 65 17t61 38v404l69 23v-495h-69zM328 698q0 -13 -14 -25t-28 -21q-18 -12 -44 -27.5t-49 -29.5
q-27 -17 -56 -33h-24l133 131q22 21 32.5 27t23.5 6q26 0 26 -28zM502 698q0 -13 -14 -25t-28 -21q-18 -12 -44 -27.5t-49 -29.5q-27 -17 -56 -33h-24l133 131q22 21 32.5 27t23.5 6q26 0 26 -28z" />
    <glyph glyph-name="Uogonek" unicode="&#x172;" horiz-adv-x="739" 
d="M633 498q0 60 -1 116t-9 109h36q-8 -54 -9 -110.5t-3 -123.5v-173q0 -68 -12 -126t-40.5 -101.5t-77 -69t-120.5 -28.5q-11 -20 -17 -40.5t-6 -40.5q0 -25 14.5 -41t43.5 -16q22 0 44.5 12t41.5 28l8 -9q-29 -27 -59 -43.5t-68 -16.5q-35 0 -54 19t-19 48q0 25 13.5 50.5
t34.5 48.5q-71 1 -120 16t-80.5 39t-48.5 53t-24.5 58t-8.5 54.5t-1 41.5v471h85v-488q0 -72 23 -116.5t55 -69.5t67.5 -34t60.5 -9q76 0 124.5 24.5t76.5 66.5t39 98.5t11 120.5v182v0z" />
    <glyph glyph-name="uogonek" unicode="&#x173;" horiz-adv-x="514" 
d="M394 0q-11 -17 -17.5 -36.5t-6.5 -39.5q0 -22 12.5 -34.5t36.5 -12.5q18 0 38 10.5t35 24.5l8 -9q-23 -23 -48.5 -37.5t-57.5 -14.5q-31 0 -47 16.5t-16 41.5q0 23 12 46.5t32 44.5v54q-30 -24 -56.5 -37.5t-47.5 -19.5t-36.5 -7t-22.5 -1q-43 0 -70.5 14t-43.5 35.5
t-22 48t-6 51.5v334l69 23v-359q0 -43 11.5 -67.5t28 -37t35.5 -15.5t35 -3q30 0 65 17t61 38v404l69 23v-495h-50z" />
    <glyph glyph-name="Ydieresis" unicode="&#x178;" horiz-adv-x="662" 
d="M370 316q44 74 70 118t41 69.5t22 37.5t13 23q15 27 28.5 52t25 46t19.5 36.5t12 24.5h36q-5 -7 -16.5 -24.5t-31 -48.5t-48 -78t-68.5 -113l-97 -160v-299h-85v291l-261 432h100zM315 812q0 -20 -13.5 -35t-36.5 -15t-36.5 15t-13.5 35t13.5 35t36.5 15t36.5 -15
t13.5 -35zM508 812q0 -20 -13.5 -35t-36.5 -15t-36.5 15t-13.5 35t13.5 35t36.5 15t36.5 -15t13.5 -35z" />
    <glyph glyph-name="Zacute" unicode="&#x179;" horiz-adv-x="595" 
d="M242 12q88 0 171.5 8.5t151.5 38.5l-12 -59h-528v15l438 696h-116q-70 0 -115 -2.5t-75 -8t-50 -13.5t-40 -18l3 54h493v-18l-440 -693h119zM488 905q0 -13 -14 -25t-28 -21q-18 -12 -44 -27.5t-49 -29.5q-27 -17 -56 -33h-24l133 131q22 21 32.5 27t23.5 6q26 0 26 -28z
" />
    <glyph glyph-name="zacute" unicode="&#x17a;" horiz-adv-x="417" 
d="M396 468l-304 -456h63q36 0 75 1t74 7q64 11 93 32l-9 -52h-378v15l307 454h-50q-29 0 -60.5 -0.5t-61.5 -3.5t-57 -10t-47 -20l3 46h352v-13zM378 698q0 -13 -14 -25t-28 -21q-18 -12 -44 -27.5t-49 -29.5q-27 -17 -56 -33h-24l133 131q22 21 32.5 27t23.5 6
q26 0 26 -28z" />
    <glyph glyph-name="Zdotaccent" unicode="&#x17b;" horiz-adv-x="595" 
d="M242 12q88 0 171.5 8.5t151.5 38.5l-12 -59h-528v15l438 696h-116q-70 0 -115 -2.5t-75 -8t-50 -13.5t-40 -18l3 54h493v-18l-440 -693h119zM370 812q0 -20 -13.5 -35t-36.5 -15t-36.5 15t-13.5 35t13.5 35t36.5 15t36.5 -15t13.5 -35z" />
    <glyph glyph-name="zdotaccent" unicode="&#x17c;" horiz-adv-x="417" 
d="M396 468l-304 -456h63q36 0 75 1t74 7q64 11 93 32l-9 -52h-378v15l307 454h-50q-29 0 -60.5 -0.5t-61.5 -3.5t-57 -10t-47 -20l3 46h352v-13zM272 637q0 -20 -13.5 -35t-36.5 -15t-36.5 15t-13.5 35t13.5 35t36.5 15t36.5 -15t13.5 -35z" />
    <glyph glyph-name="Zcaron" unicode="&#x17d;" horiz-adv-x="595" 
d="M242 12q88 0 171.5 8.5t151.5 38.5l-12 -59h-528v15l438 696h-116q-70 0 -115 -2.5t-75 -8t-50 -13.5t-40 -18l3 54h493v-18l-440 -693h119zM428 902q11 8 21 16h14q-10 -10 -24.5 -25.5t-35.5 -40.5q-12 -14 -24.5 -29.5t-22.5 -29.5q-11 -16 -22 -31h-30q-12 15 -23 31
q-10 14 -22.5 29.5t-23.5 29.5q-22 25 -36 40.5t-25 25.5h15q10 -8 21 -16q9 -7 20 -14.5t20 -15.5l69 -56q3 3 11 9.5t18 14.5t20.5 17t19.5 15z" />
    <glyph glyph-name="zcaron" unicode="&#x17e;" horiz-adv-x="417" 
d="M396 468l-304 -456h63q36 0 75 1t74 7q64 11 93 32l-9 -52h-378v15l307 454h-50q-29 0 -60.5 -0.5t-61.5 -3.5t-57 -10t-47 -20l3 46h352v-13zM324 705q11 8 21 16h14q-10 -10 -24.5 -25.5t-35.5 -40.5q-12 -14 -24.5 -29.5t-22.5 -29.5q-11 -16 -22 -31h-30
q-12 15 -23 31q-10 14 -22.5 29.5t-23.5 29.5q-22 25 -36 40.5t-25 25.5h15q10 -8 21 -16q9 -7 20 -14.5t20 -15.5l69 -56q3 3 11 9.5t18 14.5t20.5 17t19.5 15z" />
    <glyph glyph-name="Schwa" unicode="&#x18f;" horiz-adv-x="798" 
d="M56 374h593q0 75 -17.5 140t-51 112t-84.5 74t-119 27q-73 0 -133.5 -24t-106.5 -81l-6 56q41 20 80 32t73.5 18.5t63.5 8.5t49 2q101 0 167.5 -33t106 -84.5t55.5 -115.5t16 -126q0 -42 -6 -87.5t-21.5 -89.5t-41 -83t-64.5 -69t-93 -47.5t-126 -17.5
q-105 0 -170.5 36.5t-102 92t-49 120t-12.5 120.5v19zM391 -2q69 0 118 30.5t80 81.5t45.5 116.5t14.5 135.5h-500q0 -70 12 -135.5t40 -116.5t74.5 -81.5t115.5 -30.5z" />
    <glyph glyph-name="florin" unicode="&#x192;" 
d="M509 740q0 -24 -9 -48h-14q3 6 7 17.5t4 27.5q0 20 -16 33q-9 7 -18 8.5t-20 1.5q-57 0 -92 -49q-13 -17 -25 -45t-23 -70l-33 -126h105l-2 -12h-106l-195 -700h-60l196 700h-102l2 12h103q27 90 56 148t59 92.5t60 48t60 13.5q26 0 43 -14q20 -15 20 -38z" />
    <glyph glyph-name="eturn" unicode="&#x1dd;" horiz-adv-x="477" 
d="M218 493q38 0 78 -11.5t72.5 -39.5t53 -76t20.5 -120q0 -59 -15.5 -106t-44.5 -81t-70 -52t-93 -18q-50 0 -86.5 18t-60.5 51t-35.5 78.5t-11.5 100.5h336q0 88 -16 137.5t-38.5 73t-47 28.5t-42.5 5q-48 0 -85 -20.5t-63 -55.5l-6 46q40 23 80 32.5t75 9.5zM104 215
q0 -46 7 -85t22 -67.5t38 -45t55 -16.5q29 0 53.5 17.5t42.5 47.5t28.5 71t10.5 88h-257v-10z" />
    <glyph glyph-name="Scommaaccent" unicode="&#x218;" horiz-adv-x="576" 
d="M528 181q0 -39 -16 -74t-47 -62t-76 -43t-103 -16q-11 0 -34.5 1.5t-54.5 7.5t-67.5 17.5t-73.5 32.5l6 56q15 -19 36 -37.5t49 -33t62 -23.5t76 -9q45 0 77.5 11.5t53 31t30 44.5t9.5 52q0 33 -15.5 62.5t-41.5 55t-60.5 47.5t-71.5 41q-41 22 -78 44.5t-65.5 49
t-45.5 58.5t-17 73q0 33 12.5 64t38.5 55t67.5 38t100.5 14q60 0 108.5 -14t86.5 -35l-6 -56q-28 39 -74 66t-115 27q-43 0 -71 -10t-45 -25.5t-24 -36t-7 -41.5q0 -36 15 -64.5t40.5 -51.5t58.5 -42t70 -38q39 -21 77 -44t68 -51t48.5 -63t18.5 -79zM352 -160
q0 -53 -28 -105t-68 -88l-9 9q32 33 47 63.5t15 53.5q0 21 -9.5 29.5t-25.5 19.5q-14 9 -22.5 19.5t-8.5 26.5q0 19 14 32t37 13q24 0 41 -18t17 -55z" />
    <glyph glyph-name="scommaaccent" unicode="&#x219;" horiz-adv-x="385" 
d="M365 132q0 -33 -15 -61t-40 -48q-20 -16 -50 -25t-63 -9q-27 0 -55 9.5t-51 26.5q-20 15 -36 36t-27 45l11 6q24 -44 60 -70q40 -29 98 -29q16 0 36 5t33 14q38 25 38 70q0 19 -8 34t-20.5 27t-27.5 21t-30 17l-70 38q-54 30 -78 58.5t-24 70.5q0 35 13.5 59t34.5 38.5
t46.5 21t48.5 6.5q34 0 68.5 -9.5t66.5 -28.5l-6 -48q-8 11 -19.5 24t-27.5 24t-36 18.5t-44 7.5q-21 0 -36 -6.5t-25 -17.5t-15 -25t-5 -28q0 -32 14 -49.5t31 -28.5q15 -9 34.5 -19t36.5 -18q30 -15 55 -30t44 -33t29.5 -41t10.5 -53zM257 -153q0 -42 -21 -82.5t-50 -72.5
l-9 8q21 24 31.5 50.5t10.5 43.5q0 16 -12.5 22.5t-26.5 15.5q-11 7 -16.5 16t-5.5 24q0 17 12 29t33 12q23 0 38.5 -16.5t15.5 -49.5z" />
    <glyph glyph-name="Tcommaaccent" unicode="&#x21a;" horiz-adv-x="665" 
d="M290 0v711h-67q-49 0 -83 -4t-58 -10.5t-39.5 -14t-26.5 -13.5l3 54h627l3 -54q-11 6 -26.5 13.5t-39 14t-57.5 10.5t-83 4h-68v-711h-85zM389 -160q0 -53 -28 -105t-68 -88l-9 9q32 33 47 63.5t15 53.5q0 21 -9.5 29.5t-25.5 19.5q-14 9 -22.5 19.5t-8.5 26.5
q0 19 14 32t37 13q24 0 41 -18t17 -55z" />
    <glyph glyph-name="tcommaaccent" unicode="&#x21b;" horiz-adv-x="382" 
d="M263 13q12 0 27 4t31 15t31.5 29.5t28.5 48.5l11 -5q-8 -21 -20.5 -41.5t-30.5 -37t-42 -27t-54 -10.5q-69 0 -104.5 38t-35.5 108v334h-100v12h30q36 6 60 28.5t38.5 53.5t21 67t6.5 70h13v-219h27q51 0 84.5 2.5t53.5 7.5l5 -22h-170v-349q0 -31 7.5 -51.5t20 -33
t28.5 -17.5t33 -5zM291 -153q0 -42 -21 -82.5t-50 -72.5l-9 8q21 24 31.5 50.5t10.5 43.5q0 16 -12.5 22.5t-26.5 15.5q-11 7 -16.5 16t-5.5 24q0 17 12 29t33 12q23 0 38.5 -16.5t15.5 -49.5z" />
    <glyph glyph-name="schwa" unicode="&#x259;" horiz-adv-x="477" 
d="M218 493q38 0 78 -11.5t72.5 -39.5t53 -76t20.5 -120q0 -59 -15.5 -106t-44.5 -81t-70 -52t-93 -18q-50 0 -86.5 18t-60.5 51t-35.5 78.5t-11.5 100.5h336q0 88 -16 137.5t-38.5 73t-47 28.5t-42.5 5q-48 0 -85 -20.5t-63 -55.5l-6 46q40 23 80 32.5t75 9.5zM104 215
q0 -46 7 -85t22 -67.5t38 -45t55 -16.5q29 0 53.5 17.5t42.5 47.5t28.5 71t10.5 88h-257v-10z" />
    <glyph glyph-name="afii57929" unicode="&#x2bc;" horiz-adv-x="224" 
d="M69 525q14 23 26 55.5t12 66.5q0 30 -9 51t-20 35l5 12h62q5 -16 6.5 -29.5t1.5 -23.5q0 -51 -21 -93t-53 -81z" />
    <glyph glyph-name="circumflex" unicode="&#x2c6;" horiz-adv-x="419" 
d="M279 601q-9 6 -19.5 14.5t-20.5 17t-18 15t-11 9.5l-69 -56q-9 -8 -20 -16t-20 -15q-11 -8 -21 -15h-15q11 10 25 25.5t36 40.5q11 14 23.5 29t22.5 29q11 16 23 32h30l22 -32q10 -14 22.5 -29t24.5 -29q21 -25 35.5 -40.5t24.5 -25.5h-14q-10 8 -21 16q-9 7 -20 14.5
t-20 15.5z" />
    <glyph glyph-name="caron" unicode="&#x2c7;" horiz-adv-x="419" 
d="M319 705q11 8 21 16h14q-10 -10 -24.5 -25.5t-35.5 -40.5q-12 -14 -24.5 -29.5t-22.5 -29.5q-11 -16 -22 -31h-30q-12 15 -23 31q-10 14 -22.5 29.5t-23.5 29.5q-22 25 -36 40.5t-25 25.5h15q10 -8 21 -16q9 -7 20 -14.5t20 -15.5l69 -56q3 3 11 9.5t18 14.5t20.5 17
t19.5 15z" />
    <glyph glyph-name="breve" unicode="&#x2d8;" horiz-adv-x="416" 
d="M208 555q-33 0 -60.5 12t-47.5 32.5t-31.5 47t-14.5 56.5h12q13 -44 50.5 -73t91.5 -29t91.5 29t49.5 73h13q-3 -30 -14.5 -56.5t-31.5 -47t-47.5 -32.5t-60.5 -12z" />
    <glyph glyph-name="dotaccent" unicode="&#x2d9;" horiz-adv-x="194" 
d="M147 637q0 -20 -13.5 -35t-36.5 -15t-36.5 15t-13.5 35t13.5 35t36.5 15t36.5 -15t13.5 -35z" />
    <glyph glyph-name="ring" unicode="&#x2da;" horiz-adv-x="307" 
d="M67 630q0 36 25 61.5t61 25.5t61.5 -25.5t25.5 -61.5q0 -18 -7 -33.5t-18.5 -27t-27.5 -18.5t-34 -7t-33.5 7t-27.5 18.5t-18.5 27t-6.5 33.5zM83 630q0 -29 20.5 -49.5t49.5 -20.5q30 0 50.5 20.5t20.5 49.5t-20.5 50t-50.5 21q-29 0 -49.5 -21t-20.5 -50z" />
    <glyph glyph-name="ogonek" unicode="&#x2db;" horiz-adv-x="266" 
d="M136 -123q18 0 38 10.5t35 24.5l8 -9q-23 -23 -48.5 -37.5t-57.5 -14.5q-31 0 -47 16.5t-16 41.5q0 27 17.5 55.5t43.5 51.5h13q-15 -20 -25 -43.5t-10 -48.5q0 -22 12.5 -34.5t36.5 -12.5z" />
    <glyph glyph-name="tilde" unicode="&#x2dc;" horiz-adv-x="404" 
d="M215 538q17 -10 38 -20t38 -10q22 0 45.5 10t47.5 40l10 -8q-20 -35 -49.5 -60.5t-70.5 -25.5q-23 0 -43 9.5t-42 23.5q-17 11 -37.5 20.5t-38.5 9.5q-23 0 -46 -9.5t-47 -40.5l-10 8q21 35 49.5 60.5t70.5 25.5q20 0 44 -11.5t41 -21.5z" />
    <glyph glyph-name="hungarumlaut" unicode="&#x2dd;" horiz-adv-x="497" 
d="M269 698q0 -13 -14 -25t-28 -21q-18 -12 -44 -27.5t-49 -29.5q-27 -17 -56 -33h-24l133 131q22 21 32.5 27t23.5 6q26 0 26 -28zM443 698q0 -13 -14 -25t-28 -21q-18 -12 -44 -27.5t-49 -29.5q-27 -17 -56 -33h-24l133 131q22 21 32.5 27t23.5 6q26 0 26 -28z" />
    <glyph glyph-name="acutecomb" unicode="&#x301;" horiz-adv-x="0" 
d="M-105 698q0 -13 -14 -25t-28 -21q-18 -12 -44 -27.5t-49 -29.5q-27 -17 -56 -33h-24l133 131q22 21 32.5 27t23.5 6q26 0 26 -28z" />
    <glyph glyph-name="Delta" unicode="&#x394;" horiz-adv-x="623" 
d="M271 620l-238 -608h492zM16 0v8l279 712h10l302 -711v-9h-591z" />
    <glyph glyph-name="Delta" unicode="&#x2206;" horiz-adv-x="623" 
d="M271 620l-238 -608h492zM16 0v8l279 712h10l302 -711v-9h-591z" />
    <glyph glyph-name="Omega" unicode="&#x3a9;" horiz-adv-x="754" 
d="M377 739q66 0 125.5 -21.5t104.5 -62.5t72 -100t27 -133q0 -44 -10.5 -89t-34.5 -85.5t-62.5 -73.5t-95.5 -53l-3 -50h62q33 0 58.5 6.5t42.5 17t26.5 23.5t10.5 25l2 15h12l-9 -158h-222l9 137q40 21 64 52.5t36.5 70t16.5 82.5t4 90q0 55 -13 108t-41 94.5t-73 67
t-109 25.5t-109 -25.5t-73 -67t-41 -94.5t-13 -108q0 -46 4 -90t16.5 -82.5t36.5 -70t64 -52.5l9 -137h-222l-9 158h12l2 -15q1 -12 10.5 -25t26.5 -23.5t42.5 -17t58.5 -6.5h62l-3 50q-57 20 -95.5 53t-62.5 73.5t-34.5 85.5t-10.5 89q0 74 27 133t72 100t104.5 62.5
t125.5 21.5z" />
    <glyph glyph-name="Omega" unicode="&#x2126;" horiz-adv-x="754" 
d="M377 739q66 0 125.5 -21.5t104.5 -62.5t72 -100t27 -133q0 -44 -10.5 -89t-34.5 -85.5t-62.5 -73.5t-95.5 -53l-3 -50h62q33 0 58.5 6.5t42.5 17t26.5 23.5t10.5 25l2 15h12l-9 -158h-222l9 137q40 21 64 52.5t36.5 70t16.5 82.5t4 90q0 55 -13 108t-41 94.5t-73 67
t-109 25.5t-109 -25.5t-73 -67t-41 -94.5t-13 -108q0 -46 4 -90t16.5 -82.5t36.5 -70t64 -52.5l9 -137h-222l-9 158h12l2 -15q1 -12 10.5 -25t26.5 -23.5t42.5 -17t58.5 -6.5h62l-3 50q-57 20 -95.5 53t-62.5 73.5t-34.5 85.5t-10.5 89q0 74 27 133t72 100t104.5 62.5
t125.5 21.5z" />
    <glyph glyph-name="pi" unicode="&#x3c0;" horiz-adv-x="533" 
d="M436 0h-69v419h-188q0 -52 -1 -94.5t-4 -78t-8 -66t-14 -58.5q-6 -18 -14.5 -41.5t-21.5 -43.5t-32 -34t-44 -14q-21 0 -35.5 9.5t-14.5 34.5q0 13 7.5 25t27.5 17q38 8 62.5 21.5t37.5 33.5q16 25 24.5 54.5t12.5 63t4.5 72t0.5 82.5v17h-6q-51 0 -83.5 -28t-51.5 -66
l-11 4q10 35 24 63t37 49q16 14 44 27t82 13h315v-62h-81v-419z" />
    <glyph glyph-name="afii10023" unicode="&#x401;" horiz-adv-x="607" 
d="M239 12q36 0 79.5 1.5t87.5 6t86 14t77 25.5l-11 -59h-468v723h454l3 -54q-51 30 -116 36t-145 6h-111v-326h67q23 0 52.5 1.5t58 3.5t52 5t34.5 5v-40q-11 2 -34.5 4t-52 4t-58 3.5t-52.5 1.5h-67v-361h64zM275 812q0 -20 -13.5 -35t-36.5 -15t-36.5 15t-13.5 35
t13.5 35t36.5 15t36.5 -15t13.5 -35zM468 812q0 -20 -13.5 -35t-36.5 -15t-36.5 15t-13.5 35t13.5 35t36.5 15t36.5 -15t13.5 -35z" />
    <glyph glyph-name="afii10051" unicode="&#x402;" horiz-adv-x="788" 
d="M326 419q31 8 64 12.5t65 4.5q52 0 104.5 -10t94.5 -35.5t68 -69.5t26 -113q0 -37 -13 -75t-39 -68.5t-64.5 -50t-90.5 -19.5q-29 0 -47.5 7.5t-29.5 19t-15.5 25t-4.5 25.5t2 22t4 18h14q-2 -7 -4 -15.5t-2 -24.5t7.5 -28t19 -20.5t25.5 -12.5t28 -4q58 0 87.5 43.5
t29.5 151.5q0 69 -21 112.5t-52.5 68t-69.5 33.5t-72 9q-23 0 -43.5 -3t-36.5 -6q-18 -4 -34 -9v-407h-85v711h-31q-49 0 -82 -4.5t-55.5 -10.5t-35.5 -13.5t-21 -13.5l3 54h614l3 -54q-11 6 -26.5 13.5t-39 14t-57.5 10.5t-83 4h-104v-292z" />
    <glyph glyph-name="afii10052" unicode="&#x403;" horiz-adv-x="536" 
d="M174 0h-84v723h433l3 -54q-51 30 -116 36t-145 6h-90zM462 905q0 -13 -14 -25t-28 -21q-18 -12 -44 -27.5t-49 -29.5q-27 -17 -56 -33h-24l133 131q22 21 32.5 27t23.5 6q26 0 26 -28z" />
    <glyph glyph-name="afii10053" unicode="&#x404;" horiz-adv-x="724" 
d="M658 42q-48 -27 -107 -41.5t-126 -14.5q-92 0 -161 27.5t-115.5 76.5t-69.5 117t-23 148q0 63 18 130.5t61.5 124t115.5 93t179 36.5q48 0 101.5 -10.5t120.5 -42.5l-6 -56q-38 45 -93 71t-138 26q-68 0 -117 -28t-81.5 -75.5t-49 -110t-18.5 -131.5h113q35 0 66 0.5
t62.5 2t65.5 4t73 7.5v-40q-40 6 -74.5 9t-66 4t-62.5 1h-64h-113v-9q0 -94 23 -162.5t61.5 -113t88 -66t103.5 -21.5q79 0 134.5 27t92.5 71z" />
    <glyph glyph-name="afii10054" unicode="&#x405;" horiz-adv-x="576" 
d="M528 181q0 -39 -16 -74t-47 -62t-76 -43t-103 -16q-11 0 -34.5 1.5t-54.5 7.5t-67.5 17.5t-73.5 32.5l6 56q15 -19 36 -37.5t49 -33t62 -23.5t76 -9q45 0 77.5 11.5t53 31t30 44.5t9.5 52q0 33 -15.5 62.5t-41.5 55t-60.5 47.5t-71.5 41q-41 22 -78 44.5t-65.5 49
t-45.5 58.5t-17 73q0 33 12.5 64t38.5 55t67.5 38t100.5 14q60 0 108.5 -14t86.5 -35l-6 -56q-28 39 -74 66t-115 27q-43 0 -71 -10t-45 -25.5t-24 -36t-7 -41.5q0 -36 15 -64.5t40.5 -51.5t58.5 -42t70 -38q39 -21 77 -44t68 -51t48.5 -63t18.5 -79z" />
    <glyph glyph-name="afii10055" unicode="&#x406;" horiz-adv-x="265" 
d="M175 0h-85v723h85v-723z" />
    <glyph glyph-name="afii10056" unicode="&#x407;" horiz-adv-x="265" 
d="M175 0h-85v723h85v-723zM115 812q0 -20 -13.5 -35t-36.5 -15t-36.5 15t-13.5 35t13.5 35t36.5 15t36.5 -15t13.5 -35zM250 812q0 -20 -13.5 -35t-36.5 -15t-36.5 15t-13.5 35t13.5 35t36.5 15t36.5 -15t13.5 -35z" />
    <glyph glyph-name="afii10057" unicode="&#x408;" horiz-adv-x="423" 
d="M248 723h85v-428q0 -47 -4.5 -84.5t-12.5 -67.5t-20 -53.5t-28 -42.5q-29 -35 -69 -48t-74 -13q-23 0 -46.5 9t-40.5 26q-12 12 -20 29.5t-8 37.5q0 14 1 24t5 23h14q-3 -11 -4.5 -20.5t-1.5 -26.5q0 -19 7 -33.5t18 -26.5q30 -30 78 -30q29 0 55.5 13t43.5 47
q10 20 14.5 45.5t6 55t1.5 62v66.5v436z" />
    <glyph glyph-name="afii10058" unicode="&#x409;" horiz-adv-x="1061" 
d="M586 418q32 11 69.5 18.5t85.5 7.5q82 0 136 -18t86 -48t45 -68.5t13 -79.5q0 -39 -14 -81t-48.5 -76t-91.5 -56t-143 -22q-29 0 -67.5 2.5t-70.5 2.5h-85v701q-11 3 -35.5 6.5t-59.5 3.5h-43q-31 0 -55 -3.5t-35 -6.5l-4 -62q-3 -42 -5 -82.5t-5 -82.5q-4 -56 -9 -111
t-16 -112q-5 -23 -12 -58t-19 -71q-9 -26 -20.5 -50t-26.5 -42q-18 -23 -43.5 -33.5t-54.5 -10.5q-14 0 -26.5 3t-26.5 11l6 46q13 -14 28.5 -25t37.5 -11q23 0 40 7.5t31 24.5q13 15 23.5 37t18.5 48q10 29 16.5 61t11.5 62q9 50 14.5 102.5t10.5 120.5q1 18 2.5 39t2 42
t1 41t0.5 35q0 12 -2.5 26.5t-9.5 26.5t-19.5 20t-32.5 8v12h401v-305zM928 226q0 206 -204 206q-26 0 -64.5 -6.5t-73.5 -20.5v-385q34 -8 68 -10.5t66 -2.5q45 0 83 15t66 43.5t43.5 69t15.5 91.5z" />
    <glyph glyph-name="afii10059" unicode="&#x40a;" horiz-adv-x="1135" 
d="M660 418q32 11 69.5 18.5t85.5 7.5q82 0 136 -18t86 -48t45 -68.5t13 -79.5q0 -39 -14 -81t-48.5 -76t-91.5 -56t-143 -22q-16 0 -36 1t-41 2t-41 1.5t-36 0.5h-69v368h-400v-368h-85v723h85v-343h400v343h85v-305zM1002 226q0 206 -204 206q-26 0 -64.5 -6.5
t-73.5 -20.5v-385q34 -8 68 -10.5t66 -2.5q45 0 83 15t66 43.5t43.5 69t15.5 91.5z" />
    <glyph glyph-name="afii10060" unicode="&#x40b;" horiz-adv-x="812" 
d="M326 372q52 32 113 52.5t130 20.5q50 0 82 -15t50 -39t24.5 -53.5t6.5 -57.5v-280h-85v293q0 22 -4 45t-16.5 41.5t-35.5 30.5t-60 12q-54 0 -105.5 -19t-99.5 -47v-356h-85v711h-31q-49 0 -82 -4.5t-55.5 -10.5t-35.5 -13.5t-21 -13.5l3 54h614l3 -54q-11 6 -26.5 13.5
t-39 14t-57.5 10.5t-83 4h-104v-339z" />
    <glyph glyph-name="afii10061" unicode="&#x40c;" horiz-adv-x="722" 
d="M455 505q-10 -19 -22.5 -37.5t-28 -33.5t-35 -25.5t-43.5 -14.5q64 -12 102.5 -37.5t67.5 -59.5q32 -38 56 -87.5t50 -116.5q5 -14 11.5 -28.5t14 -26.5t17 -20t20.5 -8q20 0 29 18.5t11 42.5h12q-2 -36 -18.5 -60.5t-59.5 -24.5q-34 0 -60 16.5t-47 43.5t-39 62.5
t-34 73.5q-14 32 -24 54.5t-21 42.5q-31 58 -58.5 84t-68.5 26h-112v-389h-85v723h85v-322h110q29 0 54 9.5t45 26t35.5 38.5t26.5 45l45 108q25 58 50 84.5t70 26.5q17 0 31.5 -4t28.5 -11l-6 -45q-21 26 -37.5 33.5t-30.5 7.5q-24 0 -35.5 -9t-24.5 -27q-16 -23 -28 -50.5
t-17 -41.5q-6 -17 -15 -39.5t-22 -47.5zM527 905q0 -13 -14 -25t-28 -21q-18 -12 -44 -27.5t-49 -29.5q-27 -17 -56 -33h-24l133 131q22 21 32.5 27t23.5 6q26 0 26 -28z" />
    <glyph glyph-name="afii10062" unicode="&#x40e;" horiz-adv-x="670" 
d="M479 410q16 36 35.5 82.5t37 92t31.5 83t19 55.5h38q-7 -14 -17.5 -34t-23 -44.5t-25 -51.5t-24.5 -54q-26 -60 -55.5 -128t-61.5 -135q-36 -77 -68 -136t-52 -86q-25 -35 -54 -51.5t-59 -16.5t-47.5 7t-28.5 12l8 46q9 -11 29 -26t50 -15q18 0 41 8.5t50 43.5
q7 10 16 24.5t16.5 28t12.5 23.5l5 10l-322 575h100l268 -490q16 32 37 78.5t44 98.5zM273 779q-26 12 -41.5 28.5t-23.5 35.5l38 19q3 -20 11.5 -39t25.5 -31q15 -11 39 -14.5t41 -3.5t40.5 3.5t38.5 14.5q17 12 26 31t12 39l38 -19q-8 -19 -23.5 -35.5t-41.5 -28.5
q-17 -8 -41 -12.5t-49 -4.5t-49 4.5t-41 12.5z" />
    <glyph glyph-name="afii10145" unicode="&#x40f;" horiz-adv-x="711" 
d="M536 723h85v-723h-197q-25 -13 -45 -51t-22 -111h-12q-2 72 -21 110t-45 52h-189v723h85v-701q17 -5 51 -7.5t67 -2.5h127q36 0 66 3t50 7v701z" />
    <glyph glyph-name="afii10017" unicode="&#x410;" horiz-adv-x="666" 
d="M626 0h-89q-4 12 -14.5 41.5t-24.5 70t-31 87.5t-33 94h-256l-35 -90q-7 -16 -16 -40.5t-18 -52.5t-17 -57t-14 -53h-38q10 19 25 53t33.5 78.5t39 96.5t41.5 106l87 235q14 36 28.5 75t30.5 79h24zM305 635l-123 -330h247z" />
    <glyph glyph-name="afii10018" unicode="&#x411;" horiz-adv-x="665" 
d="M90 0v723h448l3 -54q-21 12 -44 20t-51 13t-62.5 7t-78.5 2h-130v-293q32 11 69.5 18.5t85.5 7.5q82 0 136 -18t86 -48t45 -68.5t13 -79.5q0 -39 -14 -81t-48.5 -76t-91.5 -56t-143 -22q-16 0 -36.5 1t-41.5 2t-40.5 1.5t-35.5 0.5h-69zM517 226q0 104 -53 154t-155 50
q-28 0 -64.5 -5.5t-69.5 -19.5v-385q36 -8 69 -10.5t65 -2.5q45 0 83 15t66 43.5t43.5 69t15.5 91.5z" />
    <glyph glyph-name="afii10019" unicode="&#x412;" horiz-adv-x="671" 
d="M90 723h67q42 0 88.5 2.5t90.5 2.5q70 0 117.5 -12t76.5 -33t42 -49t13 -60q0 -66 -46.5 -113.5t-133.5 -62.5q43 -6 81.5 -21t67 -38.5t45.5 -56t17 -72.5q0 -52 -19 -92t-53.5 -67.5t-82.5 -41.5t-106 -14q-33 0 -60 1l-54 2q-26 1 -52 1.5t-55 0.5h-44v723zM523 214
q0 22 -7.5 53t-31 59t-68 47.5t-119.5 19.5h-121v-373q45 -10 80.5 -11.5t62.5 -1.5q29 0 64.5 9t66.5 32.5t52 63.5t21 102zM498 557q0 53 -22.5 84.5t-53.5 48t-63.5 21.5t-51.5 5q-32 0 -67 -3t-64 -10v-298h143q7 0 23 1t36 5.5t41 14t38.5 26.5t29 42.5t11.5 62.5z" />
    <glyph glyph-name="afii10020" unicode="&#x413;" horiz-adv-x="536" 
d="M174 0h-84v723h433l3 -54q-51 30 -116 36t-145 6h-90z" />
    <glyph glyph-name="afii10021" unicode="&#x414;" horiz-adv-x="723" 
d="M705 -135v17q0 54 -50.5 86t-153.5 32h-270q-65 0 -107 -10t-66.5 -26.5t-34 -38t-9.5 -43.5v-17h-12v147h64q9 0 19.5 7.5t21 19t19.5 23.5t15 21q38 63 59.5 136t34.5 148q6 38 11 79t8 77.5t4.5 65t1.5 42.5q0 34 -15 56.5t-49 23.5v12h401v-633q0 -16 1.5 -30
t12 -24.5t35 -17t71.5 -6.5v-147h-12zM512 701q-13 3 -35.5 6.5t-49.5 3.5h-56q-26 0 -49.5 -3t-37.5 -7q-5 -73 -9.5 -146.5t-17.5 -151.5q-17 -106 -41 -189.5t-70 -152.5q-8 -11 -20 -25.5t-23 -23.5h286q14 0 32 0.5t35 2t32 3t24 4.5v679z" />
    <glyph glyph-name="afii10022" unicode="&#x415;" horiz-adv-x="607" 
d="M239 12q36 0 79.5 1.5t87.5 6t86 14t77 25.5l-11 -59h-468v723h454l3 -54q-51 30 -116 36t-145 6h-111v-326h67q23 0 52.5 1.5t58 3.5t52 5t34.5 5v-40q-11 2 -34.5 4t-52 4t-58 3.5t-52.5 1.5h-67v-361h64z" />
    <glyph glyph-name="afii10024" unicode="&#x416;" horiz-adv-x="1067" 
d="M491 401v322h85v-322h54q29 0 54 9.5t45 26t35.5 38.5t26.5 45l45 108q25 58 50 84.5t70 26.5q19 0 33 -5t23 -10l-6 -45q-12 14 -27 27.5t-37 13.5q-19 0 -30 -6t-24 -22q-9 -11 -17 -25.5t-15 -28.5t-11.5 -26.5t-7.5 -19.5q-6 -17 -15 -39.5t-22 -47.5
q-10 -19 -22.5 -37.5t-28 -33.5t-35 -25.5t-43.5 -14.5q64 -12 102.5 -37.5t67.5 -59.5q32 -38 56 -87.5t50 -116.5q5 -14 11.5 -28.5t14 -26.5t17 -20t20.5 -8q20 0 29 18.5t11 42.5h12q-2 -36 -18.5 -60.5t-59.5 -24.5q-34 0 -60 16.5t-47 43.5t-39 62.5t-34 73.5
q-14 32 -24 54.5t-21 42.5q-31 58 -58.5 84t-68.5 26h-56v-389h-85v389h-56q-41 0 -68.5 -26t-58.5 -84q-11 -20 -21 -42.5t-24 -54.5q-17 -38 -34.5 -73.5t-38.5 -62.5t-47 -43.5t-60 -16.5q-43 0 -59.5 24.5t-18.5 60.5h12q2 -24 11 -42.5t29 -18.5q11 0 20.5 8t17 20
t14 26.5t11.5 28.5q26 67 50 116.5t56 87.5q15 17 31 32t36.5 27.5t45.5 22t57 15.5q-47 8 -78.5 40.5t-50.5 70.5q-13 25 -22 47.5t-15 39.5q-3 7 -7.5 19.5t-11.5 26.5t-15 28.5t-17 25.5q-13 16 -24 22t-30 6q-22 0 -37 -13.5t-27 -27.5l-6 45q9 5 23 10t33 5
q45 0 70 -26.5t50 -84.5l45 -108q11 -23 26.5 -45t35.5 -38.5t45 -26t54 -9.5h54z" />
    <glyph glyph-name="afii10025" unicode="&#x417;" horiz-adv-x="607" 
d="M61 685q29 16 59.5 26.5t59 16.5t53.5 8.5t42 2.5q71 0 119 -16t77 -41.5t41.5 -56.5t12.5 -61q0 -29 -12 -55.5t-35 -49t-56.5 -38.5t-76.5 -23q40 -6 77 -19.5t66 -37t46.5 -57t17.5 -79.5q0 -47 -18 -87.5t-53.5 -69.5t-88.5 -45.5t-123 -16.5q-90 0 -146.5 19
t-87.5 37l6 56q16 -20 37 -38t48 -32t61 -22t76 -8q90 0 143 54.5t53 154.5q0 42 -15 76.5t-42.5 58.5t-65.5 37.5t-84 13.5q-17 0 -41 -3t-44 -8v29q19 -3 39 -4.5t48 -1.5q93 0 139.5 44t46.5 115q0 37 -12.5 67.5t-34.5 51.5t-52.5 32.5t-66.5 11.5q-66 0 -116.5 -24
t-90.5 -74z" />
    <glyph glyph-name="afii10026" unicode="&#x418;" horiz-adv-x="750" 
d="M575 0v632l-400 -566v-66h-85v723h85v-631l400 565v66h85v-723h-85z" />
    <glyph glyph-name="afii10027" unicode="&#x419;" horiz-adv-x="750" 
d="M575 0v632l-400 -566v-66h-85v723h85v-631l400 565v66h85v-723h-85zM286 779q-26 12 -41.5 28.5t-23.5 35.5l38 19q3 -20 11.5 -39t25.5 -31q15 -11 39 -14.5t41 -3.5t40.5 3.5t38.5 14.5q17 12 26 31t12 39l38 -19q-8 -19 -23.5 -35.5t-41.5 -28.5q-17 -8 -41 -12.5
t-49 -4.5t-49 4.5t-41 12.5z" />
    <glyph glyph-name="afii10028" unicode="&#x41a;" horiz-adv-x="722" 
d="M455 505q-10 -19 -22.5 -37.5t-28 -33.5t-35 -25.5t-43.5 -14.5q64 -12 102.5 -37.5t67.5 -59.5q32 -38 56 -87.5t50 -116.5q5 -14 11.5 -28.5t14 -26.5t17 -20t20.5 -8q20 0 29 18.5t11 42.5h12q-2 -36 -18.5 -60.5t-59.5 -24.5q-34 0 -60 16.5t-47 43.5t-39 62.5
t-34 73.5q-14 32 -24 54.5t-21 42.5q-31 58 -58.5 84t-68.5 26h-112v-389h-85v723h85v-322h110q29 0 54 9.5t45 26t35.5 38.5t26.5 45l45 108q25 58 50 84.5t70 26.5q17 0 31.5 -4t28.5 -11l-6 -45q-21 26 -37.5 33.5t-30.5 7.5q-24 0 -35.5 -9t-24.5 -27q-16 -23 -28 -50.5
t-17 -41.5q-6 -17 -15 -39.5t-22 -47.5z" />
    <glyph glyph-name="afii10029" unicode="&#x41b;" horiz-adv-x="676" 
d="M501 0v701q-11 3 -35.5 6.5t-59.5 3.5h-43q-31 0 -55 -3.5t-35 -6.5q-1 -15 -2 -33.5t-2 -28.5q-3 -42 -5 -82.5t-5 -82.5q-4 -56 -9 -111t-16 -112q-5 -23 -12 -58t-19 -71q-9 -26 -20.5 -50t-26.5 -42q-18 -23 -43.5 -33.5t-54.5 -10.5q-14 0 -26.5 3t-26.5 11l6 46
q13 -14 28.5 -25t37.5 -11q23 0 40 7.5t31 24.5q13 15 23.5 37t18.5 48q10 29 16.5 61t11.5 62q9 50 14.5 102.5t10.5 120.5q1 18 2.5 39t2 42t1 41t0.5 35q0 12 -2.5 26.5t-9.5 26.5t-19.5 20t-32.5 8v12h401v-723h-85z" />
    <glyph glyph-name="afii10030" unicode="&#x41c;" horiz-adv-x="895" 
d="M720 0v665l-294 -547h-21l-297 551v-417q0 -84 2 -147t10 -105h-40q9 42 11.5 110t2.5 173v440h79l281 -520q69 131 139.5 260t139.5 260h72v-723h-85z" />
    <glyph glyph-name="afii10031" unicode="&#x41d;" horiz-adv-x="750" 
d="M575 0v368h-400v-368h-85v723h85v-343h400v343h85v-723h-85z" />
    <glyph glyph-name="afii10032" unicode="&#x41e;" horiz-adv-x="862" 
d="M806 363q0 -37 -8 -79.5t-25.5 -84.5t-46 -80.5t-70.5 -68t-98 -47t-128 -17.5q-71 0 -127 17.5t-97.5 47t-70 68t-46 80.5t-25.5 84.5t-8 79.5q0 60 20 126t64 121.5t115.5 92t174.5 36.5q105 0 176.5 -34.5t116 -89t64 -121.5t19.5 -131zM713 363q0 78 -18.5 144.5
t-54 115.5t-88.5 76.5t-122 27.5q-68 0 -120.5 -26t-88 -73.5t-54 -115t-18.5 -149.5q0 -70 17.5 -135.5t53 -116.5t88 -82t122.5 -31q72 0 125 31t88 82t52.5 116.5t17.5 135.5z" />
    <glyph glyph-name="afii10033" unicode="&#x41f;" horiz-adv-x="711" 
d="M536 0v701q-20 5 -50 7.5t-66 2.5h-131q-33 0 -60.5 -2t-53.5 -8v-701h-85v723h531v-723h-85z" />
    <glyph glyph-name="afii10034" unicode="&#x420;" horiz-adv-x="619" 
d="M579 520q0 -45 -18.5 -86.5t-54.5 -73.5t-89 -51t-122 -19q-27 0 -57.5 2t-62.5 10v-302h-85v723h9q48 1 104 6t102 5q79 0 132 -19.5t84.5 -50t44.5 -69t13 -75.5zM486 520q0 100 -51.5 151t-145.5 51q-28 0 -57 -4t-57 -11v-394q32 -8 61 -9.5t55 -1.5q87 0 141 55.5
t54 162.5z" />
    <glyph glyph-name="afii10035" unicode="&#x421;" horiz-adv-x="734" 
d="M668 49q-57 -33 -116.5 -48t-126.5 -15q-92 0 -161 27.5t-115.5 76.5t-69.5 117t-23 148q0 63 18 130.5t61.5 124t115.5 93t179 36.5q48 0 101.5 -10.5t120.5 -42.5l-6 -56q-38 45 -93 71t-138 26q-70 0 -120 -30t-82.5 -80.5t-48 -117t-15.5 -138.5q0 -94 23 -162.5
t61.5 -113t88 -66t103.5 -21.5q79 0 137 27t100 78z" />
    <glyph glyph-name="afii10036" unicode="&#x422;" horiz-adv-x="665" 
d="M290 0v711h-67q-49 0 -83 -4t-58 -10.5t-39.5 -14t-26.5 -13.5l3 54h627l3 -54q-11 6 -26.5 13.5t-39 14t-57.5 10.5t-83 4h-68v-711h-85z" />
    <glyph glyph-name="afii10037" unicode="&#x423;" horiz-adv-x="670" 
d="M479 410q16 36 35.5 82.5t37 92t31.5 83t19 55.5h38q-7 -14 -17.5 -34t-23 -44.5t-25 -51.5t-24.5 -54q-26 -60 -55.5 -128t-61.5 -135q-36 -77 -68 -136t-52 -86q-25 -35 -54 -51.5t-59 -16.5t-47.5 7t-28.5 12l8 46q9 -11 29 -26t50 -15q18 0 41 8.5t50 43.5
q7 10 16 24.5t16.5 28t12.5 23.5l5 10l-322 575h100l268 -490q16 32 37 78.5t44 98.5z" />
    <glyph glyph-name="afii10038" unicode="&#x424;" horiz-adv-x="975" 
d="M530 621q25 4 47.5 4.5t44.5 0.5q91 0 151.5 -24.5t96.5 -63t50.5 -86t14.5 -94.5q0 -44 -14.5 -90.5t-50.5 -84.5t-98 -62.5t-156 -24.5q-23 0 -43 0.5t-43 2.5v-99h-85v99q-23 -2 -42.5 -2.5t-42.5 -0.5q-95 0 -157 24.5t-98 62.5t-50.5 84.5t-14.5 90.5q0 47 15 94.5
t51.5 86t98.5 63t156 24.5q16 0 38 -0.5t46 -4.5v102h85v-102zM842 360q0 127 -59 190.5t-192 63.5q-14 0 -30 -1.5t-31 -4.5v-496q13 -2 25 -3t27 -1q50 0 97 12t83 41.5t58 78t22 120.5zM445 608q-14 3 -33 4.5t-33 1.5q-129 0 -187.5 -63t-58.5 -191q0 -72 22 -120.5
t58 -78t83 -41.5t98 -12q28 0 51 4v496z" />
    <glyph glyph-name="afii10039" unicode="&#x425;" horiz-adv-x="668" 
d="M374 399l269 -399h-103l-222 332q-9 -10 -28 -33.5t-40.5 -51t-43 -54.5t-34.5 -44q-41 -55 -65 -89.5t-42 -59.5h-40q11 13 30.5 36t41 49t42.5 51t36 43q28 34 61 74.5t73 91.5l-254 378h105l206 -312q10 13 28.5 37.5t38.5 52.5t39.5 55.5t32.5 47.5q6 9 17 25
t23.5 34t23.5 34.5t16 25.5h40q-7 -8 -23 -27t-34 -41t-35.5 -44t-27.5 -36z" />
    <glyph glyph-name="afii10040" unicode="&#x426;" horiz-adv-x="755" 
d="M620 82q0 -18 3.5 -31t16.5 -21.5t38.5 -13t70.5 -4.5v-147h-12v17q0 54 -50.5 86t-163.5 32h-433v723h85v-701q9 -3 40.5 -6.5t73.5 -3.5h130q44 0 74 4t42 6v701h85v-641v0z" />
    <glyph glyph-name="afii10041" unicode="&#x427;" horiz-adv-x="657" 
d="M567 0h-87l1 351q-51 -32 -112.5 -52.5t-130.5 -20.5q-50 0 -81.5 15t-49.5 39t-25 53t-7 58v280h85v-293q0 -22 4 -45t16.5 -41.5t35.5 -30t60 -11.5q54 0 106.5 18.5t98.5 46.5v356h86v-723z" />
    <glyph glyph-name="afii10042" unicode="&#x428;" horiz-adv-x="1061" 
d="M782 12q34 0 60 3.5t44 8.5v699h85v-723h-881v723h85v-699q18 -5 44 -8.5t60 -3.5h105q39 0 60 2.5t44 9.5v699h85v-699q23 -7 44.5 -9.5t59.5 -2.5h105z" />
    <glyph glyph-name="afii10043" unicode="&#x429;" horiz-adv-x="1106" 
d="M971 82q0 -18 3.5 -31t16.5 -21.5t38.5 -13t70.5 -4.5v-147h-12v17q0 52 -48 84t-154 34h-796v723h85v-699q18 -5 44 -8.5t60 -3.5h105q39 0 60 2.5t44 9.5v699h85v-699q23 -7 44.5 -9.5t59.5 -2.5h105q34 0 60 3.5t44 8.5v699h85v-641v0z" />
    <glyph glyph-name="afii10044" unicode="&#x42a;" horiz-adv-x="831" 
d="M13 723h343v-305q32 11 69.5 18.5t85.5 7.5q82 0 136 -18t86 -48t45 -68.5t13 -79.5q0 -39 -14 -81t-48.5 -76t-91.5 -56t-143 -22q-16 0 -36 1t-41 2t-41 1.5t-36 0.5h-69v711h-40q-40 0 -70 -1t-55 -5t-48 -12.5t-48 -23.5zM698 226q0 206 -204 206q-26 0 -64.5 -6.5
t-73.5 -20.5v-385q34 -8 68 -10.5t66 -2.5q45 0 83 15t66 43.5t43.5 69t15.5 91.5z" />
    <glyph glyph-name="afii10045" unicode="&#x42b;" horiz-adv-x="914" 
d="M739 0v723h85v-723h-85zM175 418q32 11 69.5 18.5t85.5 7.5q78 0 130.5 -18t84 -48t44.5 -68.5t13 -79.5q0 -39 -14.5 -81t-48 -76t-89 -56t-137.5 -22q-16 0 -36 1t-41 2t-41 1.5t-36 0.5h-69v723h85v-58v-8v-239zM509 226q0 104 -50.5 155t-145.5 51q-26 0 -64.5 -6.5
t-73.5 -20.5v-385q34 -8 68 -10.5t66 -2.5q41 0 77.5 15t63.5 43.5t43 69t16 91.5z" />
    <glyph glyph-name="afii10046" unicode="&#x42c;" horiz-adv-x="650" 
d="M175 418q32 11 69.5 18.5t85.5 7.5q82 0 136 -18t86 -48t45 -68.5t13 -79.5q0 -39 -14 -81t-48.5 -76t-91.5 -56t-143 -22q-16 0 -36 1t-41 2t-41 1.5t-36 0.5h-69v723h85v-305zM517 226q0 206 -204 206q-26 0 -64.5 -6.5t-73.5 -20.5v-385q34 -8 68 -10.5t66 -2.5
q45 0 83 15t66 43.5t43.5 69t15.5 91.5z" />
    <glyph glyph-name="afii10047" unicode="&#x42d;" horiz-adv-x="707" 
d="M651 389q0 -101 -25 -176.5t-72.5 -125.5t-115.5 -75.5t-153 -25.5q-134 0 -219 57l6 58q23 -33 49 -53t54 -31.5t56 -15t54 -3.5q61 0 105.5 17t74.5 46t48.5 67t28.5 79t13 83t3 80h-113h-64t-62.5 -1t-66 -4t-74.5 -9v40q39 -5 72.5 -7.5t65 -4t63 -2t66.5 -0.5h113
v21q0 25 -4 59t-14 70t-28 71t-46 62.5t-67 44.5t-92 17q-83 0 -136.5 -24t-92.5 -73l-6 56q30 16 63 26.5t64.5 16.5t59.5 8t48 2q87 0 152 -29t107.5 -77.5t63.5 -111.5t21 -132z" />
    <glyph glyph-name="afii10048" unicode="&#x42e;" horiz-adv-x="1140" 
d="M1084 363q0 -37 -8 -79.5t-26 -84.5t-47 -80.5t-71 -68t-98 -47t-128 -17.5q-71 0 -126 17t-96.5 45.5t-71 66.5t-47.5 80.5t-27 87t-9 86.5h-154v-369h-85v723h85v-342h155q3 64 25.5 128t68 115t115.5 83t167 32q104 0 176 -34.5t117 -89t65 -121.5t20 -131zM991 363
q0 78 -18.5 144.5t-55 115.5t-89.5 76.5t-122 27.5t-122 -26t-89 -73.5t-54.5 -115t-18.5 -149.5q0 -70 18 -135.5t53.5 -116.5t88.5 -82t124 -31q72 0 125.5 31t89 82t53 116.5t17.5 135.5z" />
    <glyph glyph-name="afii10049" unicode="&#x42f;" horiz-adv-x="696" 
d="M521 0v364q-52 1 -91.5 -13t-69.5 -40.5t-52.5 -63t-41.5 -81.5q-16 -36 -33.5 -69t-39 -57.5t-47.5 -39t-59 -14.5q-26 0 -41.5 9t-24.5 22.5t-12 28t-4 25.5h12q1 -10 3.5 -20.5t7 -19.5t11.5 -15t17 -6q9 0 17.5 4t17.5 15t19.5 30t22.5 49q7 16 16.5 37.5t20.5 39.5
q26 45 75 90.5t124 72.5h-23q-49 0 -94 12t-79.5 37t-55.5 63t-21 90q0 27 10.5 59t39 60t79.5 46.5t132 18.5q24 0 52 -2t57 -4t57 -3.5t52 -1.5h31v-723h-85zM521 704q-41 11 -70 14.5t-59 3.5q-41 0 -77.5 -10.5t-64.5 -32t-44.5 -54.5t-16.5 -78q0 -85 47.5 -133
t146.5 -48q34 0 75 3l63 7v328z" />
    <glyph glyph-name="afii10065" unicode="&#x430;" horiz-adv-x="484" 
d="M429 13q12 0 22.5 13t15.5 39h12q-7 -45 -27.5 -60.5t-46.5 -15.5q-76 0 -76 103q-34 -36 -62.5 -56.5t-52 -31t-42.5 -13t-33 -2.5q-60 0 -88.5 29.5t-28.5 72.5q0 46 29.5 78.5t72 54.5t91.5 35t88 19l26 4v51q0 36 -5.5 63.5t-20 46.5t-38.5 28.5t-61 9.5
q-23 0 -44.5 -6t-38.5 -17q-21 -14 -33.5 -34t-12.5 -43q0 -25 4 -37h-13q-2 6 -3 16t-1 21q0 23 13 46.5t41 40.5q18 11 42.5 18t51.5 7q36 0 70 -7.5t60.5 -25.5t42 -49t15.5 -78v-265q0 -10 1 -19.5t4.5 -17.5t9.5 -13t16 -5zM329 270q-45 -8 -86 -20.5t-72 -32
t-49.5 -47t-18.5 -66.5q0 -46 23.5 -64.5t55.5 -18.5q18 0 39 8.5t41 21.5t37.5 28t29.5 29v162z" />
    <glyph glyph-name="afii10066" unicode="&#x431;" horiz-adv-x="547" 
d="M512 252q0 -68 -23.5 -118t-59.5 -82t-79.5 -47.5t-82.5 -15.5q-38 0 -79 16.5t-75 51.5t-56 90.5t-22 133.5q0 55 3.5 97.5t11.5 77t21.5 62.5t33.5 52q41 48 101 79t132 59q35 13 55 23t30 19t13 16t4 14h13q4 -65 -32 -97q-26 -23 -70 -39.5t-113 -42.5
q-45 -17 -85.5 -43.5t-65.5 -76.5q-6 -13 -12 -31.5t-10.5 -39t-7 -41.5t-3.5 -39h3q20 55 51 87.5t63 49t59.5 21.5t40.5 5q61 0 106 -18.5t75 -51t45 -76.5t15 -95zM431 252q0 55 -9.5 93.5t-24 64t-32.5 40t-35.5 21.5t-33 8.5t-24.5 1.5q-47 0 -77.5 -24.5t-48 -61.5
t-24 -79t-6.5 -76q0 -10 1 -32t5.5 -48.5t14 -54.5t27 -51t44.5 -38t66 -15q38 0 64.5 14t44 37t27.5 51t14.5 56t5.5 52.5t1 40.5z" />
    <glyph glyph-name="afii10067" unicode="&#x432;" horiz-adv-x="481" 
d="M429 378q0 -25 -10.5 -45t-27.5 -34.5t-38.5 -24t-44.5 -13.5q60 -7 100.5 -39.5t40.5 -89.5q0 -26 -12 -50t-35 -42t-56.5 -29t-75.5 -11h-200v481h183q48 0 81.5 -7.5t54.5 -21.5t30.5 -33t9.5 -41zM368 133q0 43 -15.5 67t-37 36t-45.5 15t-42 3h-89v-234
q8 -2 28.5 -5t42.5 -3q17 0 44 2t52.5 13.5t43.5 36t18 69.5zM354 376q0 32 -15 50.5t-36 28t-43 12t-35 2.5q-32 0 -52 -2t-34 -4v-197h93q64 0 93 26t29 84z" />
    <glyph glyph-name="afii10068" unicode="&#x433;" horiz-adv-x="384" 
d="M374 431q-17 13 -37.5 21t-40.5 11.5t-38.5 4.5t-31.5 1h-87v-469h-69v481h302z" />
    <glyph glyph-name="afii10069" unicode="&#x434;" horiz-adv-x="524" 
d="M504 -110v20q-5 52 -43 71t-102 19h-198q-42 0 -69 -6.5t-43.5 -18.5t-23.5 -28.5t-9 -36.5v-20h-12v122h36q26 0 49.5 28t42.5 77q11 31 18.5 67t11.5 60q8 54 11.5 96t3.5 62q0 10 -1 21t-6 21t-15 16.5t-28 8.5v12h304v-426q0 -43 55 -43h30v-122h-12zM362 462
q-8 3 -22 5t-37 2h-34q-45 0 -69 -7l-7 -77q-4 -44 -7.5 -79t-8.5 -67q-6 -33 -14 -68t-20 -66q-3 -7 -7.5 -19t-12 -25t-16.5 -26t-21 -23h204q20 0 39 1.5t33 8.5v440z" />
    <glyph glyph-name="afii10070" unicode="&#x435;" horiz-adv-x="475" 
d="M258 493q49 0 85 -18.5t59.5 -48.5t35 -68t12.5 -77h-334q0 -87 15 -140t37.5 -81.5t50.5 -37.5t54 -9q47 0 87.5 22.5t74.5 76.5l10 -7q-29 -50 -74 -83t-117 -33q-34 0 -72.5 12t-71 40.5t-54 76.5t-21.5 120q0 58 15.5 105t44 80.5t70 51.5t93.5 18zM373 293
q0 37 -7.5 71.5t-22.5 60t-38 41t-54 15.5q-59 0 -93 -45.5t-42 -142.5h257z" />
    <glyph glyph-name="afii10072" unicode="&#x436;" horiz-adv-x="777" 
d="M354 266v215h69v-215h54q22 0 39 10t31 27t25 39.5t20 48.5q5 13 11 28t13.5 28.5t17 24t22.5 15.5q13 6 36 6q14 0 25.5 -3t19.5 -7l-6 -40q-16 20 -31 26.5t-25 6.5q-14 0 -22 -6t-16 -17q-11 -16 -18.5 -34t-11.5 -29q-14 -38 -34.5 -76t-58.5 -55q23 -5 40.5 -14.5
t32.5 -20.5q37 -27 57 -65t34 -73q12 -32 24.5 -52.5t29.5 -20.5q13 0 21 14.5t10 37.5h12q-3 -40 -20.5 -58t-45.5 -18q-43 0 -71.5 33t-51.5 84l-31 72q-9 22 -24 40t-34 29q-10 5 -21 6t-22 1h-31v-254h-69v254h-31q-11 0 -22 -1t-21 -6q-19 -11 -34 -29t-24 -40l-31 -72
q-23 -51 -51.5 -84t-71.5 -33q-28 0 -45.5 18t-20.5 58h12q2 -23 10 -37.5t21 -14.5q17 0 29.5 20.5t24.5 52.5q14 35 34 73t57 65q15 11 32.5 20.5t40.5 14.5q-38 17 -58.5 55t-34.5 76q-4 11 -11.5 29t-18.5 34q-8 11 -16 17t-22 6q-10 0 -25 -6.5t-31 -26.5l-6 40
q8 4 19.5 7t25.5 3q22 0 36 -6q13 -5 22.5 -15.5t17 -24t13.5 -28.5t11 -28q9 -26 20 -48.5t25 -39.5t31 -27t39 -10h54z" />
    <glyph glyph-name="afii10073" unicode="&#x437;" horiz-adv-x="428" 
d="M378 380q0 -48 -32 -77t-83 -38q24 -4 47.5 -13t42.5 -25t31 -38t12 -51q0 -33 -12 -57t-30.5 -40.5t-41 -26.5t-44 -15.5t-39 -7.5t-25.5 -2q-49 0 -82.5 15.5t-54.5 36t-32 39.5t-15 26l11 6q23 -47 62 -73t96 -26q34 0 58 10.5t39 28.5t22 41t7 48q0 37 -11.5 60
t-29.5 35.5t-40.5 16.5t-44.5 4q-10 0 -26 -1t-27 -3v19q11 -2 27 -2.5t34 -0.5q14 0 27 2t21 7q18 8 28 20t15.5 25.5t7 27.5t1.5 25q0 31 -9 51.5t-23.5 32.5t-32 16.5t-35.5 4.5q-47 0 -80.5 -19t-59.5 -54l-6 46q32 20 72.5 29.5t73.5 9.5q91 0 136 -32t45 -81z" />
    <glyph glyph-name="afii10074" unicode="&#x438;" 
d="M389 0v389l-250 -314v-75h-69v481h69v-383l250 314v69h69v-481h-69z" />
    <glyph glyph-name="afii10075" unicode="&#x439;" 
d="M389 0v389l-250 -314v-75h-69v481h69v-383l250 314v69h69v-481h-69zM166 641q6 -47 32.5 -63t65.5 -16t65.5 16t32.5 63l38 -19q-20 -41 -57 -56.5t-79 -15.5t-79 15.5t-57 56.5z" />
    <glyph glyph-name="afii10076" unicode="&#x43a;" horiz-adv-x="507" 
d="M207 266q22 0 39 10t31 27t25 39.5t20 48.5q5 13 11 28t13.5 28.5t17 24t22.5 15.5q13 6 36 6q14 0 25 -2.5t22 -7.5l-6 -40q-16 20 -32 26.5t-26 6.5q-14 0 -22 -6t-16 -17q-11 -16 -18.5 -34t-11.5 -29q-14 -38 -34.5 -76t-58.5 -55q23 -5 40.5 -14.5t32.5 -20.5
q37 -27 57 -65t34 -73q12 -32 24.5 -52.5t29.5 -20.5q13 0 21 14.5t10 37.5h12q-3 -40 -20.5 -58t-45.5 -18q-43 0 -71.5 33t-51.5 84l-31 72q-9 22 -24 40t-34 29q-10 5 -21 6t-22 1h-45v-254h-69v481h69v-215h68z" />
    <glyph glyph-name="afii10077" unicode="&#x43b;" horiz-adv-x="489" 
d="M350 0v462q-14 5 -32 6t-33 1h-35q-5 0 -12.5 -0.5t-15 -1.5t-13.5 -2.5t-9 -2.5l-5 -64q-4 -37 -6 -75t-7 -79q-4 -29 -8 -60t-11 -60q-7 -28 -14.5 -50t-16.5 -37q-17 -27 -37.5 -36.5t-45.5 -9.5q-17 0 -28.5 5t-16.5 7l6 42q28 -31 61 -31q21 0 32.5 11.5t22.5 29.5
q9 16 16 39t12 49q5 22 7.5 46.5t5.5 48.5q5 38 7.5 84.5t2.5 85.5q0 26 -12 42.5t-38 18.5v12h292v-481h-69z" />
    <glyph glyph-name="afii10078" unicode="&#x43c;" horiz-adv-x="609" 
d="M470 0v437l-182 -353h-12l-182 353v-266q0 -51 2.5 -96t7.5 -75h-34q5 30 8 76.5t3 94.5v310h68l162 -320q33 63 64 122q13 25 27 52t27.5 53t25.5 50t21 43h63v-481h-69z" />
    <glyph glyph-name="afii10079" unicode="&#x43d;" horiz-adv-x="523" 
d="M384 266v215h69v-481h-69v254h-245v-254h-69v481h69v-215h245z" />
    <glyph glyph-name="afii10080" unicode="&#x43e;" horiz-adv-x="548" 
d="M513 240q0 -57 -18 -103t-50 -79t-75.5 -51t-95.5 -18q-51 0 -95 17.5t-76 50.5t-50 79.5t-18 103.5q0 63 18 110.5t50 79t76 47.5t95 16q52 0 95.5 -15t75.5 -45.5t50 -78.5t18 -114zM432 240q0 69 -13.5 115.5t-35.5 74.5t-50.5 39.5t-58.5 11.5t-58.5 -11.5
t-50.5 -39.5t-35.5 -74.5t-13.5 -115.5t13.5 -115t35.5 -73.5t50.5 -39t58.5 -11.5t58.5 11.5t50.5 39t35.5 73.5t13.5 115z" />
    <glyph glyph-name="afii10081" unicode="&#x43f;" horiz-adv-x="518" 
d="M379 0v462q-11 3 -25.5 5t-44.5 2h-100q-30 0 -46.5 -2t-23.5 -5v-462h-69v481h378v-481h-69z" />
    <glyph glyph-name="afii10082" unicode="&#x440;" horiz-adv-x="545" 
d="M139 495v-65q24 22 62.5 42.5t85.5 20.5q37 0 76.5 -12t72 -41t53.5 -77.5t21 -120.5q0 -52 -15.5 -97.5t-45.5 -80t-74 -54.5t-101 -21q-30 0 -66 7.5t-69 28.5v-192v-9v-46h-69v694zM429 239q0 121 -44 175.5t-122 54.5q-30 0 -64 -16.5t-60 -36.5v-378q19 -11 46 -18
t66 -7q37 0 69.5 14.5t56.5 43t38 70.5t14 98z" />
    <glyph glyph-name="afii10083" unicode="&#x441;" horiz-adv-x="475" 
d="M279 13q47 0 90.5 27.5t69.5 87.5l11 -5q-9 -20 -22.5 -43.5t-35.5 -43.5t-53.5 -33.5t-76.5 -13.5q-47 0 -88.5 16.5t-72 48t-48.5 77.5t-18 105q0 49 14.5 95.5t44 82.5t75 57.5t107.5 21.5q32 0 59.5 -7.5t53.5 -27.5q21 -17 32.5 -40.5t11.5 -49.5q0 -12 -1 -24.5
t-5 -27.5h-13q5 14 5.5 28.5t0.5 22.5q0 20 -10.5 42.5t-29.5 38.5q-23 20 -50.5 26.5t-57.5 6.5t-58 -12t-50 -40t-35 -75.5t-13 -117.5q0 -59 13 -101t35 -69t52 -40t63 -13z" />
    <glyph glyph-name="afii10084" unicode="&#x442;" horiz-adv-x="449" 
d="M441 431q-16 13 -36 21t-40.5 11.5t-39.5 4.5t-32 1h-34v-469h-69v469h-34q-13 0 -32 -1t-39.5 -4.5t-40.5 -11.5t-36 -21l2 50h429z" />
    <glyph glyph-name="afii10085" unicode="&#x443;" horiz-adv-x="471" 
d="M275 63q26 70 44.5 121t31.5 88t22 63.5t16 49.5t13.5 45.5t14.5 50.5h34q-12 -28 -28 -68.5t-34 -85.5t-35.5 -91.5t-32.5 -87.5q-16 -43 -35.5 -91t-46.5 -114q-15 -37 -31.5 -71.5t-37.5 -60.5q-17 -19 -38 -31t-50 -12q-22 0 -36.5 5.5t-25.5 11.5l6 42
q22 -23 39.5 -29t30.5 -6q20 0 34 6t29 23q18 24 39.5 65.5t39.5 96.5q-24 53 -53 117t-59 131t-58.5 131.5t-52.5 118.5h76l184 -418v0z" />
    <glyph glyph-name="afii10086" unicode="&#x444;" horiz-adv-x="791" 
d="M430 453q26 22 56 31t51 9q48 0 88.5 -17t69.5 -50t45 -81t16 -111q0 -50 -14 -94.5t-39.5 -78t-62.5 -53t-83 -19.5q-29 0 -62.5 8t-64.5 31v-250h-69v250q-30 -23 -64.5 -31t-61.5 -8q-47 0 -84 19.5t-62.5 53t-39.5 78t-14 94.5q0 63 16 111t45 81t69.5 50t88.5 17
q22 0 51 -7.5t56 -32.5v310l69 23v-333zM430 40q25 -16 46.5 -21.5t42.5 -5.5q25 0 52.5 7.5t50.5 31.5t38 68.5t15 118.5q0 37 -5.5 79t-20.5 77t-42 58.5t-70 23.5q-28 0 -56.5 -10t-50.5 -28v-399zM361 439q-22 18 -50.5 28t-56.5 10q-42 0 -69 -23.5t-42.5 -58.5
t-21 -77t-5.5 -79q0 -74 15 -118.5t38 -68.5t50.5 -31.5t52.5 -7.5q21 0 42.5 5.5t46.5 21.5v399z" />
    <glyph glyph-name="afii10087" unicode="&#x445;" horiz-adv-x="456" 
d="M342 381q-23 -26 -46 -54.5t-45 -55.5l197 -271h-83l-157 220q-15 -20 -38 -49t-46.5 -60.5t-45 -61t-34.5 -49.5h-36q42 49 80 93q16 19 32.5 38.5t31.5 38t27.5 34t21.5 26.5l-184 251h86l141 -201q13 15 32.5 40.5t40.5 54t40.5 57t33.5 49.5h36q-5 -6 -15.5 -18.5
t-23.5 -27.5t-25.5 -29.5t-20.5 -24.5z" />
    <glyph glyph-name="afii10088" unicode="&#x446;" horiz-adv-x="535" 
d="M70 0v481h69v-461q18 -6 32.5 -7t44.5 -1h85q30 0 47 1.5t31 6.5v461h69v-424q0 -26 14.5 -35.5t43.5 -9.5h27v-122h-12v20q-2 16 -8 32t-21.5 29t-42.5 21t-72 8h-307z" />
    <glyph glyph-name="afii10089" unicode="&#x447;" horiz-adv-x="487" 
d="M348 481h69v-481h-69v244q-45 -25 -90 -35t-82 -10q-41 0 -64 14t-34.5 33.5t-14.5 40t-3 32.5v162h69v-162q0 -12 1.5 -28.5t9 -31.5t24 -25.5t45.5 -10.5q44 0 77.5 9.5t61.5 23.5v225z" />
    <glyph glyph-name="afii10090" unicode="&#x448;" horiz-adv-x="773" 
d="M557 12q32 0 50.5 3t26.5 5v461h69v-481h-633v481h69v-461q8 -2 26.5 -5t50.5 -3h58q30 0 48.5 2.5t29.5 5.5v461h69v-461q11 -3 29.5 -5.5t48.5 -2.5h58z" />
    <glyph glyph-name="afii10091" unicode="&#x449;" horiz-adv-x="790" 
d="M70 0v481h69v-461q8 -2 26.5 -5t50.5 -3h58q30 0 48.5 2.5t29.5 5.5v461h69v-461q11 -3 29.5 -5.5t48.5 -2.5h57q30 0 47 1.5t31 6.5v461h69v-424q0 -26 14.5 -35.5t43.5 -9.5h27v-122h-12v20q-2 16 -8 32t-21.5 29t-42.5 21t-72 8h-562z" />
    <glyph glyph-name="afii10092" unicode="&#x44a;" horiz-adv-x="563" 
d="M6 481h228v-186q32 8 59 10.5t51 2.5q54 0 91 -14.5t60 -37t33 -50t10 -52.5q0 -28 -10.5 -57t-33.5 -52t-60.5 -38t-92.5 -15q-24 0 -64 3q-17 2 -41 3t-71 2v469h-33q-13 0 -28.5 -0.5t-32 -4t-33.5 -11.5t-34 -22zM457 154q0 19 -4.5 44t-19 46.5t-42 36.5t-73.5 15
q-20 0 -44 -4t-40 -9v-265q18 -7 41.5 -10.5t48.5 -3.5q65 0 99 40.5t34 109.5z" />
    <glyph glyph-name="afii10093" unicode="&#x44b;" horiz-adv-x="666" 
d="M527 0v481h69v-481h-69zM139 295q32 8 59 10.5t51 2.5q51 0 86 -14.5t57 -37t32 -50t10 -52.5q0 -28 -9.5 -57t-32 -52t-58.5 -38t-88 -15q-24 0 -64 3q-17 2 -41 3t-71 2v481h69v-186zM353 154q0 19 -4.5 44t-18 46.5t-39.5 36.5t-68 15q-20 0 -44 -4t-40 -9v-265
q18 -7 41.5 -10.5t48.5 -3.5q58 0 91 39.5t33 110.5z" />
    <glyph glyph-name="afii10094" unicode="&#x44c;" horiz-adv-x="468" 
d="M139 295q32 8 59 10.5t51 2.5q54 0 91 -14.5t60 -37t33 -50t10 -52.5q0 -28 -10.5 -57t-33.5 -52t-60.5 -38t-92.5 -15q-24 0 -64 3q-17 2 -41 3t-71 2v481h69v-186zM362 154q0 19 -4.5 44t-19 46.5t-42 36.5t-73.5 15q-20 0 -44 -4t-40 -9v-265q18 -7 41.5 -10.5
t48.5 -3.5q65 0 99 40.5t34 109.5z" />
    <glyph glyph-name="afii10095" unicode="&#x44d;" horiz-adv-x="453" 
d="M418 256q0 -133 -59.5 -200t-164.5 -67q-36 0 -64 12.5t-48.5 29.5t-33.5 35.5t-18 29.5l11 6q9 -17 22 -33t31.5 -28.5t42.5 -20t53 -7.5q48 0 76.5 20.5t44.5 55t21 78.5t5 91q-10 1 -18.5 1h-26.5q-70 0 -115 -4.5t-67 -9.5v34q23 -5 60.5 -7.5t94.5 -2.5h34.5t37.5 1
q0 40 -6.5 78t-23 67.5t-44.5 47.5t-72 18q-55 0 -88.5 -23.5t-54.5 -52.5l-6 45q27 17 66 30t81 13q52 0 94.5 -17t72.5 -48t46 -74.5t16 -97.5z" />
    <glyph glyph-name="afii10096" unicode="&#x44e;" horiz-adv-x="760" 
d="M725 240q0 -60 -18 -106.5t-49.5 -78.5t-75.5 -49t-95 -17q-66 0 -111.5 23.5t-73.5 61t-40.5 83t-12.5 90.5v14h-110v-261h-69v481h69v-208h111q4 41 21 80.5t46 70.5t71.5 50t98.5 19q51 0 95 -17t75.5 -49.5t49.5 -79.5t18 -107zM644 240q0 69 -13.5 115.5t-35 74.5
t-50 39.5t-58.5 11.5t-58.5 -11.5t-50 -39.5t-35 -74.5t-13.5 -115.5t13.5 -115t35 -73.5t50 -39t58.5 -11.5t58.5 11.5t50 39t35 73.5t13.5 115z" />
    <glyph glyph-name="afii10097" unicode="&#x44f;" horiz-adv-x="518" 
d="M448 0h-70v48v7v177h-24q-35 0 -57.5 -6.5t-39.5 -20t-31 -35t-30 -51.5t-30 -52.5t-29.5 -38.5t-33.5 -24t-42 -8q-32 0 -45.5 20.5t-13.5 48.5h12q4 -45 26 -45q5 0 10.5 2.5t12.5 11t15.5 23.5t19.5 40q10 21 21.5 40t28.5 36q41 39 100 59q-48 2 -81.5 12.5
t-54.5 27.5t-31 39t-10 48q0 22 9.5 44.5t31.5 40.5t57.5 29t86.5 11q22 0 55 -1.5t62 -1.5h75v-481zM378 463q-27 7 -52 8t-39 1q-60 0 -97.5 -28.5t-37.5 -88.5q0 -14 4 -33t18.5 -37t41.5 -30.5t73 -12.5q25 0 46 0.5t43 7.5v213z" />
    <glyph glyph-name="afii10071" unicode="&#x451;" horiz-adv-x="475" 
d="M258 493q49 0 85 -18.5t59.5 -48.5t35 -68t12.5 -77h-334q0 -87 15 -140t37.5 -81.5t50.5 -37.5t54 -9q47 0 87.5 22.5t74.5 76.5l10 -7q-29 -50 -74 -83t-117 -33q-34 0 -72.5 12t-71 40.5t-54 76.5t-21.5 120q0 58 15.5 105t44 80.5t70 51.5t93.5 18zM373 293
q0 37 -7.5 71.5t-22.5 60t-38 41t-54 15.5q-59 0 -93 -45.5t-42 -142.5h257zM205 637q0 -20 -13.5 -35t-36.5 -15t-36.5 15t-13.5 35t13.5 35t36.5 15t36.5 -15t13.5 -35zM398 637q0 -20 -13.5 -35t-36.5 -15t-36.5 15t-13.5 35t13.5 35t36.5 15t36.5 -15t13.5 -35z" />
    <glyph glyph-name="afii10099" unicode="&#x452;" horiz-adv-x="479" 
d="M139 422q25 24 46.5 36.5t38.5 18t30 6t23 0.5q45 0 76.5 -21.5t52 -58t29.5 -85t9 -103.5q0 -48 -5 -100.5t-16.5 -103t-29.5 -96t-44 -79.5q-24 -32 -47.5 -50t-63.5 -18q-17 0 -32 6t-25 16q-20 22 -20 48q0 17 1.5 26t2.5 13h14q-3 -13 -3.5 -20.5t-0.5 -18.5
q0 -9 3 -19t13 -21q8 -8 20.5 -13t26.5 -5q12 0 26 3t28 13.5t27 30t24 51.5q17 54 24.5 141.5t7.5 210.5q0 66 -9 110.5t-25.5 70.5t-40 37t-51.5 11q-34 0 -61.5 -17.5t-48.5 -34.5v-407h-69v599h-73v16h73v148l69 23v-171h241v-16h-241v-177z" />
    <glyph glyph-name="afii10100" unicode="&#x453;" horiz-adv-x="384" 
d="M374 431q-17 13 -37.5 21t-40.5 11.5t-38.5 4.5t-31.5 1h-87v-469h-69v481h302zM373 698q0 -13 -14 -25t-28 -21q-18 -12 -44 -27.5t-49 -29.5q-27 -17 -56 -33h-24l133 131q22 21 32.5 27t23.5 6q26 0 26 -28z" />
    <glyph glyph-name="afii10101" unicode="&#x454;" horiz-adv-x="470" 
d="M35 246q0 47 16.5 93t46.5 81t72.5 54t98.5 19q83 0 151 -48l-6 -45q-11 16 -25.5 30.5t-32.5 26t-40.5 18t-49.5 6.5q-37 0 -65 -19.5t-46.5 -50.5t-28.5 -71t-10 -80q12 0 17.5 -0.5t10 -0.5h9.5h15q57 0 90.5 2.5t56.5 7.5v-34q-22 5 -63 9.5t-111 4.5h-13t-12 -1
q0 -45 7 -85t24 -72q19 -35 51 -56.5t76 -21.5q59 0 98 28t67 88l11 -5q-10 -27 -26.5 -51t-39 -43t-51.5 -30t-65 -11q-56 0 -101 20t-76 56q-27 32 -41.5 75.5t-14.5 105.5z" />
    <glyph glyph-name="afii10102" unicode="&#x455;" horiz-adv-x="385" 
d="M365 132q0 -33 -15 -61t-40 -48q-20 -16 -50 -25t-63 -9q-27 0 -55 9.5t-51 26.5q-20 15 -36 36t-27 45l11 6q24 -44 60 -70q40 -29 98 -29q16 0 36 5t33 14q38 25 38 70q0 19 -8 34t-20.5 27t-27.5 21t-30 17l-70 38q-54 30 -78 58.5t-24 70.5q0 35 13.5 59t34.5 38.5
t46.5 21t48.5 6.5q34 0 68.5 -9.5t66.5 -28.5l-6 -48q-8 11 -19.5 24t-27.5 24t-36 18.5t-44 7.5q-21 0 -36 -6.5t-25 -17.5t-15 -25t-5 -28q0 -32 14 -49.5t31 -28.5q15 -9 34.5 -19t36.5 -18q30 -15 55 -30t44 -33t29.5 -41t10.5 -53z" />
    <glyph glyph-name="afii10103" unicode="&#x456;" horiz-adv-x="209" 
d="M70 0v472l69 23v-495h-69zM154 637q0 -20 -13.5 -35t-36.5 -15t-36.5 15t-13.5 35t13.5 35t36.5 15t36.5 -15t13.5 -35z" />
    <glyph glyph-name="afii10104" unicode="&#x457;" horiz-adv-x="209" 
d="M197 637q0 -20 -9.5 -35t-28.5 -15q-18 0 -28 15t-10 35t10 35t28 15q19 0 28.5 -15t9.5 -35zM70 0v472l69 23v-495h-69zM88 637q0 -20 -9.5 -35t-28.5 -15q-18 0 -28 15t-10 35t10 35t28 15q19 0 28.5 -15t9.5 -35z" />
    <glyph glyph-name="afii10105" unicode="&#x458;" horiz-adv-x="212" 
d="M73 469q20 5 37 11.5t32 14.5v-502q0 -111 -46 -166q-26 -31 -55 -45t-60 -14q-20 0 -34.5 6.5t-24.5 16.5q-11 11 -16.5 27t-5.5 30q0 9 1 19t5 22h12q-2 -5 -4 -14.5t-2 -25.5q0 -15 5.5 -28.5t13.5 -21.5q11 -11 24.5 -15t24.5 -4q6 0 15.5 1t20 5.5t21 14.5t18.5 27
q18 39 18 124v517zM156 637q0 -20 -13.5 -35t-36.5 -15t-36.5 15t-13.5 35t13.5 35t36.5 15t36.5 -15t13.5 -35z" />
    <glyph glyph-name="afii10106" unicode="&#x459;" horiz-adv-x="748" 
d="M127 481h292v-186q32 8 59 10.5t51 2.5q54 0 91 -14.5t60 -37t33 -50t10 -52.5q0 -28 -10.5 -57t-33.5 -52t-60.5 -38t-92.5 -15q-24 0 -64 3q-17 2 -41 3t-71 2v462q-14 5 -32 6t-33 1h-35q-5 0 -12.5 -0.5t-15 -1.5t-13.5 -2.5t-9 -2.5l-5 -64q-4 -37 -6 -75t-7 -79
q-4 -29 -8 -60t-11 -60q-7 -28 -14.5 -50t-16.5 -37q-17 -27 -37.5 -36.5t-45.5 -9.5q-17 0 -28.5 5t-16.5 7l6 42q28 -31 61 -31q21 0 32.5 11.5t22.5 29.5q9 16 16 39t12 49q5 22 7.5 46.5t5.5 48.5q5 38 7.5 84.5t2.5 85.5q0 26 -12 42.5t-38 18.5v12zM642 154
q0 19 -4.5 44t-19 46.5t-42 36.5t-73.5 15q-20 0 -44 -4t-40 -9v-265q18 -7 41.5 -10.5t48.5 -3.5q65 0 99 40.5t34 109.5z" />
    <glyph glyph-name="afii10107" unicode="&#x45a;" horiz-adv-x="782" 
d="M453 295q32 8 59 10.5t51 2.5q54 0 91 -14.5t60 -37t33 -50t10 -52.5q0 -28 -10.5 -57t-33.5 -52t-60.5 -38t-92.5 -15q-24 0 -64 3q-17 2 -41 3t-71 2v254h-245v-254h-69v481h69v-215h245v215h69v-186zM676 154q0 19 -4.5 44t-19 46.5t-42 36.5t-73.5 15q-20 0 -44 -4
t-40 -9v-265q18 -7 41.5 -10.5t48.5 -3.5q65 0 99 40.5t34 109.5z" />
    <glyph glyph-name="afii10108" unicode="&#x45b;" horiz-adv-x="517" 
d="M447 0h-69v324q0 52 -11 81t-28.5 43.5t-37.5 17.5t-38 3q-29 0 -62.5 -14t-61.5 -31v-424h-69v599h-73v16h73v148l69 23v-171h239v-16h-239v-161q45 32 84 43.5t69 11.5q55 0 86 -17.5t46.5 -44.5t19 -60t3.5 -63v-308z" />
    <glyph glyph-name="afii10109" unicode="&#x45c;" horiz-adv-x="507" 
d="M207 266q22 0 39 10t31 27t25 39.5t20 48.5q5 13 11 28t13.5 28.5t17 24t22.5 15.5q13 6 36 6q14 0 25 -2.5t22 -7.5l-6 -40q-16 20 -32 26.5t-26 6.5q-14 0 -22 -6t-16 -17q-11 -16 -18.5 -34t-11.5 -29q-14 -38 -34.5 -76t-58.5 -55q23 -5 40.5 -14.5t32.5 -20.5
q37 -27 57 -65t34 -73q12 -32 24.5 -52.5t29.5 -20.5q13 0 21 14.5t10 37.5h12q-3 -40 -20.5 -58t-45.5 -18q-43 0 -71.5 33t-51.5 84l-31 72q-9 22 -24 40t-34 29q-10 5 -21 6t-22 1h-45v-254h-69v481h69v-215h68zM422 698q0 -13 -14 -25t-28 -21q-18 -12 -44 -27.5
t-49 -29.5q-27 -17 -56 -33h-24l133 131q22 21 32.5 27t23.5 6q26 0 26 -28z" />
    <glyph glyph-name="afii10110" unicode="&#x45e;" horiz-adv-x="471" 
d="M275 63q26 70 44.5 121t31.5 88t22 63.5t16 49.5t13.5 45.5t14.5 50.5h34q-12 -28 -28 -68.5t-34 -85.5t-35.5 -91.5t-32.5 -87.5q-16 -43 -35.5 -91t-46.5 -114q-15 -37 -31.5 -71.5t-37.5 -60.5q-17 -19 -38 -31t-50 -12q-22 0 -36.5 5.5t-25.5 11.5l6 42
q22 -23 39.5 -29t30.5 -6q20 0 34 6t29 23q18 24 39.5 65.5t39.5 96.5q-24 53 -53 117t-59 131t-58.5 131.5t-52.5 118.5h76l184 -418v0zM149 641q6 -47 32.5 -63t65.5 -16t65.5 16t32.5 63l38 -19q-20 -41 -57 -56.5t-79 -15.5t-79 15.5t-57 56.5z" />
    <glyph glyph-name="afii10193" unicode="&#x45f;" horiz-adv-x="518" 
d="M70 0v481h69v-461q8 -2 23.5 -5t45.5 -3h92q30 0 49.5 2.5t29.5 5.5v461h69v-481h-128q-9 -4 -19 -11.5t-18 -22t-13 -38t-5 -59.5h-13q0 36 -5 59.5t-13 38t-17.5 22t-19.5 11.5h-127z" />
    <glyph glyph-name="afii10146" unicode="&#x462;" horiz-adv-x="797" 
d="M322 418q32 11 69.5 18.5t85.5 7.5q82 0 136 -18t86 -48t45 -68.5t13 -79.5q0 -39 -14 -81t-48.5 -76t-91.5 -56t-143 -22q-16 0 -36 1t-41 2t-41 1.5t-36 0.5h-69v655h-31q-49 0 -81.5 -4t-54 -10.5t-35.5 -14t-25 -13.5l3 54h224v141h85v-141h307l3 -54
q-11 6 -26.5 13.5t-39 14t-57.5 10.5t-83 4h-104v-237zM664 226q0 206 -204 206q-26 0 -64.5 -6.5t-73.5 -20.5v-385q34 -8 68 -10.5t66 -2.5q45 0 83 15t66 43.5t43.5 69t15.5 91.5z" />
    <glyph glyph-name="afii10194" unicode="&#x463;" horiz-adv-x="555" 
d="M437 431q-16 13 -39 21t-47 11.5t-45.5 4.5t-34.5 1h-45v-174q32 8 59 10.5t51 2.5q54 0 91 -14.5t60 -37t33 -50t10 -52.5q0 -28 -10.5 -57t-33.5 -52t-60.5 -38t-92.5 -15q-24 0 -64 3q-17 2 -41 3t-71 2v469h-23q-13 0 -29 -1t-33.5 -4.5t-34.5 -11.5t-33 -21l2 50
h151v282l69 23v-305h209zM449 154q0 19 -4.5 44t-19 46.5t-42 36.5t-73.5 15q-20 0 -44 -4t-40 -9v-265q18 -7 41.5 -10.5t48.5 -3.5q65 0 99 40.5t34 109.5z" />
    <glyph glyph-name="afii10147" unicode="&#x472;" horiz-adv-x="862" 
d="M564 378q30 0 59 13t48 42h14q-9 -21 -25.5 -40t-37 -34t-44 -23.5t-47.5 -8.5q-25 0 -56 7t-62 19q-56 22 -85 28.5t-42 6.5q-29 0 -58.5 -13.5t-48.5 -42.5h-14q9 20 25.5 39t37 34t44 24t47.5 9q26 0 54 -6t47 -13q59 -21 93.5 -31t50.5 -10zM806 363q0 -37 -8 -79.5
t-25.5 -84.5t-46 -80.5t-70.5 -68t-98 -47t-128 -17.5q-71 0 -127 17.5t-97.5 47t-70 68t-46 80.5t-25.5 84.5t-8 79.5q0 60 20 126t64 121.5t115.5 92t174.5 36.5q105 0 176.5 -34.5t116 -89t64 -121.5t19.5 -131zM713 363q0 78 -18.5 144.5t-54 115.5t-88.5 76.5
t-122 27.5q-68 0 -120.5 -26t-88 -73.5t-54 -115t-18.5 -149.5q0 -70 17.5 -135.5t53 -116.5t88 -82t122.5 -31q72 0 125 31t88 82t52.5 116.5t17.5 135.5z" />
    <glyph glyph-name="afii10195" unicode="&#x473;" horiz-adv-x="548" 
d="M354 258q17 0 31.5 6t25.5 22h11q-11 -27 -35.5 -47.5t-54.5 -20.5q-17 0 -32 3.5t-35 11.5q-18 7 -30 10.5t-20 5t-13.5 1.5h-11.5q-17 0 -30.5 -6.5t-25.5 -22.5h-10q12 26 35.5 47t53.5 21q17 0 30.5 -2.5t26.5 -7.5q20 -7 33.5 -11t22.5 -6.5t15.5 -3t12.5 -0.5z
M513 240q0 -57 -18 -103t-50 -79t-75.5 -51t-95.5 -18q-51 0 -95 17.5t-76 50.5t-50 79.5t-18 103.5q0 63 18 110.5t50 79t76 47.5t95 16q52 0 95.5 -15t75.5 -45.5t50 -78.5t18 -114zM432 240q0 69 -13.5 115.5t-35.5 74.5t-50.5 39.5t-58.5 11.5t-58.5 -11.5t-50.5 -39.5
t-35.5 -74.5t-13.5 -115.5t13.5 -115t35.5 -73.5t50.5 -39t58.5 -11.5t58.5 11.5t50.5 39t35.5 73.5t13.5 115z" />
    <glyph glyph-name="afii10148" unicode="&#x474;" horiz-adv-x="696" 
d="M349 -14h-12l-307 737h88l254 -627q20 63 42.5 130.5t45.5 135.5t45.5 135t42.5 130q11 31 21.5 54.5t25.5 38.5q12 11 26.5 15t34.5 4q14 0 26.5 -4t23.5 -9l-5 -44q-14 17 -32 24.5t-32 7.5t-26 -4.5t-23 -24.5q-8 -14 -14 -31.5t-15 -43.5z" />
    <glyph glyph-name="afii10196" unicode="&#x475;" horiz-adv-x="492" 
d="M460 493q20 0 42 -11l-6 -40q-8 9 -19.5 18t-29.5 9q-13 0 -22 -5.5t-15 -13.5t-10 -17.5t-7 -17.5q-25 -69 -45 -126.5t-37.5 -108.5t-33.5 -97.5t-33 -93.5h-10l-214 492h71l170 -400l112 323q5 15 11.5 30.5t16 28.5t24 21.5t35.5 8.5z" />
    <glyph glyph-name="afii10050" unicode="&#x490;" horiz-adv-x="484" 
d="M472 711h-222q-21 0 -40 -2.5t-35 -7.5v-701h-85v723h154q35 0 67.5 2.5t61 9t51 18t38.5 30.5l6 37h12z" />
    <glyph glyph-name="afii10098" unicode="&#x491;" horiz-adv-x="366" 
d="M175 481q21 0 44.5 1.5t46 6t42.5 13t34 23.5l4 32h12l-4 -88h-141q-14 0 -35.5 -0.5t-38.5 -7.5v-461h-69v481h105v0z" />
    <glyph glyph-name="Germandbls" unicode="&#x1e9e;" horiz-adv-x="666" 
d="M90 0v517q0 105 86 172q22 17 46.5 27t48 15t43.5 6.5t32 1.5q50 0 84.5 -9.5t59.5 -24.5q22 -14 37 -31t24.5 -35t14.5 -35t8 -30l-223 -169q48 -4 89.5 -15t74.5 -29q48 -26 74.5 -64.5t26.5 -86.5q0 -59 -23 -104t-63 -74q-31 -23 -65.5 -34.5t-75.5 -11.5
q-22 0 -43 6.5t-33 17.5q-14 12 -21 28.5t-7 31.5q0 20 6 35h14q-2 -8 -4 -14.5t-2 -20.5q0 -13 6 -27t18 -25q13 -11 33 -14.5t33 -3.5q33 0 55.5 12t42.5 39q20 28 28 62.5t8 84.5q0 21 -5.5 53.5t-25.5 63t-58.5 53t-103.5 24.5v13l174 135q0 49 -16 84.5t-37 58.5
q-25 26 -53.5 35t-51.5 9q-10 0 -24.5 -1.5t-31 -6.5t-33.5 -15t-33 -27q-48 -53 -48 -154v-523h-86z" />
    <glyph glyph-name="uni2010" unicode="&#x2010;" horiz-adv-x="354" 
d="M50 288h254v-16h-254v16z" />
    <glyph glyph-name="uni2011" unicode="&#x2011;" horiz-adv-x="354" 
d="M50 288h254v-16h-254v16z" />
    <glyph glyph-name="figuredash" unicode="&#x2012;" 
d="M40 361v16h448v-16h-448z" />
    <glyph glyph-name="endash" unicode="&#x2013;" horiz-adv-x="656" 
d="M50 272v16h556v-16h-556z" />
    <glyph glyph-name="emdash" unicode="&#x2014;" horiz-adv-x="855" 
d="M50 272v16h755v-16h-755z" />
    <glyph glyph-name="quoteleft" unicode="&#x2018;" horiz-adv-x="215" 
d="M49.0195 545.004q0 52.9941 27.9971 104.987q27.9961 51.9932 67.9912 87.9893l8.99902 -8.99902q-31.9961 -32.9961 -46.9941 -63.4922t-14.998 -53.4932q0 -20.998 9.49902 -29.4971q9.49805 -8.49902 25.4961 -19.4971q13.999 -8.99902 22.498 -19.498
q8.49902 -10.498 8.49902 -26.4961q0 -18.998 -13.999 -31.9961q-13.998 -12.999 -36.9951 -12.999q-23.9971 0 -40.9951 17.998t-16.998 54.9932z" />
    <glyph glyph-name="quoteright" unicode="&#x2019;" horiz-adv-x="215" 
d="M162 663q0 -53 -28 -105t-68 -88l-9 9q32 33 47 63.5t15 53.5q0 21 -9.5 29.5t-25.5 19.5q-14 9 -22.5 19.5t-8.5 26.5q0 19 14 32t37 13q24 0 41 -18t17 -55z" />
    <glyph glyph-name="quotesinglbase" unicode="&#x201a;" horiz-adv-x="215" 
d="M162 33q0 -53 -28 -105t-68 -88l-9 9q32 33 47 63.5t15 53.5q0 21 -9.5 29.5t-25.5 19.5q-14 9 -22.5 19.5t-8.5 26.5q0 19 14 32t37 13q24 0 41 -18t17 -55z" />
    <glyph glyph-name="quotedblleft" unicode="&#x201c;" horiz-adv-x="393" 
d="M49.0195 545.004q0 52.9941 27.9971 104.987q27.9961 51.9932 67.9912 87.9893l8.99902 -8.99902q-31.9961 -32.9961 -46.9941 -63.4922t-14.998 -53.4932q0 -20.998 9.49902 -29.4971q9.49805 -8.49902 25.4961 -19.4971q13.999 -8.99902 22.498 -19.498
q8.49902 -10.498 8.49902 -26.4961q0 -18.998 -13.999 -31.9961q-13.998 -12.999 -36.9951 -12.999q-23.9971 0 -40.9951 17.998t-16.998 54.9932zM227.02 545.004q0 52.9941 27.9971 104.987q27.9961 51.9932 67.9912 87.9893l8.99902 -8.99902
q-31.9961 -32.9961 -46.9941 -63.4922t-14.998 -53.4932q0 -20.998 9.49902 -29.4971q9.49805 -8.49902 25.4961 -19.4971q13.999 -8.99902 22.498 -19.498q8.49902 -10.498 8.49902 -26.4961q0 -18.998 -13.999 -31.9961q-13.998 -12.999 -36.9951 -12.999
q-23.9971 0 -40.9951 17.998t-16.998 54.9932z" />
    <glyph glyph-name="quotedblright" unicode="&#x201d;" horiz-adv-x="393" 
d="M162 663q0 -53 -28 -105t-68 -88l-9 9q32 33 47 63.5t15 53.5q0 21 -9.5 29.5t-25.5 19.5q-14 9 -22.5 19.5t-8.5 26.5q0 19 14 32t37 13q24 0 41 -18t17 -55zM340 663q0 -53 -28 -105t-68 -88l-9 9q32 33 47 63.5t15 53.5q0 21 -9.5 29.5t-25.5 19.5q-14 9 -22.5 19.5
t-8.5 26.5q0 19 14 32t37 13q24 0 41 -18t17 -55z" />
    <glyph glyph-name="quotedblbase" unicode="&#x201e;" horiz-adv-x="393" 
d="M162 33q0 -53 -28 -105t-68 -88l-9 9q32 33 47 63.5t15 53.5q0 21 -9.5 29.5t-25.5 19.5q-14 9 -22.5 19.5t-8.5 26.5q0 19 14 32t37 13q24 0 41 -18t17 -55zM340 33q0 -53 -28 -105t-68 -88l-9 9q32 33 47 63.5t15 53.5q0 21 -9.5 29.5t-25.5 19.5q-14 9 -22.5 19.5
t-8.5 26.5q0 19 14 32t37 13q24 0 41 -18t17 -55z" />
    <glyph glyph-name="dagger" unicode="&#x2020;" horiz-adv-x="502" 
d="M251 707q6 0 15.5 -2.5t18 -9t14.5 -19.5t6 -34q0 -33 -14 -61.5t-24 -59.5q-5 -14 -7 -27t-3 -33l26 2q15 1 28.5 7.5t27.5 14t28 13.5t29 6q22 0 36.5 -12.5t14.5 -37.5q0 -27 -18 -38t-33 -11t-29.5 5.5t-28 12.5t-27 13.5t-28.5 8.5l-26 3q0 -21 6 -38.5t13 -29.5
q8 -14 18 -25q-21 -38 -27.5 -108.5t-7.5 -181.5l-2 -214h-12l-2 214q-1 111 -7.5 181.5t-27.5 108.5q10 11 18 25q7 12 12.5 29.5t6.5 38.5l-26 -3q-15 -2 -28.5 -8.5t-27 -13.5t-28 -12.5t-29.5 -5.5t-33 11t-18 38q0 25 14.5 37.5t36.5 12.5q15 0 29 -6t28 -13.5
t27.5 -14t28.5 -7.5l26 -2q-1 20 -3 33t-7 27q-10 31 -24 59.5t-14 61.5q0 21 6 34t15 19.5t18 9t15 2.5z" />
    <glyph glyph-name="daggerdbl" unicode="&#x2021;" horiz-adv-x="502" 
d="M219 445q-15 -2 -28.5 -8.5t-27 -13.5t-28 -12.5t-29.5 -5.5t-33 11t-18 38q0 25 14.5 37.5t36.5 12.5q15 0 29 -6t28 -13.5t27.5 -14t28.5 -7.5l26 -2q-1 20 -3 33t-7 27q-10 31 -24 59.5t-14 61.5q0 21 6 34t15 19.5t18 9t15 2.5t15.5 -2.5t18 -9t14.5 -19.5t6 -34
q0 -33 -14 -61.5t-24 -59.5q-5 -14 -7 -27t-3 -33l26 2q15 1 28.5 7.5t27.5 14t28 13.5t29 6q22 0 36.5 -12.5t14.5 -37.5q0 -27 -18 -38t-33 -11t-29.5 5.5t-28 12.5t-27 13.5t-28.5 8.5l-26 3v-37q0 -36 10 -63t33 -61q-13 -18 -21 -33.5t-13 -31t-7 -32t-2 -36.5v-29
l26 3q15 2 28.5 8.5t27 13.5t28 12.5t29.5 5.5t33 -11t18 -38q0 -25 -14.5 -37.5t-36.5 -12.5q-15 0 -29 6t-28 13.5t-27.5 14t-28.5 7.5l-26 2q1 -20 3 -33t7 -27q10 -31 24 -59.5t14 -61.5q0 -21 -6 -34t-15 -19.5t-18 -9t-15 -2.5t-15.5 2.5t-18 9t-14.5 19.5t-6 34
q0 33 14 61.5t24 59.5q5 14 7 27t3 33l-26 -2q-15 -1 -28.5 -7.5t-27.5 -14t-28 -13.5t-29 -6q-22 0 -36.5 12.5t-14.5 37.5q0 27 18 38t33 11t29.5 -5.5t28 -12.5t27 -13.5t28.5 -8.5l26 -3v29q0 20 -2 36.5t-7 32t-13 31t-21 33.5q22 34 32.5 61t10.5 63v37z" />
    <glyph glyph-name="bullet" unicode="&#x2022;" horiz-adv-x="412" 
d="M123 293q0 35 24 59t59 24t59 -24t24 -59t-24 -59t-59 -24t-59 24t-24 59z" />
    <glyph glyph-name="ellipsis" unicode="&#x2026;" horiz-adv-x="660" 
d="M153 35q0 -20 -13.5 -35t-36.5 -15q-20 0 -35 14t-15 36q0 21 15 35.5t35 14.5q23 0 36.5 -15t13.5 -35zM380 35q0 -20 -13.5 -35t-36.5 -15q-20 0 -35 14t-15 36q0 21 15 35.5t35 14.5q23 0 36.5 -15t13.5 -35zM607 35q0 -20 -13.5 -35t-36.5 -15q-20 0 -35 14t-15 36
q0 21 15 35.5t35 14.5q23 0 36.5 -15t13.5 -35z" />
    <glyph glyph-name="perthousand" unicode="&#x2030;" horiz-adv-x="1137" 
d="M332 588q0 -42 -14 -71t-35 -47t-45.5 -25.5t-46.5 -7.5q-39 0 -66.5 14t-44 36t-24 49t-7.5 52t7.5 52t24 49t44 36t66.5 14q22 0 47 -8t46 -26t34.5 -46.5t13.5 -70.5zM269 588q0 9 -1.5 32t-9 47t-23 42t-44.5 18t-45 -17.5t-23.5 -41t-9 -46.5t-1.5 -34
q0 -12 1.5 -35.5t9 -46.5t23.5 -40t45 -17t44.5 18t23 41.5t9 46.5t1.5 33zM722 137q0 -42 -14 -71t-35 -47t-45.5 -25.5t-46.5 -7.5q-39 0 -66.5 14t-44 36t-24 49t-7.5 52t7.5 52t24 49t44 36t66.5 14q22 0 47 -8t46 -26t34.5 -46.5t13.5 -70.5zM659 137q0 9 -1.5 32
t-9 47t-23 42t-44.5 18t-45 -17.5t-23.5 -41t-9 -46.5t-1.5 -34q0 -12 1.5 -35.5t9 -46.5t23.5 -40t45 -17t44.5 18t23 41.5t9 46.5t1.5 33zM1088 137q0 -42 -14 -71t-35 -47t-45.5 -25.5t-46.5 -7.5q-39 0 -66.5 14t-44 36t-24 49t-7.5 52t7.5 52t24 49t44 36t66.5 14
q22 0 47 -8t46 -26t34.5 -46.5t13.5 -70.5zM1025 137q0 9 -1.5 32t-9 47t-23 42t-44.5 18t-45 -17.5t-23.5 -41t-9 -46.5t-1.5 -34q0 -12 1.5 -35.5t9 -46.5t23.5 -40t45 -17t44.5 18t23 41.5t9 46.5t1.5 33zM134 -13l-15 10l500 744l15 -11z" />
    <glyph glyph-name="guilsinglleft" unicode="&#x2039;" horiz-adv-x="399" 
d="M33 238q43 27 87 58t86 64q42 32 80 65t70 63l10 -8q-19 -26 -51 -63t-84 -90q-20 -20 -43.5 -42.5t-49.5 -46.5q26 -24 49.5 -46.5t43.5 -42.5q52 -53 84 -90t51 -63l-10 -8q-32 30 -70 63t-80 65q-42 33 -86 64t-87 58z" />
    <glyph glyph-name="guilsinglright" unicode="&#x203a;" horiz-adv-x="399" 
d="M366 238q-43 -27 -87 -58t-86 -64q-42 -32 -80 -65t-70 -63l-10 8q19 26 51 63t84 90q20 20 43.5 42.5t49.5 46.5q-26 24 -49.5 46.5t-43.5 42.5q-52 53 -84 90t-51 63l10 8q32 -30 70 -63t80 -65q42 -33 86 -64t87 -58z" />
    <glyph glyph-name="fraction" unicode="&#x2044;" horiz-adv-x="135" 
d="M-175 -16l-15 10l500 744l15 -11z" />
    <glyph glyph-name="Euro" unicode="&#x20ac;" 
d="M152 314q3 -73 15 -131.5t34 -99.5t52.5 -63t70.5 -22q49 0 93.5 23.5t74.5 73.5l6 -56q-26 -17 -51 -27.5t-47.5 -16t-41.5 -7.5t-34 -2q-74 0 -123.5 27.5t-79.5 73t-44 105t-17 122.5h-57l5 12h51v31v22t1 25h-57l5 12h53q4 51 18 108t44.5 104t80.5 78t126 31
q45 0 86 -15t76 -39l-6 -56q-25 42 -67.5 70t-98.5 28q-48 0 -79 -27.5t-50 -71.5t-27.5 -99t-10.5 -111h245l-5 -12h-240q-1 -14 -1 -24v-21v-33h195l-4 -12h-191z" />
    <glyph glyph-name="uni20B4" unicode="&#x20b4;" 
d="M314 402q-26 -20 -57.5 -48.5t-57.5 -60.5h281v-12h-290q-11 -16 -20 -35.5t-15 -39t-9.5 -37t-3.5 -30.5q0 -39 10.5 -64t27 -39.5t37.5 -20t42 -5.5q35 0 66.5 12t59 31t51 43.5t43.5 48.5l10 -8q-18 -22 -40 -48t-52.5 -49t-71 -38.5t-93.5 -15.5q-36 0 -69 7.5
t-58.5 24.5t-40.5 44.5t-15 68.5q0 48 19.5 84.5t47.5 65.5h-86v12h98q17 17 51 46.5t77 62.5h-226v12h242q31 24 52 45t34 42.5t19 45t6 50.5q0 57 -28 87.5t-76 30.5q-19 0 -42 -6t-47.5 -21t-49.5 -41t-48 -65l-11 6q46 82 100.5 116.5t127.5 34.5q33 0 63 -7.5t53 -23.5
t37 -41t14 -59q0 -57 -41.5 -104t-104.5 -90h150v-12h-166z" />
    <glyph glyph-name="uni20BD" unicode="&#x20bd;" 
d="M157 200v-200h-85v200h-77v16h77v78h-75v16h75v413h8q25 0 49 2l48 4q23 2 46.5 3.5t46.5 1.5q79 0 128.5 -20t77.5 -51t38 -69.5t10 -75.5q0 -45 -17 -85.5t-52 -71.5t-88 -49t-126 -18h-84v-78h241v-16h-241zM431 518q0 46 -9.5 83.5t-30 64.5t-53.5 41.5t-80 14.5
q-24 0 -53.5 -5t-47.5 -10v-397h85q88 0 138.5 50.5t50.5 157.5z" />
    <glyph glyph-name="afii61352" unicode="&#x2116;" horiz-adv-x="1066" 
d="M78 720h106l460 -610v483q0 16 2.5 40.5t13.5 47.5t35 39t67 16q19 0 31.5 -3.5t26.5 -9.5l-6 -42q-11 14 -29.5 22.5t-43.5 8.5q-17 0 -32.5 -5t-27.5 -21q-10 -13 -16.5 -35.5t-6.5 -57.5v-607h-13l-463 599v-432q0 -34 -4 -62t-12 -47q-18 -33 -42.5 -46t-48.5 -13
q-30 0 -46 6t-27 11l6 46q15 -17 35 -28t40 -11q31 0 46.5 12.5t23.5 31.5q11 27 13 60.5t2 63.5v426zM1056 355q0 -42 -15.5 -71t-38.5 -47t-49.5 -26t-48.5 -8q-39 0 -67.5 14t-47 36.5t-27.5 49t-9 52.5q0 25 9 52t27.5 49t47 36t67.5 14q22 0 48.5 -8t49.5 -26
t38.5 -46.5t15.5 -70.5zM993 355q0 9 -2 32t-10.5 47t-26.5 42t-50 18q-31 0 -48.5 -17.5t-26.5 -41t-11 -46.5t-2 -34q0 -12 2 -35.5t11 -47t26.5 -40.5t48.5 -17q32 0 50 18t26.5 42t10.5 47t2 33zM778 146v14h252v-14h-252z" />
    <glyph glyph-name="trademark" unicode="&#x2122;" horiz-adv-x="594" 
d="M499 469v217l-83 -197h-20l-90 195v-115v-18.5t1 -27.5t2 -29.5t3 -24.5h-24q2 10 3 24t2 28.5t1 27.5v20v151h47l82 -182l77 182h44v-251h-45zM255 688q-17 12 -37.5 16t-43.5 4h-16v-239h-45v239h-16q-23 0 -43.5 -4t-37.5 -16l2 32h235z" />
    <glyph glyph-name="partialdiff" unicode="&#x2202;" horiz-adv-x="502" 
d="M294 493q26 0 51 -7t46 -23t36.5 -42t22.5 -64q4 28 7.5 62.5t3.5 72.5q0 42 -7 83.5t-25 74.5t-49.5 53t-80.5 20q-56 0 -94.5 -24.5t-67.5 -66.5q-1 1 -5 3.5t-6 2.5q15 28 35.5 54.5t46.5 46.5t56.5 32t63.5 12q48 0 78.5 -22t48 -56.5t24.5 -78t7 -86.5
q0 -32 -5.5 -85.5t-19.5 -115.5t-36 -125t-55 -114t-78 -83.5t-103 -32.5q-36 0 -66 11t-51.5 33.5t-34 56.5t-12.5 79q0 59 16 117.5t49 105.5t84 76.5t120 29.5zM207 8q51 0 90.5 31.5t68.5 78.5t48 102t30 102q-11 86 -51 122.5t-97 36.5q-44 0 -79 -30t-60 -76.5
t-38 -103t-13 -109.5q0 -29 6 -57t18.5 -49.5t31.5 -34.5t45 -13z" />
    <glyph glyph-name="product" unicode="&#x220f;" horiz-adv-x="758" 
d="M583 -100v801q-10 2 -25.5 4t-34 3.5t-38.5 2t-38 0.5h-138q-33 0 -70.5 -2t-63.5 -8v-801h-85v823h578v-823h-85z" />
    </font>
</defs>
</svg>
